G04 #@! TF.GenerationSoftware,KiCad,Pcbnew,(5.0.2)-1*
G04 #@! TF.CreationDate,2019-02-17T16:43:36+01:00*
G04 #@! TF.ProjectId,_saved_lasergame vs,5f736176-6564-45f6-9c61-73657267616d,rev?*
G04 #@! TF.SameCoordinates,Original*
G04 #@! TF.FileFunction,Legend,Top*
G04 #@! TF.FilePolarity,Positive*
%FSLAX46Y46*%
G04 Gerber Fmt 4.6, Leading zero omitted, Abs format (unit mm)*
G04 Created by KiCad (PCBNEW (5.0.2)-1) date 17/02/2019 16:43:36*
%MOMM*%
%LPD*%
G01*
G04 APERTURE LIST*
%ADD10C,0.300000*%
%ADD11C,0.120000*%
%ADD12C,0.150000*%
G04 APERTURE END LIST*
D10*
X165965714Y-130738571D02*
X165465714Y-130024285D01*
X165108571Y-130738571D02*
X165108571Y-129238571D01*
X165680000Y-129238571D01*
X165822857Y-129310000D01*
X165894285Y-129381428D01*
X165965714Y-129524285D01*
X165965714Y-129738571D01*
X165894285Y-129881428D01*
X165822857Y-129952857D01*
X165680000Y-130024285D01*
X165108571Y-130024285D01*
X166608571Y-129952857D02*
X167108571Y-129952857D01*
X167322857Y-130738571D02*
X166608571Y-130738571D01*
X166608571Y-129238571D01*
X167322857Y-129238571D01*
X167965714Y-130738571D02*
X167965714Y-129238571D01*
X168322857Y-129238571D01*
X168537142Y-129310000D01*
X168680000Y-129452857D01*
X168751428Y-129595714D01*
X168822857Y-129881428D01*
X168822857Y-130095714D01*
X168751428Y-130381428D01*
X168680000Y-130524285D01*
X168537142Y-130667142D01*
X168322857Y-130738571D01*
X167965714Y-130738571D01*
X160527142Y-129290000D02*
X160384285Y-129218571D01*
X160170000Y-129218571D01*
X159955714Y-129290000D01*
X159812857Y-129432857D01*
X159741428Y-129575714D01*
X159670000Y-129861428D01*
X159670000Y-130075714D01*
X159741428Y-130361428D01*
X159812857Y-130504285D01*
X159955714Y-130647142D01*
X160170000Y-130718571D01*
X160312857Y-130718571D01*
X160527142Y-130647142D01*
X160598571Y-130575714D01*
X160598571Y-130075714D01*
X160312857Y-130075714D01*
X162098571Y-130718571D02*
X161598571Y-130004285D01*
X161241428Y-130718571D02*
X161241428Y-129218571D01*
X161812857Y-129218571D01*
X161955714Y-129290000D01*
X162027142Y-129361428D01*
X162098571Y-129504285D01*
X162098571Y-129718571D01*
X162027142Y-129861428D01*
X161955714Y-129932857D01*
X161812857Y-130004285D01*
X161241428Y-130004285D01*
X162741428Y-130718571D02*
X162741428Y-129218571D01*
X163598571Y-130718571D01*
X163598571Y-129218571D01*
X143545714Y-130698571D02*
X143045714Y-129984285D01*
X142688571Y-130698571D02*
X142688571Y-129198571D01*
X143260000Y-129198571D01*
X143402857Y-129270000D01*
X143474285Y-129341428D01*
X143545714Y-129484285D01*
X143545714Y-129698571D01*
X143474285Y-129841428D01*
X143402857Y-129912857D01*
X143260000Y-129984285D01*
X142688571Y-129984285D01*
X144188571Y-129912857D02*
X144688571Y-129912857D01*
X144902857Y-130698571D02*
X144188571Y-130698571D01*
X144188571Y-129198571D01*
X144902857Y-129198571D01*
X145545714Y-130698571D02*
X145545714Y-129198571D01*
X145902857Y-129198571D01*
X146117142Y-129270000D01*
X146260000Y-129412857D01*
X146331428Y-129555714D01*
X146402857Y-129841428D01*
X146402857Y-130055714D01*
X146331428Y-130341428D01*
X146260000Y-130484285D01*
X146117142Y-130627142D01*
X145902857Y-130698571D01*
X145545714Y-130698571D01*
X138247142Y-129320000D02*
X138104285Y-129248571D01*
X137890000Y-129248571D01*
X137675714Y-129320000D01*
X137532857Y-129462857D01*
X137461428Y-129605714D01*
X137390000Y-129891428D01*
X137390000Y-130105714D01*
X137461428Y-130391428D01*
X137532857Y-130534285D01*
X137675714Y-130677142D01*
X137890000Y-130748571D01*
X138032857Y-130748571D01*
X138247142Y-130677142D01*
X138318571Y-130605714D01*
X138318571Y-130105714D01*
X138032857Y-130105714D01*
X139818571Y-130748571D02*
X139318571Y-130034285D01*
X138961428Y-130748571D02*
X138961428Y-129248571D01*
X139532857Y-129248571D01*
X139675714Y-129320000D01*
X139747142Y-129391428D01*
X139818571Y-129534285D01*
X139818571Y-129748571D01*
X139747142Y-129891428D01*
X139675714Y-129962857D01*
X139532857Y-130034285D01*
X138961428Y-130034285D01*
X140461428Y-130748571D02*
X140461428Y-129248571D01*
X141318571Y-130748571D01*
X141318571Y-129248571D01*
X132157142Y-129360000D02*
X132014285Y-129288571D01*
X131800000Y-129288571D01*
X131585714Y-129360000D01*
X131442857Y-129502857D01*
X131371428Y-129645714D01*
X131300000Y-129931428D01*
X131300000Y-130145714D01*
X131371428Y-130431428D01*
X131442857Y-130574285D01*
X131585714Y-130717142D01*
X131800000Y-130788571D01*
X131942857Y-130788571D01*
X132157142Y-130717142D01*
X132228571Y-130645714D01*
X132228571Y-130145714D01*
X131942857Y-130145714D01*
X132871428Y-130788571D02*
X132871428Y-129288571D01*
X133728571Y-130788571D01*
X133728571Y-129288571D01*
X134442857Y-130788571D02*
X134442857Y-129288571D01*
X134800000Y-129288571D01*
X135014285Y-129360000D01*
X135157142Y-129502857D01*
X135228571Y-129645714D01*
X135300000Y-129931428D01*
X135300000Y-130145714D01*
X135228571Y-130431428D01*
X135157142Y-130574285D01*
X135014285Y-130717142D01*
X134800000Y-130788571D01*
X134442857Y-130788571D01*
X154237142Y-129230000D02*
X154094285Y-129158571D01*
X153880000Y-129158571D01*
X153665714Y-129230000D01*
X153522857Y-129372857D01*
X153451428Y-129515714D01*
X153380000Y-129801428D01*
X153380000Y-130015714D01*
X153451428Y-130301428D01*
X153522857Y-130444285D01*
X153665714Y-130587142D01*
X153880000Y-130658571D01*
X154022857Y-130658571D01*
X154237142Y-130587142D01*
X154308571Y-130515714D01*
X154308571Y-130015714D01*
X154022857Y-130015714D01*
X154951428Y-130658571D02*
X154951428Y-129158571D01*
X155808571Y-130658571D01*
X155808571Y-129158571D01*
X156522857Y-130658571D02*
X156522857Y-129158571D01*
X156880000Y-129158571D01*
X157094285Y-129230000D01*
X157237142Y-129372857D01*
X157308571Y-129515714D01*
X157380000Y-129801428D01*
X157380000Y-130015714D01*
X157308571Y-130301428D01*
X157237142Y-130444285D01*
X157094285Y-130587142D01*
X156880000Y-130658571D01*
X156522857Y-130658571D01*
X192600000Y-120532857D02*
X192528571Y-120675714D01*
X192528571Y-120890000D01*
X192600000Y-121104285D01*
X192742857Y-121247142D01*
X192885714Y-121318571D01*
X193171428Y-121390000D01*
X193385714Y-121390000D01*
X193671428Y-121318571D01*
X193814285Y-121247142D01*
X193957142Y-121104285D01*
X194028571Y-120890000D01*
X194028571Y-120747142D01*
X193957142Y-120532857D01*
X193885714Y-120461428D01*
X193385714Y-120461428D01*
X193385714Y-120747142D01*
X194028571Y-119818571D02*
X192528571Y-119818571D01*
X194028571Y-118961428D01*
X192528571Y-118961428D01*
X194028571Y-118247142D02*
X192528571Y-118247142D01*
X192528571Y-117890000D01*
X192600000Y-117675714D01*
X192742857Y-117532857D01*
X192885714Y-117461428D01*
X193171428Y-117390000D01*
X193385714Y-117390000D01*
X193671428Y-117461428D01*
X193814285Y-117532857D01*
X193957142Y-117675714D01*
X194028571Y-117890000D01*
X194028571Y-118247142D01*
X192480000Y-109102857D02*
X192408571Y-109245714D01*
X192408571Y-109460000D01*
X192480000Y-109674285D01*
X192622857Y-109817142D01*
X192765714Y-109888571D01*
X193051428Y-109960000D01*
X193265714Y-109960000D01*
X193551428Y-109888571D01*
X193694285Y-109817142D01*
X193837142Y-109674285D01*
X193908571Y-109460000D01*
X193908571Y-109317142D01*
X193837142Y-109102857D01*
X193765714Y-109031428D01*
X193265714Y-109031428D01*
X193265714Y-109317142D01*
X193908571Y-108388571D02*
X192408571Y-108388571D01*
X193908571Y-107531428D01*
X192408571Y-107531428D01*
X193908571Y-106817142D02*
X192408571Y-106817142D01*
X192408571Y-106460000D01*
X192480000Y-106245714D01*
X192622857Y-106102857D01*
X192765714Y-106031428D01*
X193051428Y-105960000D01*
X193265714Y-105960000D01*
X193551428Y-106031428D01*
X193694285Y-106102857D01*
X193837142Y-106245714D01*
X193908571Y-106460000D01*
X193908571Y-106817142D01*
X193497142Y-93858571D02*
X193497142Y-92715714D01*
X194068571Y-93287142D02*
X192925714Y-93287142D01*
X192568571Y-91287142D02*
X192568571Y-92001428D01*
X193282857Y-92072857D01*
X193211428Y-92001428D01*
X193140000Y-91858571D01*
X193140000Y-91501428D01*
X193211428Y-91358571D01*
X193282857Y-91287142D01*
X193425714Y-91215714D01*
X193782857Y-91215714D01*
X193925714Y-91287142D01*
X193997142Y-91358571D01*
X194068571Y-91501428D01*
X194068571Y-91858571D01*
X193997142Y-92001428D01*
X193925714Y-92072857D01*
X192568571Y-90787142D02*
X194068571Y-90287142D01*
X192568571Y-89787142D01*
X183397142Y-66470000D02*
X183254285Y-66398571D01*
X183040000Y-66398571D01*
X182825714Y-66470000D01*
X182682857Y-66612857D01*
X182611428Y-66755714D01*
X182540000Y-67041428D01*
X182540000Y-67255714D01*
X182611428Y-67541428D01*
X182682857Y-67684285D01*
X182825714Y-67827142D01*
X183040000Y-67898571D01*
X183182857Y-67898571D01*
X183397142Y-67827142D01*
X183468571Y-67755714D01*
X183468571Y-67255714D01*
X183182857Y-67255714D01*
X184111428Y-67898571D02*
X184111428Y-66398571D01*
X184968571Y-67898571D01*
X184968571Y-66398571D01*
X185682857Y-67898571D02*
X185682857Y-66398571D01*
X186040000Y-66398571D01*
X186254285Y-66470000D01*
X186397142Y-66612857D01*
X186468571Y-66755714D01*
X186540000Y-67041428D01*
X186540000Y-67255714D01*
X186468571Y-67541428D01*
X186397142Y-67684285D01*
X186254285Y-67827142D01*
X186040000Y-67898571D01*
X185682857Y-67898571D01*
X187471428Y-67107142D02*
X188614285Y-67107142D01*
X188042857Y-67678571D02*
X188042857Y-66535714D01*
X189400000Y-67678571D02*
X189685714Y-67678571D01*
X189828571Y-67607142D01*
X189900000Y-67535714D01*
X190042857Y-67321428D01*
X190114285Y-67035714D01*
X190114285Y-66464285D01*
X190042857Y-66321428D01*
X189971428Y-66250000D01*
X189828571Y-66178571D01*
X189542857Y-66178571D01*
X189400000Y-66250000D01*
X189328571Y-66321428D01*
X189257142Y-66464285D01*
X189257142Y-66821428D01*
X189328571Y-66964285D01*
X189400000Y-67035714D01*
X189542857Y-67107142D01*
X189828571Y-67107142D01*
X189971428Y-67035714D01*
X190042857Y-66964285D01*
X190114285Y-66821428D01*
X190542857Y-66178571D02*
X191042857Y-67678571D01*
X191542857Y-66178571D01*
D11*
G04 #@! TO.C,BZ1*
X189940000Y-132740000D02*
G75*
G03X189940000Y-132740000I-6100000J0D01*
G01*
G04 #@! TO.C,C1*
X127280000Y-100320000D02*
X127280000Y-95080000D01*
X130020000Y-100320000D02*
X130020000Y-95080000D01*
X127280000Y-100320000D02*
X130020000Y-100320000D01*
X127280000Y-95080000D02*
X130020000Y-95080000D01*
G04 #@! TO.C,C2*
X130020000Y-105920000D02*
X127280000Y-105920000D01*
X130020000Y-100680000D02*
X127280000Y-100680000D01*
X127280000Y-100680000D02*
X127280000Y-105920000D01*
X130020000Y-100680000D02*
X130020000Y-105920000D01*
G04 #@! TO.C,C3*
X164980000Y-68820000D02*
X159740000Y-68820000D01*
X164980000Y-66080000D02*
X159740000Y-66080000D01*
X164980000Y-68820000D02*
X164980000Y-66080000D01*
X159740000Y-68820000D02*
X159740000Y-66080000D01*
G04 #@! TO.C,J1*
X181730000Y-75730000D02*
X182230000Y-75730000D01*
X181730000Y-74990000D02*
X181730000Y-75730000D01*
X188423000Y-71853000D02*
X188376000Y-71899000D01*
X190720000Y-69555000D02*
X190685000Y-69591000D01*
X188616000Y-72069000D02*
X188581000Y-72104000D01*
X190925000Y-69761000D02*
X190878000Y-69807000D01*
X192250000Y-65569000D02*
X192250000Y-75490000D01*
X181970000Y-65569000D02*
X181970000Y-75490000D01*
X181970000Y-75490000D02*
X192250000Y-75490000D01*
X181970000Y-65569000D02*
X192250000Y-65569000D01*
X181970000Y-68529000D02*
X192250000Y-68529000D01*
X181970000Y-73430000D02*
X192250000Y-73430000D01*
X181970000Y-74930000D02*
X192250000Y-74930000D01*
X191330000Y-70830000D02*
G75*
G03X191330000Y-70830000I-1680000J0D01*
G01*
X184598805Y-72510253D02*
G75*
G02X183886000Y-72365000I-28805J1680253D01*
G01*
X183034574Y-71513042D02*
G75*
G02X183035000Y-70146000I1535426J683042D01*
G01*
X183886958Y-69294574D02*
G75*
G02X185254000Y-69295000I683042J-1535426D01*
G01*
X186105426Y-70146958D02*
G75*
G02X186105000Y-71514000I-1535426J-683042D01*
G01*
X185253318Y-72364756D02*
G75*
G02X184570000Y-72510000I-683318J1534756D01*
G01*
G04 #@! TO.C,J2*
X140083318Y-135284756D02*
G75*
G02X139400000Y-135430000I-683318J1534756D01*
G01*
X140935426Y-133066958D02*
G75*
G02X140935000Y-134434000I-1535426J-683042D01*
G01*
X138716958Y-132214574D02*
G75*
G02X140084000Y-132215000I683042J-1535426D01*
G01*
X137864574Y-134433042D02*
G75*
G02X137865000Y-133066000I1535426J683042D01*
G01*
X139428805Y-135430253D02*
G75*
G02X138716000Y-135285000I-28805J1680253D01*
G01*
X146160000Y-133750000D02*
G75*
G03X146160000Y-133750000I-1680000J0D01*
G01*
X136800000Y-137850000D02*
X147080000Y-137850000D01*
X136800000Y-136350000D02*
X147080000Y-136350000D01*
X136800000Y-131449000D02*
X147080000Y-131449000D01*
X136800000Y-128489000D02*
X147080000Y-128489000D01*
X136800000Y-138410000D02*
X147080000Y-138410000D01*
X136800000Y-128489000D02*
X136800000Y-138410000D01*
X147080000Y-128489000D02*
X147080000Y-138410000D01*
X145755000Y-132681000D02*
X145708000Y-132727000D01*
X143446000Y-134989000D02*
X143411000Y-135024000D01*
X145550000Y-132475000D02*
X145515000Y-132511000D01*
X143253000Y-134773000D02*
X143206000Y-134819000D01*
X136560000Y-137910000D02*
X136560000Y-138650000D01*
X136560000Y-138650000D02*
X137060000Y-138650000D01*
G04 #@! TO.C,J3*
X108670000Y-76000000D02*
X111330000Y-76000000D01*
X108670000Y-68320000D02*
X108670000Y-76000000D01*
X111330000Y-68320000D02*
X111330000Y-76000000D01*
X108670000Y-68320000D02*
X111330000Y-68320000D01*
X108670000Y-67050000D02*
X108670000Y-65720000D01*
X108670000Y-65720000D02*
X110000000Y-65720000D01*
G04 #@! TO.C,J4*
X184650000Y-111530000D02*
X184650000Y-112030000D01*
X185390000Y-111530000D02*
X184650000Y-111530000D01*
X188527000Y-118223000D02*
X188481000Y-118176000D01*
X190825000Y-120520000D02*
X190789000Y-120485000D01*
X188311000Y-118416000D02*
X188276000Y-118381000D01*
X190619000Y-120725000D02*
X190573000Y-120678000D01*
X194811000Y-122050000D02*
X184890000Y-122050000D01*
X194811000Y-111770000D02*
X184890000Y-111770000D01*
X184890000Y-111770000D02*
X184890000Y-122050000D01*
X194811000Y-111770000D02*
X194811000Y-122050000D01*
X191851000Y-111770000D02*
X191851000Y-122050000D01*
X186950000Y-111770000D02*
X186950000Y-122050000D01*
X185450000Y-111770000D02*
X185450000Y-122050000D01*
X191230000Y-119450000D02*
G75*
G03X191230000Y-119450000I-1680000J0D01*
G01*
X187869747Y-114398805D02*
G75*
G02X188015000Y-113686000I1680253J28805D01*
G01*
X188866958Y-112834574D02*
G75*
G02X190234000Y-112835000I683042J-1535426D01*
G01*
X191085426Y-113686958D02*
G75*
G02X191085000Y-115054000I-1535426J-683042D01*
G01*
X190233042Y-115905426D02*
G75*
G02X188866000Y-115905000I-683042J1535426D01*
G01*
X188015244Y-115053318D02*
G75*
G02X187870000Y-114370000I1534756J683318D01*
G01*
G04 #@! TO.C,J5*
X187935244Y-103623318D02*
G75*
G02X187790000Y-102940000I1534756J683318D01*
G01*
X190153042Y-104475426D02*
G75*
G02X188786000Y-104475000I-683042J1535426D01*
G01*
X191005426Y-102256958D02*
G75*
G02X191005000Y-103624000I-1535426J-683042D01*
G01*
X188786958Y-101404574D02*
G75*
G02X190154000Y-101405000I683042J-1535426D01*
G01*
X187789747Y-102968805D02*
G75*
G02X187935000Y-102256000I1680253J28805D01*
G01*
X191150000Y-108020000D02*
G75*
G03X191150000Y-108020000I-1680000J0D01*
G01*
X185370000Y-100340000D02*
X185370000Y-110620000D01*
X186870000Y-100340000D02*
X186870000Y-110620000D01*
X191771000Y-100340000D02*
X191771000Y-110620000D01*
X194731000Y-100340000D02*
X194731000Y-110620000D01*
X184810000Y-100340000D02*
X184810000Y-110620000D01*
X194731000Y-100340000D02*
X184810000Y-100340000D01*
X194731000Y-110620000D02*
X184810000Y-110620000D01*
X190539000Y-109295000D02*
X190493000Y-109248000D01*
X188231000Y-106986000D02*
X188196000Y-106951000D01*
X190745000Y-109090000D02*
X190709000Y-109055000D01*
X188447000Y-106793000D02*
X188401000Y-106746000D01*
X185310000Y-100100000D02*
X184570000Y-100100000D01*
X184570000Y-100100000D02*
X184570000Y-100600000D01*
G04 #@! TO.C,J6*
X188005244Y-92293318D02*
G75*
G02X187860000Y-91610000I1534756J683318D01*
G01*
X190223042Y-93145426D02*
G75*
G02X188856000Y-93145000I-683042J1535426D01*
G01*
X191075426Y-90926958D02*
G75*
G02X191075000Y-92294000I-1535426J-683042D01*
G01*
X188856958Y-90074574D02*
G75*
G02X190224000Y-90075000I683042J-1535426D01*
G01*
X187859747Y-91638805D02*
G75*
G02X188005000Y-90926000I1680253J28805D01*
G01*
X191220000Y-96690000D02*
G75*
G03X191220000Y-96690000I-1680000J0D01*
G01*
X185440000Y-89010000D02*
X185440000Y-99290000D01*
X186940000Y-89010000D02*
X186940000Y-99290000D01*
X191841000Y-89010000D02*
X191841000Y-99290000D01*
X194801000Y-89010000D02*
X194801000Y-99290000D01*
X184880000Y-89010000D02*
X184880000Y-99290000D01*
X194801000Y-89010000D02*
X184880000Y-89010000D01*
X194801000Y-99290000D02*
X184880000Y-99290000D01*
X190609000Y-97965000D02*
X190563000Y-97918000D01*
X188301000Y-95656000D02*
X188266000Y-95621000D01*
X190815000Y-97760000D02*
X190779000Y-97725000D01*
X188517000Y-95463000D02*
X188471000Y-95416000D01*
X185380000Y-88770000D02*
X184640000Y-88770000D01*
X184640000Y-88770000D02*
X184640000Y-89270000D01*
G04 #@! TO.C,J7*
X169965001Y-91205001D02*
X172625001Y-91205001D01*
X169965001Y-78445001D02*
X169965001Y-91205001D01*
X172625001Y-78445001D02*
X172625001Y-91205001D01*
X169965001Y-78445001D02*
X172625001Y-78445001D01*
X169965001Y-77175001D02*
X169965001Y-75845001D01*
X169965001Y-75845001D02*
X171295001Y-75845001D01*
G04 #@! TO.C,J8*
X128833318Y-135284756D02*
G75*
G02X128150000Y-135430000I-683318J1534756D01*
G01*
X129685426Y-133066958D02*
G75*
G02X129685000Y-134434000I-1535426J-683042D01*
G01*
X127466958Y-132214574D02*
G75*
G02X128834000Y-132215000I683042J-1535426D01*
G01*
X126614574Y-134433042D02*
G75*
G02X126615000Y-133066000I1535426J683042D01*
G01*
X128178805Y-135430253D02*
G75*
G02X127466000Y-135285000I-28805J1680253D01*
G01*
X134910000Y-133750000D02*
G75*
G03X134910000Y-133750000I-1680000J0D01*
G01*
X125550000Y-137850000D02*
X135830000Y-137850000D01*
X125550000Y-136350000D02*
X135830000Y-136350000D01*
X125550000Y-131449000D02*
X135830000Y-131449000D01*
X125550000Y-128489000D02*
X135830000Y-128489000D01*
X125550000Y-138410000D02*
X135830000Y-138410000D01*
X125550000Y-128489000D02*
X125550000Y-138410000D01*
X135830000Y-128489000D02*
X135830000Y-138410000D01*
X134505000Y-132681000D02*
X134458000Y-132727000D01*
X132196000Y-134989000D02*
X132161000Y-135024000D01*
X134300000Y-132475000D02*
X134265000Y-132511000D01*
X132003000Y-134773000D02*
X131956000Y-134819000D01*
X125310000Y-137910000D02*
X125310000Y-138650000D01*
X125310000Y-138650000D02*
X125810000Y-138650000D01*
G04 #@! TO.C,J10*
X159060000Y-138650000D02*
X159560000Y-138650000D01*
X159060000Y-137910000D02*
X159060000Y-138650000D01*
X165753000Y-134773000D02*
X165706000Y-134819000D01*
X168050000Y-132475000D02*
X168015000Y-132511000D01*
X165946000Y-134989000D02*
X165911000Y-135024000D01*
X168255000Y-132681000D02*
X168208000Y-132727000D01*
X169580000Y-128489000D02*
X169580000Y-138410000D01*
X159300000Y-128489000D02*
X159300000Y-138410000D01*
X159300000Y-138410000D02*
X169580000Y-138410000D01*
X159300000Y-128489000D02*
X169580000Y-128489000D01*
X159300000Y-131449000D02*
X169580000Y-131449000D01*
X159300000Y-136350000D02*
X169580000Y-136350000D01*
X159300000Y-137850000D02*
X169580000Y-137850000D01*
X168660000Y-133750000D02*
G75*
G03X168660000Y-133750000I-1680000J0D01*
G01*
X161928805Y-135430253D02*
G75*
G02X161216000Y-135285000I-28805J1680253D01*
G01*
X160364574Y-134433042D02*
G75*
G02X160365000Y-133066000I1535426J683042D01*
G01*
X161216958Y-132214574D02*
G75*
G02X162584000Y-132215000I683042J-1535426D01*
G01*
X163435426Y-133066958D02*
G75*
G02X163435000Y-134434000I-1535426J-683042D01*
G01*
X162583318Y-135284756D02*
G75*
G02X161900000Y-135430000I-683318J1534756D01*
G01*
G04 #@! TO.C,J11*
X147810000Y-138650000D02*
X148310000Y-138650000D01*
X147810000Y-137910000D02*
X147810000Y-138650000D01*
X154503000Y-134773000D02*
X154456000Y-134819000D01*
X156800000Y-132475000D02*
X156765000Y-132511000D01*
X154696000Y-134989000D02*
X154661000Y-135024000D01*
X157005000Y-132681000D02*
X156958000Y-132727000D01*
X158330000Y-128489000D02*
X158330000Y-138410000D01*
X148050000Y-128489000D02*
X148050000Y-138410000D01*
X148050000Y-138410000D02*
X158330000Y-138410000D01*
X148050000Y-128489000D02*
X158330000Y-128489000D01*
X148050000Y-131449000D02*
X158330000Y-131449000D01*
X148050000Y-136350000D02*
X158330000Y-136350000D01*
X148050000Y-137850000D02*
X158330000Y-137850000D01*
X157410000Y-133750000D02*
G75*
G03X157410000Y-133750000I-1680000J0D01*
G01*
X150678805Y-135430253D02*
G75*
G02X149966000Y-135285000I-28805J1680253D01*
G01*
X149114574Y-134433042D02*
G75*
G02X149115000Y-133066000I1535426J683042D01*
G01*
X149966958Y-132214574D02*
G75*
G02X151334000Y-132215000I683042J-1535426D01*
G01*
X152185426Y-133066958D02*
G75*
G02X152185000Y-134434000I-1535426J-683042D01*
G01*
X151333318Y-135284756D02*
G75*
G02X150650000Y-135430000I-683318J1534756D01*
G01*
G04 #@! TO.C,Q1*
X177730000Y-115390000D02*
X167490000Y-115390000D01*
X177730000Y-110749000D02*
X167490000Y-110749000D01*
X177730000Y-115390000D02*
X177730000Y-110749000D01*
X167490000Y-115390000D02*
X167490000Y-110749000D01*
X177730000Y-113880000D02*
X167490000Y-113880000D01*
X174460000Y-115390000D02*
X174460000Y-113880000D01*
X170759000Y-115390000D02*
X170759000Y-113880000D01*
G04 #@! TO.C,R1*
X122830000Y-121770000D02*
X126270000Y-121770000D01*
X126270000Y-121770000D02*
X126270000Y-112530000D01*
X126270000Y-112530000D02*
X122830000Y-112530000D01*
X122830000Y-112530000D02*
X122830000Y-121770000D01*
X124550000Y-122460000D02*
X124550000Y-121770000D01*
X124550000Y-111840000D02*
X124550000Y-112530000D01*
G04 #@! TO.C,R2*
X126960000Y-89180000D02*
X130400000Y-89180000D01*
X130400000Y-89180000D02*
X130400000Y-79940000D01*
X130400000Y-79940000D02*
X126960000Y-79940000D01*
X126960000Y-79940000D02*
X126960000Y-89180000D01*
X128680000Y-89870000D02*
X128680000Y-89180000D01*
X128680000Y-79250000D02*
X128680000Y-79940000D01*
G04 #@! TO.C,R3*
X178730000Y-124220000D02*
X178730000Y-118980000D01*
X178730000Y-118980000D02*
X162990000Y-118980000D01*
X162990000Y-118980000D02*
X162990000Y-124220000D01*
X162990000Y-124220000D02*
X178730000Y-124220000D01*
X179580000Y-121600000D02*
X178730000Y-121600000D01*
X162140000Y-121600000D02*
X162990000Y-121600000D01*
G04 #@! TO.C,R4*
X131250000Y-111840000D02*
X131250000Y-112530000D01*
X131250000Y-122460000D02*
X131250000Y-121770000D01*
X129530000Y-112530000D02*
X129530000Y-121770000D01*
X132970000Y-112530000D02*
X129530000Y-112530000D01*
X132970000Y-121770000D02*
X132970000Y-112530000D01*
X129530000Y-121770000D02*
X132970000Y-121770000D01*
G04 #@! TO.C,R5*
X112140000Y-112680000D02*
X108700000Y-112680000D01*
X108700000Y-112680000D02*
X108700000Y-121920000D01*
X108700000Y-121920000D02*
X112140000Y-121920000D01*
X112140000Y-121920000D02*
X112140000Y-112680000D01*
X110420000Y-111990000D02*
X110420000Y-112680000D01*
X110420000Y-122610000D02*
X110420000Y-121920000D01*
G04 #@! TO.C,R6*
X117350000Y-122560000D02*
X117350000Y-121870000D01*
X117350000Y-111940000D02*
X117350000Y-112630000D01*
X119070000Y-121870000D02*
X119070000Y-112630000D01*
X115630000Y-121870000D02*
X119070000Y-121870000D01*
X115630000Y-112630000D02*
X115630000Y-121870000D01*
X119070000Y-112630000D02*
X115630000Y-112630000D01*
G04 #@! TO.C,R7*
X173570000Y-99850000D02*
X173570000Y-96410000D01*
X173570000Y-96410000D02*
X164330000Y-96410000D01*
X164330000Y-96410000D02*
X164330000Y-99850000D01*
X164330000Y-99850000D02*
X173570000Y-99850000D01*
X174260000Y-98130000D02*
X173570000Y-98130000D01*
X163640000Y-98130000D02*
X164330000Y-98130000D01*
G04 #@! TO.C,R8*
X163590000Y-103900000D02*
X164280000Y-103900000D01*
X174210000Y-103900000D02*
X173520000Y-103900000D01*
X164280000Y-105620000D02*
X173520000Y-105620000D01*
X164280000Y-102180000D02*
X164280000Y-105620000D01*
X173520000Y-102180000D02*
X164280000Y-102180000D01*
X173520000Y-105620000D02*
X173520000Y-102180000D01*
G04 #@! TO.C,SW1*
X118030000Y-86570000D02*
X122530000Y-86570000D01*
X116780000Y-82570000D02*
X116780000Y-84070000D01*
X122530000Y-80070000D02*
X118030000Y-80070000D01*
X123780000Y-84070000D02*
X123780000Y-82570000D01*
D12*
G04 #@! TO.C,SW2*
G36*
X109300000Y-102700000D02*
X109300000Y-88700000D01*
X111300000Y-88700000D01*
X111300000Y-102700000D01*
X109300000Y-102700000D01*
G37*
X109300000Y-102700000D02*
X109300000Y-88700000D01*
X111300000Y-88700000D01*
X111300000Y-102700000D01*
X109300000Y-102700000D01*
X107300000Y-107700000D02*
X112300000Y-107700000D01*
X112300000Y-83700000D02*
X107300000Y-83700000D01*
X107300000Y-83700000D02*
X107300000Y-107700000D01*
X112300000Y-107700000D02*
X113300000Y-107700000D01*
X113300000Y-107700000D02*
X113300000Y-83700000D01*
X113300000Y-83700000D02*
X112300000Y-83700000D01*
D11*
G04 #@! TO.C,SW3*
X156450000Y-121400000D02*
X156450000Y-119900000D01*
X155200000Y-117400000D02*
X150700000Y-117400000D01*
X149450000Y-119900000D02*
X149450000Y-121400000D01*
X150700000Y-123900000D02*
X155200000Y-123900000D01*
G04 #@! TO.C,SW4*
X139950000Y-123900000D02*
X144450000Y-123900000D01*
X138700000Y-119900000D02*
X138700000Y-121400000D01*
X144450000Y-117400000D02*
X139950000Y-117400000D01*
X145700000Y-121400000D02*
X145700000Y-119900000D01*
G04 #@! TO.C,U1*
X150260000Y-77170000D02*
G75*
G02X148260000Y-77170000I-1000000J0D01*
G01*
X148260000Y-77170000D02*
X146610000Y-77170000D01*
X146610000Y-77170000D02*
X146610000Y-112850000D01*
X146610000Y-112850000D02*
X151910000Y-112850000D01*
X151910000Y-112850000D02*
X151910000Y-77170000D01*
X151910000Y-77170000D02*
X150260000Y-77170000D01*
X144120000Y-77110000D02*
X144120000Y-112910000D01*
X144120000Y-112910000D02*
X154400000Y-112910000D01*
X154400000Y-112910000D02*
X154400000Y-77110000D01*
X154400000Y-77110000D02*
X144120000Y-77110000D01*
G04 #@! TO.C,U2*
X184189000Y-84870000D02*
X184189000Y-83360000D01*
X187890000Y-84870000D02*
X187890000Y-83360000D01*
X191160000Y-83360000D02*
X180920000Y-83360000D01*
X180920000Y-84870000D02*
X180920000Y-80229000D01*
X191160000Y-84870000D02*
X191160000Y-80229000D01*
X191160000Y-80229000D02*
X180920000Y-80229000D01*
X191160000Y-84870000D02*
X180920000Y-84870000D01*
G04 #@! TO.C,Y1*
X138675000Y-96915000D02*
X138675000Y-103165000D01*
X133625000Y-96915000D02*
X133625000Y-103165000D01*
X133625000Y-96915000D02*
G75*
G02X138675000Y-96915000I2525000J0D01*
G01*
X133625000Y-103165000D02*
G75*
G03X138675000Y-103165000I2525000J0D01*
G01*
G04 #@! TO.C,BZ1*
D12*
X182959047Y-125468571D02*
X183101904Y-125516190D01*
X183149523Y-125563809D01*
X183197142Y-125659047D01*
X183197142Y-125801904D01*
X183149523Y-125897142D01*
X183101904Y-125944761D01*
X183006666Y-125992380D01*
X182625714Y-125992380D01*
X182625714Y-124992380D01*
X182959047Y-124992380D01*
X183054285Y-125040000D01*
X183101904Y-125087619D01*
X183149523Y-125182857D01*
X183149523Y-125278095D01*
X183101904Y-125373333D01*
X183054285Y-125420952D01*
X182959047Y-125468571D01*
X182625714Y-125468571D01*
X183530476Y-124992380D02*
X184197142Y-124992380D01*
X183530476Y-125992380D01*
X184197142Y-125992380D01*
X185101904Y-125992380D02*
X184530476Y-125992380D01*
X184816190Y-125992380D02*
X184816190Y-124992380D01*
X184720952Y-125135238D01*
X184625714Y-125230476D01*
X184530476Y-125278095D01*
X181911428Y-140068571D02*
X182054285Y-140116190D01*
X182101904Y-140163809D01*
X182149523Y-140259047D01*
X182149523Y-140401904D01*
X182101904Y-140497142D01*
X182054285Y-140544761D01*
X181959047Y-140592380D01*
X181578095Y-140592380D01*
X181578095Y-139592380D01*
X181911428Y-139592380D01*
X182006666Y-139640000D01*
X182054285Y-139687619D01*
X182101904Y-139782857D01*
X182101904Y-139878095D01*
X182054285Y-139973333D01*
X182006666Y-140020952D01*
X181911428Y-140068571D01*
X181578095Y-140068571D01*
X183006666Y-139925714D02*
X183006666Y-140592380D01*
X182578095Y-139925714D02*
X182578095Y-140449523D01*
X182625714Y-140544761D01*
X182720952Y-140592380D01*
X182863809Y-140592380D01*
X182959047Y-140544761D01*
X183006666Y-140497142D01*
X183387619Y-139925714D02*
X183911428Y-139925714D01*
X183387619Y-140592380D01*
X183911428Y-140592380D01*
X184197142Y-139925714D02*
X184720952Y-139925714D01*
X184197142Y-140592380D01*
X184720952Y-140592380D01*
X185482857Y-140544761D02*
X185387619Y-140592380D01*
X185197142Y-140592380D01*
X185101904Y-140544761D01*
X185054285Y-140449523D01*
X185054285Y-140068571D01*
X185101904Y-139973333D01*
X185197142Y-139925714D01*
X185387619Y-139925714D01*
X185482857Y-139973333D01*
X185530476Y-140068571D01*
X185530476Y-140163809D01*
X185054285Y-140259047D01*
X185959047Y-140592380D02*
X185959047Y-139925714D01*
X185959047Y-140116190D02*
X186006666Y-140020952D01*
X186054285Y-139973333D01*
X186149523Y-139925714D01*
X186244761Y-139925714D01*
X179649047Y-130271428D02*
X180410952Y-130271428D01*
X180030000Y-130652380D02*
X180030000Y-129890476D01*
G04 #@! TO.C,C1*
X126507142Y-97866666D02*
X126554761Y-97914285D01*
X126602380Y-98057142D01*
X126602380Y-98152380D01*
X126554761Y-98295238D01*
X126459523Y-98390476D01*
X126364285Y-98438095D01*
X126173809Y-98485714D01*
X126030952Y-98485714D01*
X125840476Y-98438095D01*
X125745238Y-98390476D01*
X125650000Y-98295238D01*
X125602380Y-98152380D01*
X125602380Y-98057142D01*
X125650000Y-97914285D01*
X125697619Y-97866666D01*
X126602380Y-96914285D02*
X126602380Y-97485714D01*
X126602380Y-97200000D02*
X125602380Y-97200000D01*
X125745238Y-97295238D01*
X125840476Y-97390476D01*
X125888095Y-97485714D01*
G04 #@! TO.C,C2*
X131507142Y-103466666D02*
X131554761Y-103514285D01*
X131602380Y-103657142D01*
X131602380Y-103752380D01*
X131554761Y-103895238D01*
X131459523Y-103990476D01*
X131364285Y-104038095D01*
X131173809Y-104085714D01*
X131030952Y-104085714D01*
X130840476Y-104038095D01*
X130745238Y-103990476D01*
X130650000Y-103895238D01*
X130602380Y-103752380D01*
X130602380Y-103657142D01*
X130650000Y-103514285D01*
X130697619Y-103466666D01*
X130697619Y-103085714D02*
X130650000Y-103038095D01*
X130602380Y-102942857D01*
X130602380Y-102704761D01*
X130650000Y-102609523D01*
X130697619Y-102561904D01*
X130792857Y-102514285D01*
X130888095Y-102514285D01*
X131030952Y-102561904D01*
X131602380Y-103133333D01*
X131602380Y-102514285D01*
G04 #@! TO.C,C3*
X162193333Y-70307142D02*
X162145714Y-70354761D01*
X162002857Y-70402380D01*
X161907619Y-70402380D01*
X161764761Y-70354761D01*
X161669523Y-70259523D01*
X161621904Y-70164285D01*
X161574285Y-69973809D01*
X161574285Y-69830952D01*
X161621904Y-69640476D01*
X161669523Y-69545238D01*
X161764761Y-69450000D01*
X161907619Y-69402380D01*
X162002857Y-69402380D01*
X162145714Y-69450000D01*
X162193333Y-69497619D01*
X162526666Y-69402380D02*
X163145714Y-69402380D01*
X162812380Y-69783333D01*
X162955238Y-69783333D01*
X163050476Y-69830952D01*
X163098095Y-69878571D01*
X163145714Y-69973809D01*
X163145714Y-70211904D01*
X163098095Y-70307142D01*
X163050476Y-70354761D01*
X162955238Y-70402380D01*
X162669523Y-70402380D01*
X162574285Y-70354761D01*
X162526666Y-70307142D01*
X160431428Y-65307142D02*
X160383809Y-65354761D01*
X160240952Y-65402380D01*
X160145714Y-65402380D01*
X160002857Y-65354761D01*
X159907619Y-65259523D01*
X159860000Y-65164285D01*
X159812380Y-64973809D01*
X159812380Y-64830952D01*
X159860000Y-64640476D01*
X159907619Y-64545238D01*
X160002857Y-64450000D01*
X160145714Y-64402380D01*
X160240952Y-64402380D01*
X160383809Y-64450000D01*
X160431428Y-64497619D01*
X160621904Y-65497619D02*
X161383809Y-65497619D01*
X161621904Y-65402380D02*
X161621904Y-64735714D01*
X161621904Y-64926190D02*
X161669523Y-64830952D01*
X161717142Y-64783333D01*
X161812380Y-64735714D01*
X161907619Y-64735714D01*
X162621904Y-65354761D02*
X162526666Y-65402380D01*
X162336190Y-65402380D01*
X162240952Y-65354761D01*
X162193333Y-65259523D01*
X162193333Y-64878571D01*
X162240952Y-64783333D01*
X162336190Y-64735714D01*
X162526666Y-64735714D01*
X162621904Y-64783333D01*
X162669523Y-64878571D01*
X162669523Y-64973809D01*
X162193333Y-65069047D01*
X163050476Y-65354761D02*
X163145714Y-65402380D01*
X163336190Y-65402380D01*
X163431428Y-65354761D01*
X163479047Y-65259523D01*
X163479047Y-65211904D01*
X163431428Y-65116666D01*
X163336190Y-65069047D01*
X163193333Y-65069047D01*
X163098095Y-65021428D01*
X163050476Y-64926190D01*
X163050476Y-64878571D01*
X163098095Y-64783333D01*
X163193333Y-64735714D01*
X163336190Y-64735714D01*
X163431428Y-64783333D01*
X164288571Y-65354761D02*
X164193333Y-65402380D01*
X164002857Y-65402380D01*
X163907619Y-65354761D01*
X163860000Y-65259523D01*
X163860000Y-64878571D01*
X163907619Y-64783333D01*
X164002857Y-64735714D01*
X164193333Y-64735714D01*
X164288571Y-64783333D01*
X164336190Y-64878571D01*
X164336190Y-64973809D01*
X163860000Y-65069047D01*
X164621904Y-64735714D02*
X165002857Y-64735714D01*
X164764761Y-64402380D02*
X164764761Y-65259523D01*
X164812380Y-65354761D01*
X164907619Y-65402380D01*
X165002857Y-65402380D01*
G04 #@! TO.C,J1*
X186776666Y-64022380D02*
X186776666Y-64736666D01*
X186729047Y-64879523D01*
X186633809Y-64974761D01*
X186490952Y-65022380D01*
X186395714Y-65022380D01*
X187776666Y-65022380D02*
X187205238Y-65022380D01*
X187490952Y-65022380D02*
X187490952Y-64022380D01*
X187395714Y-64165238D01*
X187300476Y-64260476D01*
X187205238Y-64308095D01*
X184276666Y-76942380D02*
X184467142Y-76942380D01*
X184562380Y-76894761D01*
X184610000Y-76847142D01*
X184705238Y-76704285D01*
X184752857Y-76513809D01*
X184752857Y-76132857D01*
X184705238Y-76037619D01*
X184657619Y-75990000D01*
X184562380Y-75942380D01*
X184371904Y-75942380D01*
X184276666Y-75990000D01*
X184229047Y-76037619D01*
X184181428Y-76132857D01*
X184181428Y-76370952D01*
X184229047Y-76466190D01*
X184276666Y-76513809D01*
X184371904Y-76561428D01*
X184562380Y-76561428D01*
X184657619Y-76513809D01*
X184705238Y-76466190D01*
X184752857Y-76370952D01*
X185086190Y-76275714D02*
X185324285Y-76942380D01*
X185562380Y-76275714D01*
X186705238Y-76942380D02*
X186705238Y-76275714D01*
X186705238Y-75942380D02*
X186657619Y-75990000D01*
X186705238Y-76037619D01*
X186752857Y-75990000D01*
X186705238Y-75942380D01*
X186705238Y-76037619D01*
X187181428Y-76275714D02*
X187181428Y-76942380D01*
X187181428Y-76370952D02*
X187229047Y-76323333D01*
X187324285Y-76275714D01*
X187467142Y-76275714D01*
X187562380Y-76323333D01*
X187610000Y-76418571D01*
X187610000Y-76942380D01*
X188086190Y-76275714D02*
X188086190Y-77275714D01*
X188086190Y-76323333D02*
X188181428Y-76275714D01*
X188371904Y-76275714D01*
X188467142Y-76323333D01*
X188514761Y-76370952D01*
X188562380Y-76466190D01*
X188562380Y-76751904D01*
X188514761Y-76847142D01*
X188467142Y-76894761D01*
X188371904Y-76942380D01*
X188181428Y-76942380D01*
X188086190Y-76894761D01*
X189419523Y-76275714D02*
X189419523Y-76942380D01*
X188990952Y-76275714D02*
X188990952Y-76799523D01*
X189038571Y-76894761D01*
X189133809Y-76942380D01*
X189276666Y-76942380D01*
X189371904Y-76894761D01*
X189419523Y-76847142D01*
X189752857Y-76275714D02*
X190133809Y-76275714D01*
X189895714Y-75942380D02*
X189895714Y-76799523D01*
X189943333Y-76894761D01*
X190038571Y-76942380D01*
X190133809Y-76942380D01*
G04 #@! TO.C,J2*
X141606666Y-126942380D02*
X141606666Y-127656666D01*
X141559047Y-127799523D01*
X141463809Y-127894761D01*
X141320952Y-127942380D01*
X141225714Y-127942380D01*
X142035238Y-127037619D02*
X142082857Y-126990000D01*
X142178095Y-126942380D01*
X142416190Y-126942380D01*
X142511428Y-126990000D01*
X142559047Y-127037619D01*
X142606666Y-127132857D01*
X142606666Y-127228095D01*
X142559047Y-127370952D01*
X141987619Y-127942380D01*
X142606666Y-127942380D01*
X139130476Y-139862380D02*
X138654285Y-139862380D01*
X138654285Y-138862380D01*
X139463809Y-139338571D02*
X139797142Y-139338571D01*
X139940000Y-139862380D02*
X139463809Y-139862380D01*
X139463809Y-138862380D01*
X139940000Y-138862380D01*
X140368571Y-139862380D02*
X140368571Y-138862380D01*
X140606666Y-138862380D01*
X140749523Y-138910000D01*
X140844761Y-139005238D01*
X140892380Y-139100476D01*
X140940000Y-139290952D01*
X140940000Y-139433809D01*
X140892380Y-139624285D01*
X140844761Y-139719523D01*
X140749523Y-139814761D01*
X140606666Y-139862380D01*
X140368571Y-139862380D01*
X142463809Y-139338571D02*
X142606666Y-139386190D01*
X142654285Y-139433809D01*
X142701904Y-139529047D01*
X142701904Y-139671904D01*
X142654285Y-139767142D01*
X142606666Y-139814761D01*
X142511428Y-139862380D01*
X142130476Y-139862380D01*
X142130476Y-138862380D01*
X142463809Y-138862380D01*
X142559047Y-138910000D01*
X142606666Y-138957619D01*
X142654285Y-139052857D01*
X142654285Y-139148095D01*
X142606666Y-139243333D01*
X142559047Y-139290952D01*
X142463809Y-139338571D01*
X142130476Y-139338571D01*
X143559047Y-139862380D02*
X143559047Y-139338571D01*
X143511428Y-139243333D01*
X143416190Y-139195714D01*
X143225714Y-139195714D01*
X143130476Y-139243333D01*
X143559047Y-139814761D02*
X143463809Y-139862380D01*
X143225714Y-139862380D01*
X143130476Y-139814761D01*
X143082857Y-139719523D01*
X143082857Y-139624285D01*
X143130476Y-139529047D01*
X143225714Y-139481428D01*
X143463809Y-139481428D01*
X143559047Y-139433809D01*
X144463809Y-139814761D02*
X144368571Y-139862380D01*
X144178095Y-139862380D01*
X144082857Y-139814761D01*
X144035238Y-139767142D01*
X143987619Y-139671904D01*
X143987619Y-139386190D01*
X144035238Y-139290952D01*
X144082857Y-139243333D01*
X144178095Y-139195714D01*
X144368571Y-139195714D01*
X144463809Y-139243333D01*
X144892380Y-139862380D02*
X144892380Y-138862380D01*
X144987619Y-139481428D02*
X145273333Y-139862380D01*
X145273333Y-139195714D02*
X144892380Y-139576666D01*
G04 #@! TO.C,J3*
X109666666Y-64172380D02*
X109666666Y-64886666D01*
X109619047Y-65029523D01*
X109523809Y-65124761D01*
X109380952Y-65172380D01*
X109285714Y-65172380D01*
X110047619Y-64172380D02*
X110666666Y-64172380D01*
X110333333Y-64553333D01*
X110476190Y-64553333D01*
X110571428Y-64600952D01*
X110619047Y-64648571D01*
X110666666Y-64743809D01*
X110666666Y-64981904D01*
X110619047Y-65077142D01*
X110571428Y-65124761D01*
X110476190Y-65172380D01*
X110190476Y-65172380D01*
X110095238Y-65124761D01*
X110047619Y-65077142D01*
X103142857Y-76452380D02*
X103809523Y-76452380D01*
X103380952Y-77452380D01*
X104904761Y-77404761D02*
X105000000Y-77452380D01*
X105190476Y-77452380D01*
X105285714Y-77404761D01*
X105333333Y-77309523D01*
X105333333Y-77261904D01*
X105285714Y-77166666D01*
X105190476Y-77119047D01*
X105047619Y-77119047D01*
X104952380Y-77071428D01*
X104904761Y-76976190D01*
X104904761Y-76928571D01*
X104952380Y-76833333D01*
X105047619Y-76785714D01*
X105190476Y-76785714D01*
X105285714Y-76833333D01*
X106142857Y-77404761D02*
X106047619Y-77452380D01*
X105857142Y-77452380D01*
X105761904Y-77404761D01*
X105714285Y-77309523D01*
X105714285Y-76928571D01*
X105761904Y-76833333D01*
X105857142Y-76785714D01*
X106047619Y-76785714D01*
X106142857Y-76833333D01*
X106190476Y-76928571D01*
X106190476Y-77023809D01*
X105714285Y-77119047D01*
X107047619Y-76785714D02*
X107047619Y-77595238D01*
X107000000Y-77690476D01*
X106952380Y-77738095D01*
X106857142Y-77785714D01*
X106714285Y-77785714D01*
X106619047Y-77738095D01*
X107047619Y-77404761D02*
X106952380Y-77452380D01*
X106761904Y-77452380D01*
X106666666Y-77404761D01*
X106619047Y-77357142D01*
X106571428Y-77261904D01*
X106571428Y-76976190D01*
X106619047Y-76880952D01*
X106666666Y-76833333D01*
X106761904Y-76785714D01*
X106952380Y-76785714D01*
X107047619Y-76833333D01*
X107523809Y-77452380D02*
X107523809Y-76785714D01*
X107523809Y-76880952D02*
X107571428Y-76833333D01*
X107666666Y-76785714D01*
X107809523Y-76785714D01*
X107904761Y-76833333D01*
X107952380Y-76928571D01*
X107952380Y-77452380D01*
X107952380Y-76928571D02*
X108000000Y-76833333D01*
X108095238Y-76785714D01*
X108238095Y-76785714D01*
X108333333Y-76833333D01*
X108380952Y-76928571D01*
X108380952Y-77452380D01*
X109238095Y-77404761D02*
X109142857Y-77452380D01*
X108952380Y-77452380D01*
X108857142Y-77404761D01*
X108809523Y-77309523D01*
X108809523Y-76928571D01*
X108857142Y-76833333D01*
X108952380Y-76785714D01*
X109142857Y-76785714D01*
X109238095Y-76833333D01*
X109285714Y-76928571D01*
X109285714Y-77023809D01*
X108809523Y-77119047D01*
X109714285Y-76785714D02*
X109714285Y-77452380D01*
X109714285Y-76880952D02*
X109761904Y-76833333D01*
X109857142Y-76785714D01*
X110000000Y-76785714D01*
X110095238Y-76833333D01*
X110142857Y-76928571D01*
X110142857Y-77452380D01*
X110476190Y-76785714D02*
X110857142Y-76785714D01*
X110619047Y-76452380D02*
X110619047Y-77309523D01*
X110666666Y-77404761D01*
X110761904Y-77452380D01*
X110857142Y-77452380D01*
X112380952Y-77452380D02*
X112380952Y-76452380D01*
X112380952Y-77404761D02*
X112285714Y-77452380D01*
X112095238Y-77452380D01*
X112000000Y-77404761D01*
X111952380Y-77357142D01*
X111904761Y-77261904D01*
X111904761Y-76976190D01*
X111952380Y-76880952D01*
X112000000Y-76833333D01*
X112095238Y-76785714D01*
X112285714Y-76785714D01*
X112380952Y-76833333D01*
X112857142Y-77452380D02*
X112857142Y-76785714D01*
X112857142Y-76452380D02*
X112809523Y-76500000D01*
X112857142Y-76547619D01*
X112904761Y-76500000D01*
X112857142Y-76452380D01*
X112857142Y-76547619D01*
X113285714Y-77404761D02*
X113380952Y-77452380D01*
X113571428Y-77452380D01*
X113666666Y-77404761D01*
X113714285Y-77309523D01*
X113714285Y-77261904D01*
X113666666Y-77166666D01*
X113571428Y-77119047D01*
X113428571Y-77119047D01*
X113333333Y-77071428D01*
X113285714Y-76976190D01*
X113285714Y-76928571D01*
X113333333Y-76833333D01*
X113428571Y-76785714D01*
X113571428Y-76785714D01*
X113666666Y-76833333D01*
X114142857Y-76785714D02*
X114142857Y-77785714D01*
X114142857Y-76833333D02*
X114238095Y-76785714D01*
X114428571Y-76785714D01*
X114523809Y-76833333D01*
X114571428Y-76880952D01*
X114619047Y-76976190D01*
X114619047Y-77261904D01*
X114571428Y-77357142D01*
X114523809Y-77404761D01*
X114428571Y-77452380D01*
X114238095Y-77452380D01*
X114142857Y-77404761D01*
X115190476Y-77452380D02*
X115095238Y-77404761D01*
X115047619Y-77309523D01*
X115047619Y-76452380D01*
X116000000Y-77452380D02*
X116000000Y-76928571D01*
X115952380Y-76833333D01*
X115857142Y-76785714D01*
X115666666Y-76785714D01*
X115571428Y-76833333D01*
X116000000Y-77404761D02*
X115904761Y-77452380D01*
X115666666Y-77452380D01*
X115571428Y-77404761D01*
X115523809Y-77309523D01*
X115523809Y-77214285D01*
X115571428Y-77119047D01*
X115666666Y-77071428D01*
X115904761Y-77071428D01*
X116000000Y-77023809D01*
X116380952Y-76785714D02*
X116619047Y-77452380D01*
X116857142Y-76785714D02*
X116619047Y-77452380D01*
X116523809Y-77690476D01*
X116476190Y-77738095D01*
X116380952Y-77785714D01*
G04 #@! TO.C,J4*
X195262380Y-117243333D02*
X195976666Y-117243333D01*
X196119523Y-117290952D01*
X196214761Y-117386190D01*
X196262380Y-117529047D01*
X196262380Y-117624285D01*
X195595714Y-116338571D02*
X196262380Y-116338571D01*
X195214761Y-116576666D02*
X195929047Y-116814761D01*
X195929047Y-116195714D01*
X183342380Y-119386190D02*
X183342380Y-118814761D01*
X184342380Y-119100476D02*
X183342380Y-119100476D01*
X184342380Y-118481428D02*
X183675714Y-118481428D01*
X183866190Y-118481428D02*
X183770952Y-118433809D01*
X183723333Y-118386190D01*
X183675714Y-118290952D01*
X183675714Y-118195714D01*
X184342380Y-117862380D02*
X183675714Y-117862380D01*
X183342380Y-117862380D02*
X183390000Y-117910000D01*
X183437619Y-117862380D01*
X183390000Y-117814761D01*
X183342380Y-117862380D01*
X183437619Y-117862380D01*
X183675714Y-116957619D02*
X184485238Y-116957619D01*
X184580476Y-117005238D01*
X184628095Y-117052857D01*
X184675714Y-117148095D01*
X184675714Y-117290952D01*
X184628095Y-117386190D01*
X184294761Y-116957619D02*
X184342380Y-117052857D01*
X184342380Y-117243333D01*
X184294761Y-117338571D01*
X184247142Y-117386190D01*
X184151904Y-117433809D01*
X183866190Y-117433809D01*
X183770952Y-117386190D01*
X183723333Y-117338571D01*
X183675714Y-117243333D01*
X183675714Y-117052857D01*
X183723333Y-116957619D01*
X183675714Y-116052857D02*
X184485238Y-116052857D01*
X184580476Y-116100476D01*
X184628095Y-116148095D01*
X184675714Y-116243333D01*
X184675714Y-116386190D01*
X184628095Y-116481428D01*
X184294761Y-116052857D02*
X184342380Y-116148095D01*
X184342380Y-116338571D01*
X184294761Y-116433809D01*
X184247142Y-116481428D01*
X184151904Y-116529047D01*
X183866190Y-116529047D01*
X183770952Y-116481428D01*
X183723333Y-116433809D01*
X183675714Y-116338571D01*
X183675714Y-116148095D01*
X183723333Y-116052857D01*
X184294761Y-115195714D02*
X184342380Y-115290952D01*
X184342380Y-115481428D01*
X184294761Y-115576666D01*
X184199523Y-115624285D01*
X183818571Y-115624285D01*
X183723333Y-115576666D01*
X183675714Y-115481428D01*
X183675714Y-115290952D01*
X183723333Y-115195714D01*
X183818571Y-115148095D01*
X183913809Y-115148095D01*
X184009047Y-115624285D01*
X184342380Y-114719523D02*
X183675714Y-114719523D01*
X183866190Y-114719523D02*
X183770952Y-114671904D01*
X183723333Y-114624285D01*
X183675714Y-114529047D01*
X183675714Y-114433809D01*
G04 #@! TO.C,J5*
X195182380Y-105813333D02*
X195896666Y-105813333D01*
X196039523Y-105860952D01*
X196134761Y-105956190D01*
X196182380Y-106099047D01*
X196182380Y-106194285D01*
X195182380Y-104860952D02*
X195182380Y-105337142D01*
X195658571Y-105384761D01*
X195610952Y-105337142D01*
X195563333Y-105241904D01*
X195563333Y-105003809D01*
X195610952Y-104908571D01*
X195658571Y-104860952D01*
X195753809Y-104813333D01*
X195991904Y-104813333D01*
X196087142Y-104860952D01*
X196134761Y-104908571D01*
X196182380Y-105003809D01*
X196182380Y-105241904D01*
X196134761Y-105337142D01*
X196087142Y-105384761D01*
X184262380Y-107218095D02*
X183786190Y-107551428D01*
X184262380Y-107789523D02*
X183262380Y-107789523D01*
X183262380Y-107408571D01*
X183310000Y-107313333D01*
X183357619Y-107265714D01*
X183452857Y-107218095D01*
X183595714Y-107218095D01*
X183690952Y-107265714D01*
X183738571Y-107313333D01*
X183786190Y-107408571D01*
X183786190Y-107789523D01*
X184214761Y-106408571D02*
X184262380Y-106503809D01*
X184262380Y-106694285D01*
X184214761Y-106789523D01*
X184119523Y-106837142D01*
X183738571Y-106837142D01*
X183643333Y-106789523D01*
X183595714Y-106694285D01*
X183595714Y-106503809D01*
X183643333Y-106408571D01*
X183738571Y-106360952D01*
X183833809Y-106360952D01*
X183929047Y-106837142D01*
X184262380Y-105789523D02*
X184214761Y-105884761D01*
X184119523Y-105932380D01*
X183262380Y-105932380D01*
X184262380Y-105265714D02*
X184214761Y-105360952D01*
X184167142Y-105408571D01*
X184071904Y-105456190D01*
X183786190Y-105456190D01*
X183690952Y-105408571D01*
X183643333Y-105360952D01*
X183595714Y-105265714D01*
X183595714Y-105122857D01*
X183643333Y-105027619D01*
X183690952Y-104980000D01*
X183786190Y-104932380D01*
X184071904Y-104932380D01*
X184167142Y-104980000D01*
X184214761Y-105027619D01*
X184262380Y-105122857D01*
X184262380Y-105265714D01*
X184262380Y-104075238D02*
X183738571Y-104075238D01*
X183643333Y-104122857D01*
X183595714Y-104218095D01*
X183595714Y-104408571D01*
X183643333Y-104503809D01*
X184214761Y-104075238D02*
X184262380Y-104170476D01*
X184262380Y-104408571D01*
X184214761Y-104503809D01*
X184119523Y-104551428D01*
X184024285Y-104551428D01*
X183929047Y-104503809D01*
X183881428Y-104408571D01*
X183881428Y-104170476D01*
X183833809Y-104075238D01*
X184262380Y-103170476D02*
X183262380Y-103170476D01*
X184214761Y-103170476D02*
X184262380Y-103265714D01*
X184262380Y-103456190D01*
X184214761Y-103551428D01*
X184167142Y-103599047D01*
X184071904Y-103646666D01*
X183786190Y-103646666D01*
X183690952Y-103599047D01*
X183643333Y-103551428D01*
X183595714Y-103456190D01*
X183595714Y-103265714D01*
X183643333Y-103170476D01*
G04 #@! TO.C,J6*
X195252380Y-94483333D02*
X195966666Y-94483333D01*
X196109523Y-94530952D01*
X196204761Y-94626190D01*
X196252380Y-94769047D01*
X196252380Y-94864285D01*
X195252380Y-93578571D02*
X195252380Y-93769047D01*
X195300000Y-93864285D01*
X195347619Y-93911904D01*
X195490476Y-94007142D01*
X195680952Y-94054761D01*
X196061904Y-94054761D01*
X196157142Y-94007142D01*
X196204761Y-93959523D01*
X196252380Y-93864285D01*
X196252380Y-93673809D01*
X196204761Y-93578571D01*
X196157142Y-93530952D01*
X196061904Y-93483333D01*
X195823809Y-93483333D01*
X195728571Y-93530952D01*
X195680952Y-93578571D01*
X195633333Y-93673809D01*
X195633333Y-93864285D01*
X195680952Y-93959523D01*
X195728571Y-94007142D01*
X195823809Y-94054761D01*
X183808571Y-97054761D02*
X183808571Y-97388095D01*
X184332380Y-97388095D02*
X183332380Y-97388095D01*
X183332380Y-96911904D01*
X184332380Y-96530952D02*
X183665714Y-96530952D01*
X183332380Y-96530952D02*
X183380000Y-96578571D01*
X183427619Y-96530952D01*
X183380000Y-96483333D01*
X183332380Y-96530952D01*
X183427619Y-96530952D01*
X184332380Y-96054761D02*
X183665714Y-96054761D01*
X183856190Y-96054761D02*
X183760952Y-96007142D01*
X183713333Y-95959523D01*
X183665714Y-95864285D01*
X183665714Y-95769047D01*
X184284761Y-95054761D02*
X184332380Y-95150000D01*
X184332380Y-95340476D01*
X184284761Y-95435714D01*
X184189523Y-95483333D01*
X183808571Y-95483333D01*
X183713333Y-95435714D01*
X183665714Y-95340476D01*
X183665714Y-95150000D01*
X183713333Y-95054761D01*
X183808571Y-95007142D01*
X183903809Y-95007142D01*
X183999047Y-95483333D01*
X184427619Y-94816666D02*
X184427619Y-94054761D01*
X184332380Y-93673809D02*
X184284761Y-93769047D01*
X184189523Y-93816666D01*
X183332380Y-93816666D01*
X184332380Y-93292857D02*
X183665714Y-93292857D01*
X183332380Y-93292857D02*
X183380000Y-93340476D01*
X183427619Y-93292857D01*
X183380000Y-93245238D01*
X183332380Y-93292857D01*
X183427619Y-93292857D01*
X183665714Y-92388095D02*
X184475238Y-92388095D01*
X184570476Y-92435714D01*
X184618095Y-92483333D01*
X184665714Y-92578571D01*
X184665714Y-92721428D01*
X184618095Y-92816666D01*
X184284761Y-92388095D02*
X184332380Y-92483333D01*
X184332380Y-92673809D01*
X184284761Y-92769047D01*
X184237142Y-92816666D01*
X184141904Y-92864285D01*
X183856190Y-92864285D01*
X183760952Y-92816666D01*
X183713333Y-92769047D01*
X183665714Y-92673809D01*
X183665714Y-92483333D01*
X183713333Y-92388095D01*
X184332380Y-91911904D02*
X183332380Y-91911904D01*
X184332380Y-91483333D02*
X183808571Y-91483333D01*
X183713333Y-91530952D01*
X183665714Y-91626190D01*
X183665714Y-91769047D01*
X183713333Y-91864285D01*
X183760952Y-91911904D01*
X183665714Y-91150000D02*
X183665714Y-90769047D01*
X183332380Y-91007142D02*
X184189523Y-91007142D01*
X184284761Y-90959523D01*
X184332380Y-90864285D01*
X184332380Y-90769047D01*
G04 #@! TO.C,J7*
X170961667Y-74297381D02*
X170961667Y-75011667D01*
X170914048Y-75154524D01*
X170818810Y-75249762D01*
X170675953Y-75297381D01*
X170580715Y-75297381D01*
X171342620Y-74297381D02*
X172009286Y-74297381D01*
X171580715Y-75297381D01*
X164652143Y-92657381D02*
X164652143Y-91657381D01*
X165033096Y-91657381D01*
X165128334Y-91705001D01*
X165175953Y-91752620D01*
X165223572Y-91847858D01*
X165223572Y-91990715D01*
X165175953Y-92085953D01*
X165128334Y-92133572D01*
X165033096Y-92181191D01*
X164652143Y-92181191D01*
X165652143Y-92657381D02*
X165652143Y-91990715D01*
X165652143Y-92181191D02*
X165699762Y-92085953D01*
X165747381Y-92038334D01*
X165842620Y-91990715D01*
X165937858Y-91990715D01*
X166414048Y-92657381D02*
X166318810Y-92609762D01*
X166271191Y-92562143D01*
X166223572Y-92466905D01*
X166223572Y-92181191D01*
X166271191Y-92085953D01*
X166318810Y-92038334D01*
X166414048Y-91990715D01*
X166556905Y-91990715D01*
X166652143Y-92038334D01*
X166699762Y-92085953D01*
X166747381Y-92181191D01*
X166747381Y-92466905D01*
X166699762Y-92562143D01*
X166652143Y-92609762D01*
X166556905Y-92657381D01*
X166414048Y-92657381D01*
X167604524Y-91990715D02*
X167604524Y-92800239D01*
X167556905Y-92895477D01*
X167509286Y-92943096D01*
X167414048Y-92990715D01*
X167271191Y-92990715D01*
X167175953Y-92943096D01*
X167604524Y-92609762D02*
X167509286Y-92657381D01*
X167318810Y-92657381D01*
X167223572Y-92609762D01*
X167175953Y-92562143D01*
X167128334Y-92466905D01*
X167128334Y-92181191D01*
X167175953Y-92085953D01*
X167223572Y-92038334D01*
X167318810Y-91990715D01*
X167509286Y-91990715D01*
X167604524Y-92038334D01*
X168080715Y-92657381D02*
X168080715Y-91990715D01*
X168080715Y-92181191D02*
X168128334Y-92085953D01*
X168175953Y-92038334D01*
X168271191Y-91990715D01*
X168366429Y-91990715D01*
X169128334Y-92657381D02*
X169128334Y-92133572D01*
X169080715Y-92038334D01*
X168985477Y-91990715D01*
X168795001Y-91990715D01*
X168699762Y-92038334D01*
X169128334Y-92609762D02*
X169033096Y-92657381D01*
X168795001Y-92657381D01*
X168699762Y-92609762D01*
X168652143Y-92514524D01*
X168652143Y-92419286D01*
X168699762Y-92324048D01*
X168795001Y-92276429D01*
X169033096Y-92276429D01*
X169128334Y-92228810D01*
X169604524Y-92657381D02*
X169604524Y-91990715D01*
X169604524Y-92085953D02*
X169652143Y-92038334D01*
X169747381Y-91990715D01*
X169890239Y-91990715D01*
X169985477Y-92038334D01*
X170033096Y-92133572D01*
X170033096Y-92657381D01*
X170033096Y-92133572D02*
X170080715Y-92038334D01*
X170175953Y-91990715D01*
X170318810Y-91990715D01*
X170414048Y-92038334D01*
X170461667Y-92133572D01*
X170461667Y-92657381D01*
X170937858Y-92657381D02*
X170937858Y-91990715D01*
X170937858Y-92085953D02*
X170985477Y-92038334D01*
X171080715Y-91990715D01*
X171223572Y-91990715D01*
X171318810Y-92038334D01*
X171366429Y-92133572D01*
X171366429Y-92657381D01*
X171366429Y-92133572D02*
X171414048Y-92038334D01*
X171509286Y-91990715D01*
X171652143Y-91990715D01*
X171747381Y-92038334D01*
X171795001Y-92133572D01*
X171795001Y-92657381D01*
X172271191Y-92657381D02*
X172271191Y-91990715D01*
X172271191Y-91657381D02*
X172223572Y-91705001D01*
X172271191Y-91752620D01*
X172318810Y-91705001D01*
X172271191Y-91657381D01*
X172271191Y-91752620D01*
X172747381Y-91990715D02*
X172747381Y-92657381D01*
X172747381Y-92085953D02*
X172795001Y-92038334D01*
X172890239Y-91990715D01*
X173033096Y-91990715D01*
X173128334Y-92038334D01*
X173175953Y-92133572D01*
X173175953Y-92657381D01*
X174080715Y-91990715D02*
X174080715Y-92800239D01*
X174033096Y-92895477D01*
X173985477Y-92943096D01*
X173890239Y-92990715D01*
X173747381Y-92990715D01*
X173652143Y-92943096D01*
X174080715Y-92609762D02*
X173985477Y-92657381D01*
X173795001Y-92657381D01*
X173699762Y-92609762D01*
X173652143Y-92562143D01*
X173604524Y-92466905D01*
X173604524Y-92181191D01*
X173652143Y-92085953D01*
X173699762Y-92038334D01*
X173795001Y-91990715D01*
X173985477Y-91990715D01*
X174080715Y-92038334D01*
X175318810Y-91990715D02*
X175318810Y-92990715D01*
X175318810Y-92038334D02*
X175414048Y-91990715D01*
X175604524Y-91990715D01*
X175699762Y-92038334D01*
X175747381Y-92085953D01*
X175795001Y-92181191D01*
X175795001Y-92466905D01*
X175747381Y-92562143D01*
X175699762Y-92609762D01*
X175604524Y-92657381D01*
X175414048Y-92657381D01*
X175318810Y-92609762D01*
X176223572Y-92657381D02*
X176223572Y-91990715D01*
X176223572Y-91657381D02*
X176175953Y-91705001D01*
X176223572Y-91752620D01*
X176271191Y-91705001D01*
X176223572Y-91657381D01*
X176223572Y-91752620D01*
X176699762Y-91990715D02*
X176699762Y-92657381D01*
X176699762Y-92085953D02*
X176747381Y-92038334D01*
X176842620Y-91990715D01*
X176985477Y-91990715D01*
X177080715Y-92038334D01*
X177128334Y-92133572D01*
X177128334Y-92657381D01*
X177556905Y-92609762D02*
X177652143Y-92657381D01*
X177842620Y-92657381D01*
X177937858Y-92609762D01*
X177985477Y-92514524D01*
X177985477Y-92466905D01*
X177937858Y-92371667D01*
X177842620Y-92324048D01*
X177699762Y-92324048D01*
X177604524Y-92276429D01*
X177556905Y-92181191D01*
X177556905Y-92133572D01*
X177604524Y-92038334D01*
X177699762Y-91990715D01*
X177842620Y-91990715D01*
X177937858Y-92038334D01*
G04 #@! TO.C,J8*
X130356666Y-126942380D02*
X130356666Y-127656666D01*
X130309047Y-127799523D01*
X130213809Y-127894761D01*
X130070952Y-127942380D01*
X129975714Y-127942380D01*
X130975714Y-127370952D02*
X130880476Y-127323333D01*
X130832857Y-127275714D01*
X130785238Y-127180476D01*
X130785238Y-127132857D01*
X130832857Y-127037619D01*
X130880476Y-126990000D01*
X130975714Y-126942380D01*
X131166190Y-126942380D01*
X131261428Y-126990000D01*
X131309047Y-127037619D01*
X131356666Y-127132857D01*
X131356666Y-127180476D01*
X131309047Y-127275714D01*
X131261428Y-127323333D01*
X131166190Y-127370952D01*
X130975714Y-127370952D01*
X130880476Y-127418571D01*
X130832857Y-127466190D01*
X130785238Y-127561428D01*
X130785238Y-127751904D01*
X130832857Y-127847142D01*
X130880476Y-127894761D01*
X130975714Y-127942380D01*
X131166190Y-127942380D01*
X131261428Y-127894761D01*
X131309047Y-127847142D01*
X131356666Y-127751904D01*
X131356666Y-127561428D01*
X131309047Y-127466190D01*
X131261428Y-127418571D01*
X131166190Y-127370952D01*
X127832857Y-139862380D02*
X127356666Y-139862380D01*
X127356666Y-138862380D01*
X128166190Y-139862380D02*
X128166190Y-138862380D01*
X128404285Y-138862380D01*
X128547142Y-138910000D01*
X128642380Y-139005238D01*
X128690000Y-139100476D01*
X128737619Y-139290952D01*
X128737619Y-139433809D01*
X128690000Y-139624285D01*
X128642380Y-139719523D01*
X128547142Y-139814761D01*
X128404285Y-139862380D01*
X128166190Y-139862380D01*
X129737619Y-139862380D02*
X129404285Y-139386190D01*
X129166190Y-139862380D02*
X129166190Y-138862380D01*
X129547142Y-138862380D01*
X129642380Y-138910000D01*
X129690000Y-138957619D01*
X129737619Y-139052857D01*
X129737619Y-139195714D01*
X129690000Y-139290952D01*
X129642380Y-139338571D01*
X129547142Y-139386190D01*
X129166190Y-139386190D01*
X131261428Y-139338571D02*
X131404285Y-139386190D01*
X131451904Y-139433809D01*
X131499523Y-139529047D01*
X131499523Y-139671904D01*
X131451904Y-139767142D01*
X131404285Y-139814761D01*
X131309047Y-139862380D01*
X130928095Y-139862380D01*
X130928095Y-138862380D01*
X131261428Y-138862380D01*
X131356666Y-138910000D01*
X131404285Y-138957619D01*
X131451904Y-139052857D01*
X131451904Y-139148095D01*
X131404285Y-139243333D01*
X131356666Y-139290952D01*
X131261428Y-139338571D01*
X130928095Y-139338571D01*
X132356666Y-139862380D02*
X132356666Y-139338571D01*
X132309047Y-139243333D01*
X132213809Y-139195714D01*
X132023333Y-139195714D01*
X131928095Y-139243333D01*
X132356666Y-139814761D02*
X132261428Y-139862380D01*
X132023333Y-139862380D01*
X131928095Y-139814761D01*
X131880476Y-139719523D01*
X131880476Y-139624285D01*
X131928095Y-139529047D01*
X132023333Y-139481428D01*
X132261428Y-139481428D01*
X132356666Y-139433809D01*
X133261428Y-139814761D02*
X133166190Y-139862380D01*
X132975714Y-139862380D01*
X132880476Y-139814761D01*
X132832857Y-139767142D01*
X132785238Y-139671904D01*
X132785238Y-139386190D01*
X132832857Y-139290952D01*
X132880476Y-139243333D01*
X132975714Y-139195714D01*
X133166190Y-139195714D01*
X133261428Y-139243333D01*
X133690000Y-139862380D02*
X133690000Y-138862380D01*
X133785238Y-139481428D02*
X134070952Y-139862380D01*
X134070952Y-139195714D02*
X133690000Y-139576666D01*
G04 #@! TO.C,J10*
X163630476Y-126942380D02*
X163630476Y-127656666D01*
X163582857Y-127799523D01*
X163487619Y-127894761D01*
X163344761Y-127942380D01*
X163249523Y-127942380D01*
X164630476Y-127942380D02*
X164059047Y-127942380D01*
X164344761Y-127942380D02*
X164344761Y-126942380D01*
X164249523Y-127085238D01*
X164154285Y-127180476D01*
X164059047Y-127228095D01*
X165249523Y-126942380D02*
X165344761Y-126942380D01*
X165440000Y-126990000D01*
X165487619Y-127037619D01*
X165535238Y-127132857D01*
X165582857Y-127323333D01*
X165582857Y-127561428D01*
X165535238Y-127751904D01*
X165487619Y-127847142D01*
X165440000Y-127894761D01*
X165344761Y-127942380D01*
X165249523Y-127942380D01*
X165154285Y-127894761D01*
X165106666Y-127847142D01*
X165059047Y-127751904D01*
X165011428Y-127561428D01*
X165011428Y-127323333D01*
X165059047Y-127132857D01*
X165106666Y-127037619D01*
X165154285Y-126990000D01*
X165249523Y-126942380D01*
X161487619Y-139862380D02*
X161011428Y-139862380D01*
X161011428Y-138862380D01*
X161820952Y-139338571D02*
X162154285Y-139338571D01*
X162297142Y-139862380D02*
X161820952Y-139862380D01*
X161820952Y-138862380D01*
X162297142Y-138862380D01*
X162725714Y-139862380D02*
X162725714Y-138862380D01*
X162963809Y-138862380D01*
X163106666Y-138910000D01*
X163201904Y-139005238D01*
X163249523Y-139100476D01*
X163297142Y-139290952D01*
X163297142Y-139433809D01*
X163249523Y-139624285D01*
X163201904Y-139719523D01*
X163106666Y-139814761D01*
X162963809Y-139862380D01*
X162725714Y-139862380D01*
X164820952Y-139338571D02*
X164487619Y-139338571D01*
X164487619Y-139862380D02*
X164487619Y-138862380D01*
X164963809Y-138862380D01*
X165344761Y-139862380D02*
X165344761Y-139195714D01*
X165344761Y-139386190D02*
X165392380Y-139290952D01*
X165440000Y-139243333D01*
X165535238Y-139195714D01*
X165630476Y-139195714D01*
X166106666Y-139862380D02*
X166011428Y-139814761D01*
X165963809Y-139767142D01*
X165916190Y-139671904D01*
X165916190Y-139386190D01*
X165963809Y-139290952D01*
X166011428Y-139243333D01*
X166106666Y-139195714D01*
X166249523Y-139195714D01*
X166344761Y-139243333D01*
X166392380Y-139290952D01*
X166440000Y-139386190D01*
X166440000Y-139671904D01*
X166392380Y-139767142D01*
X166344761Y-139814761D01*
X166249523Y-139862380D01*
X166106666Y-139862380D01*
X166868571Y-139195714D02*
X166868571Y-139862380D01*
X166868571Y-139290952D02*
X166916190Y-139243333D01*
X167011428Y-139195714D01*
X167154285Y-139195714D01*
X167249523Y-139243333D01*
X167297142Y-139338571D01*
X167297142Y-139862380D01*
X167630476Y-139195714D02*
X168011428Y-139195714D01*
X167773333Y-138862380D02*
X167773333Y-139719523D01*
X167820952Y-139814761D01*
X167916190Y-139862380D01*
X168011428Y-139862380D01*
G04 #@! TO.C,J11*
X152380476Y-126942380D02*
X152380476Y-127656666D01*
X152332857Y-127799523D01*
X152237619Y-127894761D01*
X152094761Y-127942380D01*
X151999523Y-127942380D01*
X153380476Y-127942380D02*
X152809047Y-127942380D01*
X153094761Y-127942380D02*
X153094761Y-126942380D01*
X152999523Y-127085238D01*
X152904285Y-127180476D01*
X152809047Y-127228095D01*
X154332857Y-127942380D02*
X153761428Y-127942380D01*
X154047142Y-127942380D02*
X154047142Y-126942380D01*
X153951904Y-127085238D01*
X153856666Y-127180476D01*
X153761428Y-127228095D01*
X150190000Y-139862380D02*
X149713809Y-139862380D01*
X149713809Y-138862380D01*
X150523333Y-139862380D02*
X150523333Y-138862380D01*
X150761428Y-138862380D01*
X150904285Y-138910000D01*
X150999523Y-139005238D01*
X151047142Y-139100476D01*
X151094761Y-139290952D01*
X151094761Y-139433809D01*
X151047142Y-139624285D01*
X150999523Y-139719523D01*
X150904285Y-139814761D01*
X150761428Y-139862380D01*
X150523333Y-139862380D01*
X152094761Y-139862380D02*
X151761428Y-139386190D01*
X151523333Y-139862380D02*
X151523333Y-138862380D01*
X151904285Y-138862380D01*
X151999523Y-138910000D01*
X152047142Y-138957619D01*
X152094761Y-139052857D01*
X152094761Y-139195714D01*
X152047142Y-139290952D01*
X151999523Y-139338571D01*
X151904285Y-139386190D01*
X151523333Y-139386190D01*
X153618571Y-139338571D02*
X153285238Y-139338571D01*
X153285238Y-139862380D02*
X153285238Y-138862380D01*
X153761428Y-138862380D01*
X154142380Y-139862380D02*
X154142380Y-139195714D01*
X154142380Y-139386190D02*
X154190000Y-139290952D01*
X154237619Y-139243333D01*
X154332857Y-139195714D01*
X154428095Y-139195714D01*
X154904285Y-139862380D02*
X154809047Y-139814761D01*
X154761428Y-139767142D01*
X154713809Y-139671904D01*
X154713809Y-139386190D01*
X154761428Y-139290952D01*
X154809047Y-139243333D01*
X154904285Y-139195714D01*
X155047142Y-139195714D01*
X155142380Y-139243333D01*
X155190000Y-139290952D01*
X155237619Y-139386190D01*
X155237619Y-139671904D01*
X155190000Y-139767142D01*
X155142380Y-139814761D01*
X155047142Y-139862380D01*
X154904285Y-139862380D01*
X155666190Y-139195714D02*
X155666190Y-139862380D01*
X155666190Y-139290952D02*
X155713809Y-139243333D01*
X155809047Y-139195714D01*
X155951904Y-139195714D01*
X156047142Y-139243333D01*
X156094761Y-139338571D01*
X156094761Y-139862380D01*
X156428095Y-139195714D02*
X156809047Y-139195714D01*
X156570952Y-138862380D02*
X156570952Y-139719523D01*
X156618571Y-139814761D01*
X156713809Y-139862380D01*
X156809047Y-139862380D01*
G04 #@! TO.C,Q1*
X172514761Y-116937619D02*
X172419523Y-116890000D01*
X172324285Y-116794761D01*
X172181428Y-116651904D01*
X172086190Y-116604285D01*
X171990952Y-116604285D01*
X172038571Y-116842380D02*
X171943333Y-116794761D01*
X171848095Y-116699523D01*
X171800476Y-116509047D01*
X171800476Y-116175714D01*
X171848095Y-115985238D01*
X171943333Y-115890000D01*
X172038571Y-115842380D01*
X172229047Y-115842380D01*
X172324285Y-115890000D01*
X172419523Y-115985238D01*
X172467142Y-116175714D01*
X172467142Y-116509047D01*
X172419523Y-116699523D01*
X172324285Y-116794761D01*
X172229047Y-116842380D01*
X172038571Y-116842380D01*
X173419523Y-116842380D02*
X172848095Y-116842380D01*
X173133809Y-116842380D02*
X173133809Y-115842380D01*
X173038571Y-115985238D01*
X172943333Y-116080476D01*
X172848095Y-116128095D01*
X169752857Y-110072380D02*
X169752857Y-109072380D01*
X170800476Y-110072380D02*
X170467142Y-109596190D01*
X170229047Y-110072380D02*
X170229047Y-109072380D01*
X170610000Y-109072380D01*
X170705238Y-109120000D01*
X170752857Y-109167619D01*
X170800476Y-109262857D01*
X170800476Y-109405714D01*
X170752857Y-109500952D01*
X170705238Y-109548571D01*
X170610000Y-109596190D01*
X170229047Y-109596190D01*
X171705238Y-110072380D02*
X171229047Y-110072380D01*
X171229047Y-109072380D01*
X172514761Y-109072380D02*
X172038571Y-109072380D01*
X171990952Y-109548571D01*
X172038571Y-109500952D01*
X172133809Y-109453333D01*
X172371904Y-109453333D01*
X172467142Y-109500952D01*
X172514761Y-109548571D01*
X172562380Y-109643809D01*
X172562380Y-109881904D01*
X172514761Y-109977142D01*
X172467142Y-110024761D01*
X172371904Y-110072380D01*
X172133809Y-110072380D01*
X172038571Y-110024761D01*
X171990952Y-109977142D01*
X173419523Y-109405714D02*
X173419523Y-110072380D01*
X173181428Y-109024761D02*
X172943333Y-109739047D01*
X173562380Y-109739047D01*
X174133809Y-109072380D02*
X174229047Y-109072380D01*
X174324285Y-109120000D01*
X174371904Y-109167619D01*
X174419523Y-109262857D01*
X174467142Y-109453333D01*
X174467142Y-109691428D01*
X174419523Y-109881904D01*
X174371904Y-109977142D01*
X174324285Y-110024761D01*
X174229047Y-110072380D01*
X174133809Y-110072380D01*
X174038571Y-110024761D01*
X173990952Y-109977142D01*
X173943333Y-109881904D01*
X173895714Y-109691428D01*
X173895714Y-109453333D01*
X173943333Y-109262857D01*
X173990952Y-109167619D01*
X174038571Y-109120000D01*
X174133809Y-109072380D01*
X174895714Y-110072380D02*
X174895714Y-109072380D01*
X175467142Y-110072380D01*
X175467142Y-109072380D01*
G04 #@! TO.C,R1*
X122282380Y-117316666D02*
X121806190Y-117650000D01*
X122282380Y-117888095D02*
X121282380Y-117888095D01*
X121282380Y-117507142D01*
X121330000Y-117411904D01*
X121377619Y-117364285D01*
X121472857Y-117316666D01*
X121615714Y-117316666D01*
X121710952Y-117364285D01*
X121758571Y-117411904D01*
X121806190Y-117507142D01*
X121806190Y-117888095D01*
X122282380Y-116364285D02*
X122282380Y-116935714D01*
X122282380Y-116650000D02*
X121282380Y-116650000D01*
X121425238Y-116745238D01*
X121520476Y-116840476D01*
X121568095Y-116935714D01*
X127722380Y-119769047D02*
X127722380Y-120340476D01*
X127722380Y-120054761D02*
X126722380Y-120054761D01*
X126865238Y-120150000D01*
X126960476Y-120245238D01*
X127008095Y-120340476D01*
X126722380Y-119150000D02*
X126722380Y-119054761D01*
X126770000Y-118959523D01*
X126817619Y-118911904D01*
X126912857Y-118864285D01*
X127103333Y-118816666D01*
X127341428Y-118816666D01*
X127531904Y-118864285D01*
X127627142Y-118911904D01*
X127674761Y-118959523D01*
X127722380Y-119054761D01*
X127722380Y-119150000D01*
X127674761Y-119245238D01*
X127627142Y-119292857D01*
X127531904Y-119340476D01*
X127341428Y-119388095D01*
X127103333Y-119388095D01*
X126912857Y-119340476D01*
X126817619Y-119292857D01*
X126770000Y-119245238D01*
X126722380Y-119150000D01*
X126722380Y-118197619D02*
X126722380Y-118102380D01*
X126770000Y-118007142D01*
X126817619Y-117959523D01*
X126912857Y-117911904D01*
X127103333Y-117864285D01*
X127341428Y-117864285D01*
X127531904Y-117911904D01*
X127627142Y-117959523D01*
X127674761Y-118007142D01*
X127722380Y-118102380D01*
X127722380Y-118197619D01*
X127674761Y-118292857D01*
X127627142Y-118340476D01*
X127531904Y-118388095D01*
X127341428Y-118435714D01*
X127103333Y-118435714D01*
X126912857Y-118388095D01*
X126817619Y-118340476D01*
X126770000Y-118292857D01*
X126722380Y-118197619D01*
X127722380Y-116530952D02*
X127674761Y-116626190D01*
X127627142Y-116673809D01*
X127531904Y-116721428D01*
X127246190Y-116721428D01*
X127150952Y-116673809D01*
X127103333Y-116626190D01*
X127055714Y-116530952D01*
X127055714Y-116388095D01*
X127103333Y-116292857D01*
X127150952Y-116245238D01*
X127246190Y-116197619D01*
X127531904Y-116197619D01*
X127627142Y-116245238D01*
X127674761Y-116292857D01*
X127722380Y-116388095D01*
X127722380Y-116530952D01*
X127722380Y-115769047D02*
X126722380Y-115769047D01*
X127722380Y-115340476D02*
X127198571Y-115340476D01*
X127103333Y-115388095D01*
X127055714Y-115483333D01*
X127055714Y-115626190D01*
X127103333Y-115721428D01*
X127150952Y-115769047D01*
X127722380Y-114864285D02*
X127055714Y-114864285D01*
X127150952Y-114864285D02*
X127103333Y-114816666D01*
X127055714Y-114721428D01*
X127055714Y-114578571D01*
X127103333Y-114483333D01*
X127198571Y-114435714D01*
X127722380Y-114435714D01*
X127198571Y-114435714D02*
X127103333Y-114388095D01*
X127055714Y-114292857D01*
X127055714Y-114150000D01*
X127103333Y-114054761D01*
X127198571Y-114007142D01*
X127722380Y-114007142D01*
G04 #@! TO.C,R2*
X126412380Y-84726666D02*
X125936190Y-85060000D01*
X126412380Y-85298095D02*
X125412380Y-85298095D01*
X125412380Y-84917142D01*
X125460000Y-84821904D01*
X125507619Y-84774285D01*
X125602857Y-84726666D01*
X125745714Y-84726666D01*
X125840952Y-84774285D01*
X125888571Y-84821904D01*
X125936190Y-84917142D01*
X125936190Y-85298095D01*
X125507619Y-84345714D02*
X125460000Y-84298095D01*
X125412380Y-84202857D01*
X125412380Y-83964761D01*
X125460000Y-83869523D01*
X125507619Y-83821904D01*
X125602857Y-83774285D01*
X125698095Y-83774285D01*
X125840952Y-83821904D01*
X126412380Y-84393333D01*
X126412380Y-83774285D01*
X131852380Y-86679047D02*
X131376190Y-87012380D01*
X131852380Y-87250476D02*
X130852380Y-87250476D01*
X130852380Y-86869523D01*
X130900000Y-86774285D01*
X130947619Y-86726666D01*
X131042857Y-86679047D01*
X131185714Y-86679047D01*
X131280952Y-86726666D01*
X131328571Y-86774285D01*
X131376190Y-86869523D01*
X131376190Y-87250476D01*
X131947619Y-86488571D02*
X131947619Y-85726666D01*
X131852380Y-84917142D02*
X131376190Y-85250476D01*
X131852380Y-85488571D02*
X130852380Y-85488571D01*
X130852380Y-85107619D01*
X130900000Y-85012380D01*
X130947619Y-84964761D01*
X131042857Y-84917142D01*
X131185714Y-84917142D01*
X131280952Y-84964761D01*
X131328571Y-85012380D01*
X131376190Y-85107619D01*
X131376190Y-85488571D01*
X131804761Y-84107619D02*
X131852380Y-84202857D01*
X131852380Y-84393333D01*
X131804761Y-84488571D01*
X131709523Y-84536190D01*
X131328571Y-84536190D01*
X131233333Y-84488571D01*
X131185714Y-84393333D01*
X131185714Y-84202857D01*
X131233333Y-84107619D01*
X131328571Y-84060000D01*
X131423809Y-84060000D01*
X131519047Y-84536190D01*
X131804761Y-83679047D02*
X131852380Y-83583809D01*
X131852380Y-83393333D01*
X131804761Y-83298095D01*
X131709523Y-83250476D01*
X131661904Y-83250476D01*
X131566666Y-83298095D01*
X131519047Y-83393333D01*
X131519047Y-83536190D01*
X131471428Y-83631428D01*
X131376190Y-83679047D01*
X131328571Y-83679047D01*
X131233333Y-83631428D01*
X131185714Y-83536190D01*
X131185714Y-83393333D01*
X131233333Y-83298095D01*
X131804761Y-82440952D02*
X131852380Y-82536190D01*
X131852380Y-82726666D01*
X131804761Y-82821904D01*
X131709523Y-82869523D01*
X131328571Y-82869523D01*
X131233333Y-82821904D01*
X131185714Y-82726666D01*
X131185714Y-82536190D01*
X131233333Y-82440952D01*
X131328571Y-82393333D01*
X131423809Y-82393333D01*
X131519047Y-82869523D01*
X131185714Y-82107619D02*
X131185714Y-81726666D01*
X130852380Y-81964761D02*
X131709523Y-81964761D01*
X131804761Y-81917142D01*
X131852380Y-81821904D01*
X131852380Y-81726666D01*
G04 #@! TO.C,R3*
X170693333Y-125672380D02*
X170360000Y-125196190D01*
X170121904Y-125672380D02*
X170121904Y-124672380D01*
X170502857Y-124672380D01*
X170598095Y-124720000D01*
X170645714Y-124767619D01*
X170693333Y-124862857D01*
X170693333Y-125005714D01*
X170645714Y-125100952D01*
X170598095Y-125148571D01*
X170502857Y-125196190D01*
X170121904Y-125196190D01*
X171026666Y-124672380D02*
X171645714Y-124672380D01*
X171312380Y-125053333D01*
X171455238Y-125053333D01*
X171550476Y-125100952D01*
X171598095Y-125148571D01*
X171645714Y-125243809D01*
X171645714Y-125481904D01*
X171598095Y-125577142D01*
X171550476Y-125624761D01*
X171455238Y-125672380D01*
X171169523Y-125672380D01*
X171074285Y-125624761D01*
X171026666Y-125577142D01*
G04 #@! TO.C,R4*
X128982380Y-117316666D02*
X128506190Y-117650000D01*
X128982380Y-117888095D02*
X127982380Y-117888095D01*
X127982380Y-117507142D01*
X128030000Y-117411904D01*
X128077619Y-117364285D01*
X128172857Y-117316666D01*
X128315714Y-117316666D01*
X128410952Y-117364285D01*
X128458571Y-117411904D01*
X128506190Y-117507142D01*
X128506190Y-117888095D01*
X128315714Y-116459523D02*
X128982380Y-116459523D01*
X127934761Y-116697619D02*
X128649047Y-116935714D01*
X128649047Y-116316666D01*
X134422380Y-119769047D02*
X134422380Y-120340476D01*
X134422380Y-120054761D02*
X133422380Y-120054761D01*
X133565238Y-120150000D01*
X133660476Y-120245238D01*
X133708095Y-120340476D01*
X133422380Y-119150000D02*
X133422380Y-119054761D01*
X133470000Y-118959523D01*
X133517619Y-118911904D01*
X133612857Y-118864285D01*
X133803333Y-118816666D01*
X134041428Y-118816666D01*
X134231904Y-118864285D01*
X134327142Y-118911904D01*
X134374761Y-118959523D01*
X134422380Y-119054761D01*
X134422380Y-119150000D01*
X134374761Y-119245238D01*
X134327142Y-119292857D01*
X134231904Y-119340476D01*
X134041428Y-119388095D01*
X133803333Y-119388095D01*
X133612857Y-119340476D01*
X133517619Y-119292857D01*
X133470000Y-119245238D01*
X133422380Y-119150000D01*
X133422380Y-118197619D02*
X133422380Y-118102380D01*
X133470000Y-118007142D01*
X133517619Y-117959523D01*
X133612857Y-117911904D01*
X133803333Y-117864285D01*
X134041428Y-117864285D01*
X134231904Y-117911904D01*
X134327142Y-117959523D01*
X134374761Y-118007142D01*
X134422380Y-118102380D01*
X134422380Y-118197619D01*
X134374761Y-118292857D01*
X134327142Y-118340476D01*
X134231904Y-118388095D01*
X134041428Y-118435714D01*
X133803333Y-118435714D01*
X133612857Y-118388095D01*
X133517619Y-118340476D01*
X133470000Y-118292857D01*
X133422380Y-118197619D01*
X134422380Y-116530952D02*
X134374761Y-116626190D01*
X134327142Y-116673809D01*
X134231904Y-116721428D01*
X133946190Y-116721428D01*
X133850952Y-116673809D01*
X133803333Y-116626190D01*
X133755714Y-116530952D01*
X133755714Y-116388095D01*
X133803333Y-116292857D01*
X133850952Y-116245238D01*
X133946190Y-116197619D01*
X134231904Y-116197619D01*
X134327142Y-116245238D01*
X134374761Y-116292857D01*
X134422380Y-116388095D01*
X134422380Y-116530952D01*
X134422380Y-115769047D02*
X133422380Y-115769047D01*
X134422380Y-115340476D02*
X133898571Y-115340476D01*
X133803333Y-115388095D01*
X133755714Y-115483333D01*
X133755714Y-115626190D01*
X133803333Y-115721428D01*
X133850952Y-115769047D01*
X134422380Y-114864285D02*
X133755714Y-114864285D01*
X133850952Y-114864285D02*
X133803333Y-114816666D01*
X133755714Y-114721428D01*
X133755714Y-114578571D01*
X133803333Y-114483333D01*
X133898571Y-114435714D01*
X134422380Y-114435714D01*
X133898571Y-114435714D02*
X133803333Y-114388095D01*
X133755714Y-114292857D01*
X133755714Y-114150000D01*
X133803333Y-114054761D01*
X133898571Y-114007142D01*
X134422380Y-114007142D01*
G04 #@! TO.C,R5*
X113592380Y-117466666D02*
X113116190Y-117800000D01*
X113592380Y-118038095D02*
X112592380Y-118038095D01*
X112592380Y-117657142D01*
X112640000Y-117561904D01*
X112687619Y-117514285D01*
X112782857Y-117466666D01*
X112925714Y-117466666D01*
X113020952Y-117514285D01*
X113068571Y-117561904D01*
X113116190Y-117657142D01*
X113116190Y-118038095D01*
X112592380Y-116561904D02*
X112592380Y-117038095D01*
X113068571Y-117085714D01*
X113020952Y-117038095D01*
X112973333Y-116942857D01*
X112973333Y-116704761D01*
X113020952Y-116609523D01*
X113068571Y-116561904D01*
X113163809Y-116514285D01*
X113401904Y-116514285D01*
X113497142Y-116561904D01*
X113544761Y-116609523D01*
X113592380Y-116704761D01*
X113592380Y-116942857D01*
X113544761Y-117038095D01*
X113497142Y-117085714D01*
G04 #@! TO.C,R6*
X120522380Y-117416666D02*
X120046190Y-117750000D01*
X120522380Y-117988095D02*
X119522380Y-117988095D01*
X119522380Y-117607142D01*
X119570000Y-117511904D01*
X119617619Y-117464285D01*
X119712857Y-117416666D01*
X119855714Y-117416666D01*
X119950952Y-117464285D01*
X119998571Y-117511904D01*
X120046190Y-117607142D01*
X120046190Y-117988095D01*
X119522380Y-116559523D02*
X119522380Y-116750000D01*
X119570000Y-116845238D01*
X119617619Y-116892857D01*
X119760476Y-116988095D01*
X119950952Y-117035714D01*
X120331904Y-117035714D01*
X120427142Y-116988095D01*
X120474761Y-116940476D01*
X120522380Y-116845238D01*
X120522380Y-116654761D01*
X120474761Y-116559523D01*
X120427142Y-116511904D01*
X120331904Y-116464285D01*
X120093809Y-116464285D01*
X119998571Y-116511904D01*
X119950952Y-116559523D01*
X119903333Y-116654761D01*
X119903333Y-116845238D01*
X119950952Y-116940476D01*
X119998571Y-116988095D01*
X120093809Y-117035714D01*
G04 #@! TO.C,R7*
X168783333Y-101302380D02*
X168450000Y-100826190D01*
X168211904Y-101302380D02*
X168211904Y-100302380D01*
X168592857Y-100302380D01*
X168688095Y-100350000D01*
X168735714Y-100397619D01*
X168783333Y-100492857D01*
X168783333Y-100635714D01*
X168735714Y-100730952D01*
X168688095Y-100778571D01*
X168592857Y-100826190D01*
X168211904Y-100826190D01*
X169116666Y-100302380D02*
X169783333Y-100302380D01*
X169354761Y-101302380D01*
X166711904Y-95862380D02*
X166140476Y-95862380D01*
X166426190Y-95862380D02*
X166426190Y-94862380D01*
X166330952Y-95005238D01*
X166235714Y-95100476D01*
X166140476Y-95148095D01*
X167902380Y-95862380D02*
X167902380Y-94862380D01*
X168235714Y-95576666D01*
X168569047Y-94862380D01*
X168569047Y-95862380D01*
X169188095Y-95862380D02*
X169092857Y-95814761D01*
X169045238Y-95767142D01*
X168997619Y-95671904D01*
X168997619Y-95386190D01*
X169045238Y-95290952D01*
X169092857Y-95243333D01*
X169188095Y-95195714D01*
X169330952Y-95195714D01*
X169426190Y-95243333D01*
X169473809Y-95290952D01*
X169521428Y-95386190D01*
X169521428Y-95671904D01*
X169473809Y-95767142D01*
X169426190Y-95814761D01*
X169330952Y-95862380D01*
X169188095Y-95862380D01*
X169950000Y-95862380D02*
X169950000Y-94862380D01*
X170378571Y-95862380D02*
X170378571Y-95338571D01*
X170330952Y-95243333D01*
X170235714Y-95195714D01*
X170092857Y-95195714D01*
X169997619Y-95243333D01*
X169950000Y-95290952D01*
X170854761Y-95862380D02*
X170854761Y-95195714D01*
X170854761Y-95290952D02*
X170902380Y-95243333D01*
X170997619Y-95195714D01*
X171140476Y-95195714D01*
X171235714Y-95243333D01*
X171283333Y-95338571D01*
X171283333Y-95862380D01*
X171283333Y-95338571D02*
X171330952Y-95243333D01*
X171426190Y-95195714D01*
X171569047Y-95195714D01*
X171664285Y-95243333D01*
X171711904Y-95338571D01*
X171711904Y-95862380D01*
G04 #@! TO.C,R8*
X168733333Y-107072380D02*
X168400000Y-106596190D01*
X168161904Y-107072380D02*
X168161904Y-106072380D01*
X168542857Y-106072380D01*
X168638095Y-106120000D01*
X168685714Y-106167619D01*
X168733333Y-106262857D01*
X168733333Y-106405714D01*
X168685714Y-106500952D01*
X168638095Y-106548571D01*
X168542857Y-106596190D01*
X168161904Y-106596190D01*
X169304761Y-106500952D02*
X169209523Y-106453333D01*
X169161904Y-106405714D01*
X169114285Y-106310476D01*
X169114285Y-106262857D01*
X169161904Y-106167619D01*
X169209523Y-106120000D01*
X169304761Y-106072380D01*
X169495238Y-106072380D01*
X169590476Y-106120000D01*
X169638095Y-106167619D01*
X169685714Y-106262857D01*
X169685714Y-106310476D01*
X169638095Y-106405714D01*
X169590476Y-106453333D01*
X169495238Y-106500952D01*
X169304761Y-106500952D01*
X169209523Y-106548571D01*
X169161904Y-106596190D01*
X169114285Y-106691428D01*
X169114285Y-106881904D01*
X169161904Y-106977142D01*
X169209523Y-107024761D01*
X169304761Y-107072380D01*
X169495238Y-107072380D01*
X169590476Y-107024761D01*
X169638095Y-106977142D01*
X169685714Y-106881904D01*
X169685714Y-106691428D01*
X169638095Y-106596190D01*
X169590476Y-106548571D01*
X169495238Y-106500952D01*
X171922380Y-101452380D02*
X171350952Y-101452380D01*
X171636666Y-101452380D02*
X171636666Y-100452380D01*
X171541428Y-100595238D01*
X171446190Y-100690476D01*
X171350952Y-100738095D01*
X172541428Y-100452380D02*
X172636666Y-100452380D01*
X172731904Y-100500000D01*
X172779523Y-100547619D01*
X172827142Y-100642857D01*
X172874761Y-100833333D01*
X172874761Y-101071428D01*
X172827142Y-101261904D01*
X172779523Y-101357142D01*
X172731904Y-101404761D01*
X172636666Y-101452380D01*
X172541428Y-101452380D01*
X172446190Y-101404761D01*
X172398571Y-101357142D01*
X172350952Y-101261904D01*
X172303333Y-101071428D01*
X172303333Y-100833333D01*
X172350952Y-100642857D01*
X172398571Y-100547619D01*
X172446190Y-100500000D01*
X172541428Y-100452380D01*
X174065238Y-101452380D02*
X174065238Y-100452380D01*
X174160476Y-101071428D02*
X174446190Y-101452380D01*
X174446190Y-100785714D02*
X174065238Y-101166666D01*
X175017619Y-101452380D02*
X174922380Y-101404761D01*
X174874761Y-101357142D01*
X174827142Y-101261904D01*
X174827142Y-100976190D01*
X174874761Y-100880952D01*
X174922380Y-100833333D01*
X175017619Y-100785714D01*
X175160476Y-100785714D01*
X175255714Y-100833333D01*
X175303333Y-100880952D01*
X175350952Y-100976190D01*
X175350952Y-101261904D01*
X175303333Y-101357142D01*
X175255714Y-101404761D01*
X175160476Y-101452380D01*
X175017619Y-101452380D01*
X175779523Y-101452380D02*
X175779523Y-100452380D01*
X176208095Y-101452380D02*
X176208095Y-100928571D01*
X176160476Y-100833333D01*
X176065238Y-100785714D01*
X175922380Y-100785714D01*
X175827142Y-100833333D01*
X175779523Y-100880952D01*
X176684285Y-101452380D02*
X176684285Y-100785714D01*
X176684285Y-100880952D02*
X176731904Y-100833333D01*
X176827142Y-100785714D01*
X176970000Y-100785714D01*
X177065238Y-100833333D01*
X177112857Y-100928571D01*
X177112857Y-101452380D01*
X177112857Y-100928571D02*
X177160476Y-100833333D01*
X177255714Y-100785714D01*
X177398571Y-100785714D01*
X177493809Y-100833333D01*
X177541428Y-100928571D01*
X177541428Y-101452380D01*
G04 #@! TO.C,SW1*
X118946666Y-79474761D02*
X119089523Y-79522380D01*
X119327619Y-79522380D01*
X119422857Y-79474761D01*
X119470476Y-79427142D01*
X119518095Y-79331904D01*
X119518095Y-79236666D01*
X119470476Y-79141428D01*
X119422857Y-79093809D01*
X119327619Y-79046190D01*
X119137142Y-78998571D01*
X119041904Y-78950952D01*
X118994285Y-78903333D01*
X118946666Y-78808095D01*
X118946666Y-78712857D01*
X118994285Y-78617619D01*
X119041904Y-78570000D01*
X119137142Y-78522380D01*
X119375238Y-78522380D01*
X119518095Y-78570000D01*
X119851428Y-78522380D02*
X120089523Y-79522380D01*
X120280000Y-78808095D01*
X120470476Y-79522380D01*
X120708571Y-78522380D01*
X121613333Y-79522380D02*
X121041904Y-79522380D01*
X121327619Y-79522380D02*
X121327619Y-78522380D01*
X121232380Y-78665238D01*
X121137142Y-78760476D01*
X121041904Y-78808095D01*
X117280000Y-88174761D02*
X117422857Y-88222380D01*
X117660952Y-88222380D01*
X117756190Y-88174761D01*
X117803809Y-88127142D01*
X117851428Y-88031904D01*
X117851428Y-87936666D01*
X117803809Y-87841428D01*
X117756190Y-87793809D01*
X117660952Y-87746190D01*
X117470476Y-87698571D01*
X117375238Y-87650952D01*
X117327619Y-87603333D01*
X117280000Y-87508095D01*
X117280000Y-87412857D01*
X117327619Y-87317619D01*
X117375238Y-87270000D01*
X117470476Y-87222380D01*
X117708571Y-87222380D01*
X117851428Y-87270000D01*
X118184761Y-87222380D02*
X118422857Y-88222380D01*
X118613333Y-87508095D01*
X118803809Y-88222380D01*
X119041904Y-87222380D01*
X119184761Y-88317619D02*
X119946666Y-88317619D01*
X120756190Y-88222380D02*
X120422857Y-87746190D01*
X120184761Y-88222380D02*
X120184761Y-87222380D01*
X120565714Y-87222380D01*
X120660952Y-87270000D01*
X120708571Y-87317619D01*
X120756190Y-87412857D01*
X120756190Y-87555714D01*
X120708571Y-87650952D01*
X120660952Y-87698571D01*
X120565714Y-87746190D01*
X120184761Y-87746190D01*
X121184761Y-87698571D02*
X121518095Y-87698571D01*
X121660952Y-88222380D02*
X121184761Y-88222380D01*
X121184761Y-87222380D01*
X121660952Y-87222380D01*
X122041904Y-88174761D02*
X122184761Y-88222380D01*
X122422857Y-88222380D01*
X122518095Y-88174761D01*
X122565714Y-88127142D01*
X122613333Y-88031904D01*
X122613333Y-87936666D01*
X122565714Y-87841428D01*
X122518095Y-87793809D01*
X122422857Y-87746190D01*
X122232380Y-87698571D01*
X122137142Y-87650952D01*
X122089523Y-87603333D01*
X122041904Y-87508095D01*
X122041904Y-87412857D01*
X122089523Y-87317619D01*
X122137142Y-87270000D01*
X122232380Y-87222380D01*
X122470476Y-87222380D01*
X122613333Y-87270000D01*
X123041904Y-87698571D02*
X123375238Y-87698571D01*
X123518095Y-88222380D02*
X123041904Y-88222380D01*
X123041904Y-87222380D01*
X123518095Y-87222380D01*
X123803809Y-87222380D02*
X124375238Y-87222380D01*
X124089523Y-88222380D02*
X124089523Y-87222380D01*
G04 #@! TO.C,SW2*
X111204761Y-97033333D02*
X111252380Y-96890476D01*
X111252380Y-96652380D01*
X111204761Y-96557142D01*
X111157142Y-96509523D01*
X111061904Y-96461904D01*
X110966666Y-96461904D01*
X110871428Y-96509523D01*
X110823809Y-96557142D01*
X110776190Y-96652380D01*
X110728571Y-96842857D01*
X110680952Y-96938095D01*
X110633333Y-96985714D01*
X110538095Y-97033333D01*
X110442857Y-97033333D01*
X110347619Y-96985714D01*
X110300000Y-96938095D01*
X110252380Y-96842857D01*
X110252380Y-96604761D01*
X110300000Y-96461904D01*
X110252380Y-96128571D02*
X111252380Y-95890476D01*
X110538095Y-95700000D01*
X111252380Y-95509523D01*
X110252380Y-95271428D01*
X110347619Y-94938095D02*
X110300000Y-94890476D01*
X110252380Y-94795238D01*
X110252380Y-94557142D01*
X110300000Y-94461904D01*
X110347619Y-94414285D01*
X110442857Y-94366666D01*
X110538095Y-94366666D01*
X110680952Y-94414285D01*
X111252380Y-94985714D01*
X111252380Y-94366666D01*
X108704761Y-98747619D02*
X108752380Y-98604761D01*
X108752380Y-98366666D01*
X108704761Y-98271428D01*
X108657142Y-98223809D01*
X108561904Y-98176190D01*
X108466666Y-98176190D01*
X108371428Y-98223809D01*
X108323809Y-98271428D01*
X108276190Y-98366666D01*
X108228571Y-98557142D01*
X108180952Y-98652380D01*
X108133333Y-98700000D01*
X108038095Y-98747619D01*
X107942857Y-98747619D01*
X107847619Y-98700000D01*
X107800000Y-98652380D01*
X107752380Y-98557142D01*
X107752380Y-98319047D01*
X107800000Y-98176190D01*
X107752380Y-97842857D02*
X108752380Y-97604761D01*
X108038095Y-97414285D01*
X108752380Y-97223809D01*
X107752380Y-96985714D01*
X108847619Y-96842857D02*
X108847619Y-96080952D01*
X108752380Y-95271428D02*
X108276190Y-95604761D01*
X108752380Y-95842857D02*
X107752380Y-95842857D01*
X107752380Y-95461904D01*
X107800000Y-95366666D01*
X107847619Y-95319047D01*
X107942857Y-95271428D01*
X108085714Y-95271428D01*
X108180952Y-95319047D01*
X108228571Y-95366666D01*
X108276190Y-95461904D01*
X108276190Y-95842857D01*
X108704761Y-94461904D02*
X108752380Y-94557142D01*
X108752380Y-94747619D01*
X108704761Y-94842857D01*
X108609523Y-94890476D01*
X108228571Y-94890476D01*
X108133333Y-94842857D01*
X108085714Y-94747619D01*
X108085714Y-94557142D01*
X108133333Y-94461904D01*
X108228571Y-94414285D01*
X108323809Y-94414285D01*
X108419047Y-94890476D01*
X108704761Y-93604761D02*
X108752380Y-93700000D01*
X108752380Y-93890476D01*
X108704761Y-93985714D01*
X108609523Y-94033333D01*
X108228571Y-94033333D01*
X108133333Y-93985714D01*
X108085714Y-93890476D01*
X108085714Y-93700000D01*
X108133333Y-93604761D01*
X108228571Y-93557142D01*
X108323809Y-93557142D01*
X108419047Y-94033333D01*
X108752380Y-92700000D02*
X107752380Y-92700000D01*
X108704761Y-92700000D02*
X108752380Y-92795238D01*
X108752380Y-92985714D01*
X108704761Y-93080952D01*
X108657142Y-93128571D01*
X108561904Y-93176190D01*
X108276190Y-93176190D01*
X108180952Y-93128571D01*
X108133333Y-93080952D01*
X108085714Y-92985714D01*
X108085714Y-92795238D01*
X108133333Y-92700000D01*
G04 #@! TO.C,SW3*
X151616666Y-116804761D02*
X151759523Y-116852380D01*
X151997619Y-116852380D01*
X152092857Y-116804761D01*
X152140476Y-116757142D01*
X152188095Y-116661904D01*
X152188095Y-116566666D01*
X152140476Y-116471428D01*
X152092857Y-116423809D01*
X151997619Y-116376190D01*
X151807142Y-116328571D01*
X151711904Y-116280952D01*
X151664285Y-116233333D01*
X151616666Y-116138095D01*
X151616666Y-116042857D01*
X151664285Y-115947619D01*
X151711904Y-115900000D01*
X151807142Y-115852380D01*
X152045238Y-115852380D01*
X152188095Y-115900000D01*
X152521428Y-115852380D02*
X152759523Y-116852380D01*
X152950000Y-116138095D01*
X153140476Y-116852380D01*
X153378571Y-115852380D01*
X153664285Y-115852380D02*
X154283333Y-115852380D01*
X153950000Y-116233333D01*
X154092857Y-116233333D01*
X154188095Y-116280952D01*
X154235714Y-116328571D01*
X154283333Y-116423809D01*
X154283333Y-116661904D01*
X154235714Y-116757142D01*
X154188095Y-116804761D01*
X154092857Y-116852380D01*
X153807142Y-116852380D01*
X153711904Y-116804761D01*
X153664285Y-116757142D01*
X148569047Y-125504761D02*
X148711904Y-125552380D01*
X148950000Y-125552380D01*
X149045238Y-125504761D01*
X149092857Y-125457142D01*
X149140476Y-125361904D01*
X149140476Y-125266666D01*
X149092857Y-125171428D01*
X149045238Y-125123809D01*
X148950000Y-125076190D01*
X148759523Y-125028571D01*
X148664285Y-124980952D01*
X148616666Y-124933333D01*
X148569047Y-124838095D01*
X148569047Y-124742857D01*
X148616666Y-124647619D01*
X148664285Y-124600000D01*
X148759523Y-124552380D01*
X148997619Y-124552380D01*
X149140476Y-124600000D01*
X149950000Y-125504761D02*
X149854761Y-125552380D01*
X149664285Y-125552380D01*
X149569047Y-125504761D01*
X149521428Y-125409523D01*
X149521428Y-125028571D01*
X149569047Y-124933333D01*
X149664285Y-124885714D01*
X149854761Y-124885714D01*
X149950000Y-124933333D01*
X149997619Y-125028571D01*
X149997619Y-125123809D01*
X149521428Y-125219047D01*
X150569047Y-125552380D02*
X150473809Y-125504761D01*
X150426190Y-125409523D01*
X150426190Y-124552380D01*
X151330952Y-125504761D02*
X151235714Y-125552380D01*
X151045238Y-125552380D01*
X150950000Y-125504761D01*
X150902380Y-125409523D01*
X150902380Y-125028571D01*
X150950000Y-124933333D01*
X151045238Y-124885714D01*
X151235714Y-124885714D01*
X151330952Y-124933333D01*
X151378571Y-125028571D01*
X151378571Y-125123809D01*
X150902380Y-125219047D01*
X152235714Y-125504761D02*
X152140476Y-125552380D01*
X151950000Y-125552380D01*
X151854761Y-125504761D01*
X151807142Y-125457142D01*
X151759523Y-125361904D01*
X151759523Y-125076190D01*
X151807142Y-124980952D01*
X151854761Y-124933333D01*
X151950000Y-124885714D01*
X152140476Y-124885714D01*
X152235714Y-124933333D01*
X152521428Y-124885714D02*
X152902380Y-124885714D01*
X152664285Y-124552380D02*
X152664285Y-125409523D01*
X152711904Y-125504761D01*
X152807142Y-125552380D01*
X152902380Y-125552380D01*
X152997619Y-125647619D02*
X153759523Y-125647619D01*
X153997619Y-125552380D02*
X153997619Y-124552380D01*
X153997619Y-124933333D02*
X154092857Y-124885714D01*
X154283333Y-124885714D01*
X154378571Y-124933333D01*
X154426190Y-124980952D01*
X154473809Y-125076190D01*
X154473809Y-125361904D01*
X154426190Y-125457142D01*
X154378571Y-125504761D01*
X154283333Y-125552380D01*
X154092857Y-125552380D01*
X153997619Y-125504761D01*
X155330952Y-124885714D02*
X155330952Y-125552380D01*
X154902380Y-124885714D02*
X154902380Y-125409523D01*
X154950000Y-125504761D01*
X155045238Y-125552380D01*
X155188095Y-125552380D01*
X155283333Y-125504761D01*
X155330952Y-125457142D01*
X155664285Y-124885714D02*
X156045238Y-124885714D01*
X155807142Y-124552380D02*
X155807142Y-125409523D01*
X155854761Y-125504761D01*
X155950000Y-125552380D01*
X156045238Y-125552380D01*
X156235714Y-124885714D02*
X156616666Y-124885714D01*
X156378571Y-124552380D02*
X156378571Y-125409523D01*
X156426190Y-125504761D01*
X156521428Y-125552380D01*
X156616666Y-125552380D01*
X157092857Y-125552380D02*
X156997619Y-125504761D01*
X156950000Y-125457142D01*
X156902380Y-125361904D01*
X156902380Y-125076190D01*
X156950000Y-124980952D01*
X156997619Y-124933333D01*
X157092857Y-124885714D01*
X157235714Y-124885714D01*
X157330952Y-124933333D01*
X157378571Y-124980952D01*
X157426190Y-125076190D01*
X157426190Y-125361904D01*
X157378571Y-125457142D01*
X157330952Y-125504761D01*
X157235714Y-125552380D01*
X157092857Y-125552380D01*
X157854761Y-124885714D02*
X157854761Y-125552380D01*
X157854761Y-124980952D02*
X157902380Y-124933333D01*
X157997619Y-124885714D01*
X158140476Y-124885714D01*
X158235714Y-124933333D01*
X158283333Y-125028571D01*
X158283333Y-125552380D01*
G04 #@! TO.C,SW4*
X140866666Y-116804761D02*
X141009523Y-116852380D01*
X141247619Y-116852380D01*
X141342857Y-116804761D01*
X141390476Y-116757142D01*
X141438095Y-116661904D01*
X141438095Y-116566666D01*
X141390476Y-116471428D01*
X141342857Y-116423809D01*
X141247619Y-116376190D01*
X141057142Y-116328571D01*
X140961904Y-116280952D01*
X140914285Y-116233333D01*
X140866666Y-116138095D01*
X140866666Y-116042857D01*
X140914285Y-115947619D01*
X140961904Y-115900000D01*
X141057142Y-115852380D01*
X141295238Y-115852380D01*
X141438095Y-115900000D01*
X141771428Y-115852380D02*
X142009523Y-116852380D01*
X142200000Y-116138095D01*
X142390476Y-116852380D01*
X142628571Y-115852380D01*
X143438095Y-116185714D02*
X143438095Y-116852380D01*
X143200000Y-115804761D02*
X142961904Y-116519047D01*
X143580952Y-116519047D01*
X137938095Y-125504761D02*
X138080952Y-125552380D01*
X138319047Y-125552380D01*
X138414285Y-125504761D01*
X138461904Y-125457142D01*
X138509523Y-125361904D01*
X138509523Y-125266666D01*
X138461904Y-125171428D01*
X138414285Y-125123809D01*
X138319047Y-125076190D01*
X138128571Y-125028571D01*
X138033333Y-124980952D01*
X137985714Y-124933333D01*
X137938095Y-124838095D01*
X137938095Y-124742857D01*
X137985714Y-124647619D01*
X138033333Y-124600000D01*
X138128571Y-124552380D01*
X138366666Y-124552380D01*
X138509523Y-124600000D01*
X139366666Y-125504761D02*
X139271428Y-125552380D01*
X139080952Y-125552380D01*
X138985714Y-125504761D01*
X138938095Y-125457142D01*
X138890476Y-125361904D01*
X138890476Y-125076190D01*
X138938095Y-124980952D01*
X138985714Y-124933333D01*
X139080952Y-124885714D01*
X139271428Y-124885714D01*
X139366666Y-124933333D01*
X139795238Y-125552380D02*
X139795238Y-124885714D01*
X139795238Y-125076190D02*
X139842857Y-124980952D01*
X139890476Y-124933333D01*
X139985714Y-124885714D01*
X140080952Y-124885714D01*
X140557142Y-125552380D02*
X140461904Y-125504761D01*
X140414285Y-125457142D01*
X140366666Y-125361904D01*
X140366666Y-125076190D01*
X140414285Y-124980952D01*
X140461904Y-124933333D01*
X140557142Y-124885714D01*
X140700000Y-124885714D01*
X140795238Y-124933333D01*
X140842857Y-124980952D01*
X140890476Y-125076190D01*
X140890476Y-125361904D01*
X140842857Y-125457142D01*
X140795238Y-125504761D01*
X140700000Y-125552380D01*
X140557142Y-125552380D01*
X141461904Y-125552380D02*
X141366666Y-125504761D01*
X141319047Y-125409523D01*
X141319047Y-124552380D01*
X141985714Y-125552380D02*
X141890476Y-125504761D01*
X141842857Y-125409523D01*
X141842857Y-124552380D01*
X142128571Y-125647619D02*
X142890476Y-125647619D01*
X143128571Y-125552380D02*
X143128571Y-124552380D01*
X143128571Y-124933333D02*
X143223809Y-124885714D01*
X143414285Y-124885714D01*
X143509523Y-124933333D01*
X143557142Y-124980952D01*
X143604761Y-125076190D01*
X143604761Y-125361904D01*
X143557142Y-125457142D01*
X143509523Y-125504761D01*
X143414285Y-125552380D01*
X143223809Y-125552380D01*
X143128571Y-125504761D01*
X144461904Y-124885714D02*
X144461904Y-125552380D01*
X144033333Y-124885714D02*
X144033333Y-125409523D01*
X144080952Y-125504761D01*
X144176190Y-125552380D01*
X144319047Y-125552380D01*
X144414285Y-125504761D01*
X144461904Y-125457142D01*
X144795238Y-124885714D02*
X145176190Y-124885714D01*
X144938095Y-124552380D02*
X144938095Y-125409523D01*
X144985714Y-125504761D01*
X145080952Y-125552380D01*
X145176190Y-125552380D01*
X145366666Y-124885714D02*
X145747619Y-124885714D01*
X145509523Y-124552380D02*
X145509523Y-125409523D01*
X145557142Y-125504761D01*
X145652380Y-125552380D01*
X145747619Y-125552380D01*
X146223809Y-125552380D02*
X146128571Y-125504761D01*
X146080952Y-125457142D01*
X146033333Y-125361904D01*
X146033333Y-125076190D01*
X146080952Y-124980952D01*
X146128571Y-124933333D01*
X146223809Y-124885714D01*
X146366666Y-124885714D01*
X146461904Y-124933333D01*
X146509523Y-124980952D01*
X146557142Y-125076190D01*
X146557142Y-125361904D01*
X146509523Y-125457142D01*
X146461904Y-125504761D01*
X146366666Y-125552380D01*
X146223809Y-125552380D01*
X146985714Y-124885714D02*
X146985714Y-125552380D01*
X146985714Y-124980952D02*
X147033333Y-124933333D01*
X147128571Y-124885714D01*
X147271428Y-124885714D01*
X147366666Y-124933333D01*
X147414285Y-125028571D01*
X147414285Y-125552380D01*
G04 #@! TO.C,U1*
X148498095Y-75622380D02*
X148498095Y-76431904D01*
X148545714Y-76527142D01*
X148593333Y-76574761D01*
X148688571Y-76622380D01*
X148879047Y-76622380D01*
X148974285Y-76574761D01*
X149021904Y-76527142D01*
X149069523Y-76431904D01*
X149069523Y-75622380D01*
X150069523Y-76622380D02*
X149498095Y-76622380D01*
X149783809Y-76622380D02*
X149783809Y-75622380D01*
X149688571Y-75765238D01*
X149593333Y-75860476D01*
X149498095Y-75908095D01*
X143569523Y-114016666D02*
X144045714Y-114016666D01*
X143474285Y-114302380D02*
X143807619Y-113302380D01*
X144140952Y-114302380D01*
X144331428Y-113302380D02*
X144902857Y-113302380D01*
X144617142Y-114302380D02*
X144617142Y-113302380D01*
X145236190Y-114302380D02*
X145236190Y-113635714D01*
X145236190Y-113730952D02*
X145283809Y-113683333D01*
X145379047Y-113635714D01*
X145521904Y-113635714D01*
X145617142Y-113683333D01*
X145664761Y-113778571D01*
X145664761Y-114302380D01*
X145664761Y-113778571D02*
X145712380Y-113683333D01*
X145807619Y-113635714D01*
X145950476Y-113635714D01*
X146045714Y-113683333D01*
X146093333Y-113778571D01*
X146093333Y-114302380D01*
X146950476Y-114254761D02*
X146855238Y-114302380D01*
X146664761Y-114302380D01*
X146569523Y-114254761D01*
X146521904Y-114159523D01*
X146521904Y-113778571D01*
X146569523Y-113683333D01*
X146664761Y-113635714D01*
X146855238Y-113635714D01*
X146950476Y-113683333D01*
X146998095Y-113778571D01*
X146998095Y-113873809D01*
X146521904Y-113969047D01*
X147855238Y-113635714D02*
X147855238Y-114445238D01*
X147807619Y-114540476D01*
X147760000Y-114588095D01*
X147664761Y-114635714D01*
X147521904Y-114635714D01*
X147426666Y-114588095D01*
X147855238Y-114254761D02*
X147760000Y-114302380D01*
X147569523Y-114302380D01*
X147474285Y-114254761D01*
X147426666Y-114207142D01*
X147379047Y-114111904D01*
X147379047Y-113826190D01*
X147426666Y-113730952D01*
X147474285Y-113683333D01*
X147569523Y-113635714D01*
X147760000Y-113635714D01*
X147855238Y-113683333D01*
X148760000Y-114302380D02*
X148760000Y-113778571D01*
X148712380Y-113683333D01*
X148617142Y-113635714D01*
X148426666Y-113635714D01*
X148331428Y-113683333D01*
X148760000Y-114254761D02*
X148664761Y-114302380D01*
X148426666Y-114302380D01*
X148331428Y-114254761D01*
X148283809Y-114159523D01*
X148283809Y-114064285D01*
X148331428Y-113969047D01*
X148426666Y-113921428D01*
X148664761Y-113921428D01*
X148760000Y-113873809D01*
X149140952Y-113302380D02*
X149760000Y-113302380D01*
X149426666Y-113683333D01*
X149569523Y-113683333D01*
X149664761Y-113730952D01*
X149712380Y-113778571D01*
X149760000Y-113873809D01*
X149760000Y-114111904D01*
X149712380Y-114207142D01*
X149664761Y-114254761D01*
X149569523Y-114302380D01*
X149283809Y-114302380D01*
X149188571Y-114254761D01*
X149140952Y-114207142D01*
X150140952Y-113397619D02*
X150188571Y-113350000D01*
X150283809Y-113302380D01*
X150521904Y-113302380D01*
X150617142Y-113350000D01*
X150664761Y-113397619D01*
X150712380Y-113492857D01*
X150712380Y-113588095D01*
X150664761Y-113730952D01*
X150093333Y-114302380D01*
X150712380Y-114302380D01*
X151283809Y-113730952D02*
X151188571Y-113683333D01*
X151140952Y-113635714D01*
X151093333Y-113540476D01*
X151093333Y-113492857D01*
X151140952Y-113397619D01*
X151188571Y-113350000D01*
X151283809Y-113302380D01*
X151474285Y-113302380D01*
X151569523Y-113350000D01*
X151617142Y-113397619D01*
X151664761Y-113492857D01*
X151664761Y-113540476D01*
X151617142Y-113635714D01*
X151569523Y-113683333D01*
X151474285Y-113730952D01*
X151283809Y-113730952D01*
X151188571Y-113778571D01*
X151140952Y-113826190D01*
X151093333Y-113921428D01*
X151093333Y-114111904D01*
X151140952Y-114207142D01*
X151188571Y-114254761D01*
X151283809Y-114302380D01*
X151474285Y-114302380D01*
X151569523Y-114254761D01*
X151617142Y-114207142D01*
X151664761Y-114111904D01*
X151664761Y-113921428D01*
X151617142Y-113826190D01*
X151569523Y-113778571D01*
X151474285Y-113730952D01*
X152093333Y-113921428D02*
X152855238Y-113921428D01*
X153331428Y-114302380D02*
X153331428Y-113302380D01*
X153712380Y-113302380D01*
X153807619Y-113350000D01*
X153855238Y-113397619D01*
X153902857Y-113492857D01*
X153902857Y-113635714D01*
X153855238Y-113730952D01*
X153807619Y-113778571D01*
X153712380Y-113826190D01*
X153331428Y-113826190D01*
X154331428Y-113302380D02*
X154331428Y-114111904D01*
X154379047Y-114207142D01*
X154426666Y-114254761D01*
X154521904Y-114302380D01*
X154712380Y-114302380D01*
X154807619Y-114254761D01*
X154855238Y-114207142D01*
X154902857Y-114111904D01*
X154902857Y-113302380D01*
G04 #@! TO.C,U2*
X185278095Y-85322380D02*
X185278095Y-86131904D01*
X185325714Y-86227142D01*
X185373333Y-86274761D01*
X185468571Y-86322380D01*
X185659047Y-86322380D01*
X185754285Y-86274761D01*
X185801904Y-86227142D01*
X185849523Y-86131904D01*
X185849523Y-85322380D01*
X186278095Y-85417619D02*
X186325714Y-85370000D01*
X186420952Y-85322380D01*
X186659047Y-85322380D01*
X186754285Y-85370000D01*
X186801904Y-85417619D01*
X186849523Y-85512857D01*
X186849523Y-85608095D01*
X186801904Y-85750952D01*
X186230476Y-86322380D01*
X186849523Y-86322380D01*
X184444761Y-79552380D02*
X183968571Y-79552380D01*
X183968571Y-78552380D01*
X184682857Y-78552380D02*
X185349523Y-78552380D01*
X184920952Y-79552380D01*
X185873333Y-78980952D02*
X185778095Y-78933333D01*
X185730476Y-78885714D01*
X185682857Y-78790476D01*
X185682857Y-78742857D01*
X185730476Y-78647619D01*
X185778095Y-78600000D01*
X185873333Y-78552380D01*
X186063809Y-78552380D01*
X186159047Y-78600000D01*
X186206666Y-78647619D01*
X186254285Y-78742857D01*
X186254285Y-78790476D01*
X186206666Y-78885714D01*
X186159047Y-78933333D01*
X186063809Y-78980952D01*
X185873333Y-78980952D01*
X185778095Y-79028571D01*
X185730476Y-79076190D01*
X185682857Y-79171428D01*
X185682857Y-79361904D01*
X185730476Y-79457142D01*
X185778095Y-79504761D01*
X185873333Y-79552380D01*
X186063809Y-79552380D01*
X186159047Y-79504761D01*
X186206666Y-79457142D01*
X186254285Y-79361904D01*
X186254285Y-79171428D01*
X186206666Y-79076190D01*
X186159047Y-79028571D01*
X186063809Y-78980952D01*
X186873333Y-78552380D02*
X186968571Y-78552380D01*
X187063809Y-78600000D01*
X187111428Y-78647619D01*
X187159047Y-78742857D01*
X187206666Y-78933333D01*
X187206666Y-79171428D01*
X187159047Y-79361904D01*
X187111428Y-79457142D01*
X187063809Y-79504761D01*
X186968571Y-79552380D01*
X186873333Y-79552380D01*
X186778095Y-79504761D01*
X186730476Y-79457142D01*
X186682857Y-79361904D01*
X186635238Y-79171428D01*
X186635238Y-78933333D01*
X186682857Y-78742857D01*
X186730476Y-78647619D01*
X186778095Y-78600000D01*
X186873333Y-78552380D01*
X188111428Y-78552380D02*
X187635238Y-78552380D01*
X187587619Y-79028571D01*
X187635238Y-78980952D01*
X187730476Y-78933333D01*
X187968571Y-78933333D01*
X188063809Y-78980952D01*
X188111428Y-79028571D01*
X188159047Y-79123809D01*
X188159047Y-79361904D01*
X188111428Y-79457142D01*
X188063809Y-79504761D01*
X187968571Y-79552380D01*
X187730476Y-79552380D01*
X187635238Y-79504761D01*
X187587619Y-79457142D01*
G04 #@! TO.C,Y1*
X139651190Y-100516190D02*
X140127380Y-100516190D01*
X139127380Y-100849523D02*
X139651190Y-100516190D01*
X139127380Y-100182857D01*
X140127380Y-99325714D02*
X140127380Y-99897142D01*
X140127380Y-99611428D02*
X139127380Y-99611428D01*
X139270238Y-99706666D01*
X139365476Y-99801904D01*
X139413095Y-99897142D01*
G04 #@! TD*
M02*
