G04 #@! TF.GenerationSoftware,KiCad,Pcbnew,(5.0.2)-1*
G04 #@! TF.CreationDate,2019-02-17T16:43:36+01:00*
G04 #@! TF.ProjectId,_saved_lasergame vs,5f736176-6564-45f6-9c61-73657267616d,rev?*
G04 #@! TF.SameCoordinates,Original*
G04 #@! TF.FileFunction,Copper,L2,Bot*
G04 #@! TF.FilePolarity,Positive*
%FSLAX46Y46*%
G04 Gerber Fmt 4.6, Leading zero omitted, Abs format (unit mm)*
G04 Created by KiCad (PCBNEW (5.0.2)-1) date 17/02/2019 16:43:36*
%MOMM*%
%LPD*%
G01*
G04 APERTURE LIST*
G04 #@! TA.AperFunction,ComponentPad*
%ADD10R,2.000000X2.000000*%
G04 #@! TD*
G04 #@! TA.AperFunction,ComponentPad*
%ADD11C,2.000000*%
G04 #@! TD*
G04 #@! TA.AperFunction,ComponentPad*
%ADD12C,1.600000*%
G04 #@! TD*
G04 #@! TA.AperFunction,ComponentPad*
%ADD13C,2.600000*%
G04 #@! TD*
G04 #@! TA.AperFunction,ComponentPad*
%ADD14R,2.600000X2.600000*%
G04 #@! TD*
G04 #@! TA.AperFunction,ComponentPad*
%ADD15R,1.700000X1.700000*%
G04 #@! TD*
G04 #@! TA.AperFunction,ComponentPad*
%ADD16O,1.700000X1.700000*%
G04 #@! TD*
G04 #@! TA.AperFunction,ComponentPad*
%ADD17R,1.905000X2.000000*%
G04 #@! TD*
G04 #@! TA.AperFunction,ComponentPad*
%ADD18O,1.905000X2.000000*%
G04 #@! TD*
G04 #@! TA.AperFunction,ComponentPad*
%ADD19O,1.600000X1.600000*%
G04 #@! TD*
G04 #@! TA.AperFunction,ComponentPad*
%ADD20C,2.400000*%
G04 #@! TD*
G04 #@! TA.AperFunction,ComponentPad*
%ADD21O,2.400000X2.400000*%
G04 #@! TD*
G04 #@! TA.AperFunction,ComponentPad*
%ADD22C,1.524000*%
G04 #@! TD*
G04 #@! TA.AperFunction,ComponentPad*
%ADD23R,1.600000X1.600000*%
G04 #@! TD*
G04 #@! TA.AperFunction,ComponentPad*
%ADD24C,1.500000*%
G04 #@! TD*
G04 #@! TA.AperFunction,ViaPad*
%ADD25C,0.800000*%
G04 #@! TD*
G04 #@! TA.AperFunction,Conductor*
%ADD26C,0.250000*%
G04 #@! TD*
G04 #@! TA.AperFunction,Conductor*
%ADD27C,0.254000*%
G04 #@! TD*
G04 APERTURE END LIST*
D10*
G04 #@! TO.P,BZ1,1*
G04 #@! TO.N,Buzzer*
X180040000Y-132740000D03*
D11*
G04 #@! TO.P,BZ1,2*
G04 #@! TO.N,GND*
X187640000Y-132740000D03*
G04 #@! TD*
D12*
G04 #@! TO.P,C1,1*
G04 #@! TO.N,GND*
X128650000Y-98950000D03*
G04 #@! TO.P,C1,2*
G04 #@! TO.N,Net-(C1-Pad2)*
X128650000Y-96450000D03*
G04 #@! TD*
G04 #@! TO.P,C2,2*
G04 #@! TO.N,Net-(C2-Pad2)*
X128650000Y-104550000D03*
G04 #@! TO.P,C2,1*
G04 #@! TO.N,GND*
X128650000Y-102050000D03*
G04 #@! TD*
G04 #@! TO.P,C3,1*
G04 #@! TO.N,DTR*
X163610000Y-67450000D03*
G04 #@! TO.P,C3,2*
G04 #@! TO.N,resetpin*
X161110000Y-67450000D03*
G04 #@! TD*
D13*
G04 #@! TO.P,J1,2*
G04 #@! TO.N,+9V*
X189650000Y-70830000D03*
D14*
G04 #@! TO.P,J1,1*
G04 #@! TO.N,GND*
X184570000Y-70830000D03*
G04 #@! TD*
G04 #@! TO.P,J2,1*
G04 #@! TO.N,LED_GREEN*
X139400000Y-133750000D03*
D13*
G04 #@! TO.P,J2,2*
G04 #@! TO.N,LED_RED*
X144480000Y-133750000D03*
G04 #@! TD*
D15*
G04 #@! TO.P,J3,1*
G04 #@! TO.N,Clock*
X110000000Y-67050000D03*
D16*
G04 #@! TO.P,J3,2*
G04 #@! TO.N,DIO*
X110000000Y-69590000D03*
G04 #@! TO.P,J3,3*
G04 #@! TO.N,5V*
X110000000Y-72130000D03*
G04 #@! TO.P,J3,4*
G04 #@! TO.N,GND*
X110000000Y-74670000D03*
G04 #@! TD*
D13*
G04 #@! TO.P,J4,2*
G04 #@! TO.N,GND*
X189550000Y-119450000D03*
D14*
G04 #@! TO.P,J4,1*
G04 #@! TO.N,Trigger*
X189550000Y-114370000D03*
G04 #@! TD*
G04 #@! TO.P,J5,1*
G04 #@! TO.N,Reload*
X189470000Y-102940000D03*
D13*
G04 #@! TO.P,J5,2*
G04 #@! TO.N,GND*
X189470000Y-108020000D03*
G04 #@! TD*
D14*
G04 #@! TO.P,J6,1*
G04 #@! TO.N,5V*
X189540000Y-91610000D03*
D13*
G04 #@! TO.P,J6,2*
G04 #@! TO.N,Net-(J6-Pad2)*
X189540000Y-96690000D03*
G04 #@! TD*
D15*
G04 #@! TO.P,J7,1*
G04 #@! TO.N,GND*
X171295001Y-77175001D03*
D16*
G04 #@! TO.P,J7,2*
G04 #@! TO.N,N/C*
X171295001Y-79715001D03*
G04 #@! TO.P,J7,3*
G04 #@! TO.N,5V*
X171295001Y-82255001D03*
G04 #@! TO.P,J7,4*
G04 #@! TO.N,RX*
X171295001Y-84795001D03*
G04 #@! TO.P,J7,5*
G04 #@! TO.N,TX*
X171295001Y-87335001D03*
G04 #@! TO.P,J7,6*
G04 #@! TO.N,DTR*
X171295001Y-89875001D03*
G04 #@! TD*
D14*
G04 #@! TO.P,J8,1*
G04 #@! TO.N,LDR_BACK*
X128150000Y-133750000D03*
D13*
G04 #@! TO.P,J8,2*
G04 #@! TO.N,GND*
X133230000Y-133750000D03*
G04 #@! TD*
G04 #@! TO.P,J10,2*
G04 #@! TO.N,LED_RED*
X166980000Y-133750000D03*
D14*
G04 #@! TO.P,J10,1*
G04 #@! TO.N,LED_GREEN*
X161900000Y-133750000D03*
G04 #@! TD*
D13*
G04 #@! TO.P,J11,2*
G04 #@! TO.N,GND*
X155730000Y-133750000D03*
D14*
G04 #@! TO.P,J11,1*
G04 #@! TO.N,LDR_FRONT*
X150650000Y-133750000D03*
G04 #@! TD*
D17*
G04 #@! TO.P,Q1,1*
G04 #@! TO.N,Light*
X175150000Y-112120000D03*
D18*
G04 #@! TO.P,Q1,2*
G04 #@! TO.N,Net-(Q1-Pad2)*
X172610000Y-112120000D03*
G04 #@! TO.P,Q1,3*
G04 #@! TO.N,GND*
X170070000Y-112120000D03*
G04 #@! TD*
D12*
G04 #@! TO.P,R1,1*
G04 #@! TO.N,LED_GREEN*
X124550000Y-123500000D03*
D19*
G04 #@! TO.P,R1,2*
G04 #@! TO.N,Net-(R1-Pad2)*
X124550000Y-110800000D03*
G04 #@! TD*
D12*
G04 #@! TO.P,R2,1*
G04 #@! TO.N,5V*
X128680000Y-90910000D03*
D19*
G04 #@! TO.P,R2,2*
G04 #@! TO.N,resetpin*
X128680000Y-78210000D03*
G04 #@! TD*
D20*
G04 #@! TO.P,R3,1*
G04 #@! TO.N,Net-(J6-Pad2)*
X181020000Y-121600000D03*
D21*
G04 #@! TO.P,R3,2*
G04 #@! TO.N,Net-(Q1-Pad2)*
X160700000Y-121600000D03*
G04 #@! TD*
D19*
G04 #@! TO.P,R4,2*
G04 #@! TO.N,Net-(R4-Pad2)*
X131250000Y-110800000D03*
D12*
G04 #@! TO.P,R4,1*
G04 #@! TO.N,LED_RED*
X131250000Y-123500000D03*
G04 #@! TD*
G04 #@! TO.P,R5,1*
G04 #@! TO.N,5V*
X110420000Y-110950000D03*
D19*
G04 #@! TO.P,R5,2*
G04 #@! TO.N,LDR_BACK*
X110420000Y-123650000D03*
G04 #@! TD*
G04 #@! TO.P,R6,2*
G04 #@! TO.N,LDR_FRONT*
X117350000Y-123600000D03*
D12*
G04 #@! TO.P,R6,1*
G04 #@! TO.N,5V*
X117350000Y-110900000D03*
G04 #@! TD*
G04 #@! TO.P,R7,1*
G04 #@! TO.N,Light*
X175300000Y-98130000D03*
D19*
G04 #@! TO.P,R7,2*
G04 #@! TO.N,GND*
X162600000Y-98130000D03*
G04 #@! TD*
G04 #@! TO.P,R8,2*
G04 #@! TO.N,Net-(R8-Pad2)*
X162550000Y-103900000D03*
D12*
G04 #@! TO.P,R8,1*
G04 #@! TO.N,Light*
X175250000Y-103900000D03*
G04 #@! TD*
D11*
G04 #@! TO.P,SW1,2*
G04 #@! TO.N,GND*
X117030000Y-85570000D03*
G04 #@! TO.P,SW1,1*
G04 #@! TO.N,resetpin*
X117030000Y-81070000D03*
G04 #@! TO.P,SW1,2*
G04 #@! TO.N,GND*
X123530000Y-85570000D03*
G04 #@! TO.P,SW1,1*
G04 #@! TO.N,resetpin*
X123530000Y-81070000D03*
G04 #@! TD*
D22*
G04 #@! TO.P,SW2,1*
G04 #@! TO.N,ResetButton*
X110300000Y-105700000D03*
G04 #@! TO.P,SW2,2*
G04 #@! TO.N,GND*
X110300000Y-85700000D03*
G04 #@! TD*
D11*
G04 #@! TO.P,SW3,1*
G04 #@! TO.N,SelectButton*
X156200000Y-118400000D03*
G04 #@! TO.P,SW3,2*
G04 #@! TO.N,GND*
X156200000Y-122900000D03*
G04 #@! TO.P,SW3,1*
G04 #@! TO.N,SelectButton*
X149700000Y-118400000D03*
G04 #@! TO.P,SW3,2*
G04 #@! TO.N,GND*
X149700000Y-122900000D03*
G04 #@! TD*
G04 #@! TO.P,SW4,2*
G04 #@! TO.N,GND*
X138950000Y-122900000D03*
G04 #@! TO.P,SW4,1*
G04 #@! TO.N,Scroll*
X138950000Y-118400000D03*
G04 #@! TO.P,SW4,2*
G04 #@! TO.N,GND*
X145450000Y-122900000D03*
G04 #@! TO.P,SW4,1*
G04 #@! TO.N,Scroll*
X145450000Y-118400000D03*
G04 #@! TD*
D23*
G04 #@! TO.P,U1,1*
G04 #@! TO.N,resetpin*
X145450000Y-78500000D03*
D19*
G04 #@! TO.P,U1,15*
G04 #@! TO.N,Buzzer*
X153070000Y-111520000D03*
G04 #@! TO.P,U1,2*
G04 #@! TO.N,RX*
X145450000Y-81040000D03*
G04 #@! TO.P,U1,16*
G04 #@! TO.N,Trigger*
X153070000Y-108980000D03*
G04 #@! TO.P,U1,3*
G04 #@! TO.N,TX*
X145450000Y-83580000D03*
G04 #@! TO.P,U1,17*
G04 #@! TO.N,Reload*
X153070000Y-106440000D03*
G04 #@! TO.P,U1,4*
G04 #@! TO.N,Clock*
X145450000Y-86120000D03*
G04 #@! TO.P,U1,18*
G04 #@! TO.N,Net-(R8-Pad2)*
X153070000Y-103900000D03*
G04 #@! TO.P,U1,5*
G04 #@! TO.N,DIO*
X145450000Y-88660000D03*
G04 #@! TO.P,U1,19*
G04 #@! TO.N,N/C*
X153070000Y-101360000D03*
G04 #@! TO.P,U1,6*
G04 #@! TO.N,Net-(R1-Pad2)*
X145450000Y-91200000D03*
G04 #@! TO.P,U1,20*
G04 #@! TO.N,5V*
X153070000Y-98820000D03*
G04 #@! TO.P,U1,7*
X145450000Y-93740000D03*
G04 #@! TO.P,U1,21*
X153070000Y-96280000D03*
G04 #@! TO.P,U1,8*
G04 #@! TO.N,GND*
X145450000Y-96280000D03*
G04 #@! TO.P,U1,22*
X153070000Y-93740000D03*
G04 #@! TO.P,U1,9*
G04 #@! TO.N,Net-(C1-Pad2)*
X145450000Y-98820000D03*
G04 #@! TO.P,U1,23*
G04 #@! TO.N,N/C*
X153070000Y-91200000D03*
G04 #@! TO.P,U1,10*
G04 #@! TO.N,Net-(C2-Pad2)*
X145450000Y-101360000D03*
G04 #@! TO.P,U1,24*
G04 #@! TO.N,N/C*
X153070000Y-88660000D03*
G04 #@! TO.P,U1,11*
G04 #@! TO.N,ResetButton*
X145450000Y-103900000D03*
G04 #@! TO.P,U1,25*
G04 #@! TO.N,N/C*
X153070000Y-86120000D03*
G04 #@! TO.P,U1,12*
G04 #@! TO.N,Net-(R4-Pad2)*
X145450000Y-106440000D03*
G04 #@! TO.P,U1,26*
G04 #@! TO.N,LDR_FRONT*
X153070000Y-83580000D03*
G04 #@! TO.P,U1,13*
G04 #@! TO.N,SelectButton*
X145450000Y-108980000D03*
G04 #@! TO.P,U1,27*
G04 #@! TO.N,LDR_BACK*
X153070000Y-81040000D03*
G04 #@! TO.P,U1,14*
G04 #@! TO.N,Scroll*
X145450000Y-111520000D03*
G04 #@! TO.P,U1,28*
G04 #@! TO.N,N/C*
X153070000Y-78500000D03*
G04 #@! TD*
D18*
G04 #@! TO.P,U2,3*
G04 #@! TO.N,5V*
X183500000Y-81600000D03*
G04 #@! TO.P,U2,2*
G04 #@! TO.N,GND*
X186040000Y-81600000D03*
D17*
G04 #@! TO.P,U2,1*
G04 #@! TO.N,+9V*
X188580000Y-81600000D03*
G04 #@! TD*
D24*
G04 #@! TO.P,Y1,1*
G04 #@! TO.N,Net-(C1-Pad2)*
X136150000Y-97600000D03*
G04 #@! TO.P,Y1,2*
G04 #@! TO.N,Net-(C2-Pad2)*
X136150000Y-102480000D03*
G04 #@! TD*
D25*
G04 #@! TO.N,LED_RED*
X145600000Y-125200000D03*
G04 #@! TD*
D26*
G04 #@! TO.N,LED_GREEN*
X161900000Y-130920000D02*
X161900000Y-133750000D01*
X157600000Y-126620000D02*
X161900000Y-130920000D01*
X144980000Y-126620000D02*
X157600000Y-126620000D01*
X139400000Y-133750000D02*
X139400000Y-132200000D01*
X139400000Y-132200000D02*
X144980000Y-126620000D01*
G04 #@! TO.N,LED_RED*
X158430000Y-125200000D02*
X166980000Y-133750000D01*
X145600000Y-125200000D02*
X158430000Y-125200000D01*
G04 #@! TO.N,DIO*
X110000000Y-69590000D02*
X126460000Y-69590000D01*
X126460000Y-69670000D02*
X145450000Y-88660000D01*
X126460000Y-69590000D02*
X126460000Y-69670000D01*
G04 #@! TO.N,Clock*
X126380000Y-67050000D02*
X145450000Y-86120000D01*
X110000000Y-67050000D02*
X126380000Y-67050000D01*
G04 #@! TO.N,Trigger*
X186160000Y-114370000D02*
X189550000Y-114370000D01*
X180800000Y-109010000D02*
X186160000Y-114370000D01*
X154231370Y-109010000D02*
X180800000Y-109010000D01*
X153070000Y-108980000D02*
X154201370Y-108980000D01*
X154201370Y-108980000D02*
X154231370Y-109010000D01*
G04 #@! TO.N,Reload*
X154201370Y-106440000D02*
X154221370Y-106460000D01*
X153070000Y-106440000D02*
X154201370Y-106440000D01*
X187920000Y-102940000D02*
X189470000Y-102940000D01*
X184400000Y-106460000D02*
X187920000Y-102940000D01*
X154221370Y-106460000D02*
X184400000Y-106460000D01*
G04 #@! TO.N,TX*
X171295001Y-87335001D02*
X156730000Y-72770000D01*
X156260000Y-72770000D02*
X145450000Y-83580000D01*
X156730000Y-72770000D02*
X156260000Y-72770000D01*
G04 #@! TO.N,RX*
X170092920Y-84795001D02*
X157077919Y-71780000D01*
X171295001Y-84795001D02*
X170092920Y-84795001D01*
X154710000Y-71780000D02*
X145450000Y-81040000D01*
X157077919Y-71780000D02*
X154710000Y-71780000D01*
G04 #@! TO.N,LDR_FRONT*
X150650000Y-135300000D02*
X147810000Y-138140000D01*
X150650000Y-133750000D02*
X150650000Y-135300000D01*
X147810000Y-138140000D02*
X121250000Y-138140000D01*
X117350000Y-134240000D02*
X117350000Y-123600000D01*
X121250000Y-138140000D02*
X117350000Y-134240000D01*
G04 #@! TO.N,ResetButton*
X143674999Y-105675001D02*
X134024999Y-105675001D01*
X145450000Y-103900000D02*
X143674999Y-105675001D01*
X134024999Y-105675001D02*
X131760000Y-107940000D01*
X131760000Y-107940000D02*
X114990000Y-107940000D01*
X112750000Y-105700000D02*
X110300000Y-105700000D01*
X114990000Y-107940000D02*
X112750000Y-105700000D01*
G04 #@! TO.N,SelectButton*
X149700000Y-113230000D02*
X149700000Y-118400000D01*
X145450000Y-108980000D02*
X149700000Y-113230000D01*
X151114213Y-118400000D02*
X156200000Y-118400000D01*
X149700000Y-118400000D02*
X151114213Y-118400000D01*
G04 #@! TD*
D27*
G04 #@! TO.N,GND*
G36*
X196836089Y-143174434D02*
X101579818Y-143095571D01*
X101615961Y-123650000D01*
X108956887Y-123650000D01*
X109068260Y-124209909D01*
X109385423Y-124684577D01*
X109860091Y-125001740D01*
X110278667Y-125085000D01*
X110561333Y-125085000D01*
X110979909Y-125001740D01*
X111454577Y-124684577D01*
X111771740Y-124209909D01*
X111883113Y-123650000D01*
X111873168Y-123600000D01*
X115886887Y-123600000D01*
X115998260Y-124159909D01*
X116315423Y-124634577D01*
X116590001Y-124818044D01*
X116590000Y-134165153D01*
X116575112Y-134240000D01*
X116590000Y-134314847D01*
X116590000Y-134314851D01*
X116634096Y-134536536D01*
X116802071Y-134787929D01*
X116865530Y-134830331D01*
X120659671Y-138624473D01*
X120702071Y-138687929D01*
X120953463Y-138855904D01*
X121175148Y-138900000D01*
X121175153Y-138900000D01*
X121250000Y-138914888D01*
X121324847Y-138900000D01*
X147735153Y-138900000D01*
X147810000Y-138914888D01*
X147884847Y-138900000D01*
X147884852Y-138900000D01*
X148106537Y-138855904D01*
X148357929Y-138687929D01*
X148400331Y-138624470D01*
X151134473Y-135890329D01*
X151197929Y-135847929D01*
X151298483Y-135697440D01*
X151950000Y-135697440D01*
X152197765Y-135648157D01*
X152407809Y-135507809D01*
X152548157Y-135297765D01*
X152583623Y-135119459D01*
X154540146Y-135119459D01*
X154675504Y-135417455D01*
X155393880Y-135694066D01*
X156163427Y-135674710D01*
X156784496Y-135417455D01*
X156919854Y-135119459D01*
X155730000Y-133929605D01*
X154540146Y-135119459D01*
X152583623Y-135119459D01*
X152597440Y-135050000D01*
X152597440Y-133413880D01*
X153785934Y-133413880D01*
X153805290Y-134183427D01*
X154062545Y-134804496D01*
X154360541Y-134939854D01*
X155550395Y-133750000D01*
X155909605Y-133750000D01*
X157099459Y-134939854D01*
X157397455Y-134804496D01*
X157674066Y-134086120D01*
X157654710Y-133316573D01*
X157397455Y-132695504D01*
X157099459Y-132560146D01*
X155909605Y-133750000D01*
X155550395Y-133750000D01*
X154360541Y-132560146D01*
X154062545Y-132695504D01*
X153785934Y-133413880D01*
X152597440Y-133413880D01*
X152597440Y-132450000D01*
X152583624Y-132380541D01*
X154540146Y-132380541D01*
X155730000Y-133570395D01*
X156919854Y-132380541D01*
X156784496Y-132082545D01*
X156066120Y-131805934D01*
X155296573Y-131825290D01*
X154675504Y-132082545D01*
X154540146Y-132380541D01*
X152583624Y-132380541D01*
X152548157Y-132202235D01*
X152407809Y-131992191D01*
X152197765Y-131851843D01*
X151950000Y-131802560D01*
X149350000Y-131802560D01*
X149102235Y-131851843D01*
X148892191Y-131992191D01*
X148751843Y-132202235D01*
X148702560Y-132450000D01*
X148702560Y-135050000D01*
X148751843Y-135297765D01*
X148892191Y-135507809D01*
X149102235Y-135648157D01*
X149206335Y-135668864D01*
X147495199Y-137380000D01*
X121564802Y-137380000D01*
X118110000Y-133925199D01*
X118110000Y-132450000D01*
X126202560Y-132450000D01*
X126202560Y-135050000D01*
X126251843Y-135297765D01*
X126392191Y-135507809D01*
X126602235Y-135648157D01*
X126850000Y-135697440D01*
X129450000Y-135697440D01*
X129697765Y-135648157D01*
X129907809Y-135507809D01*
X130048157Y-135297765D01*
X130083623Y-135119459D01*
X132040146Y-135119459D01*
X132175504Y-135417455D01*
X132893880Y-135694066D01*
X133663427Y-135674710D01*
X134284496Y-135417455D01*
X134419854Y-135119459D01*
X133230000Y-133929605D01*
X132040146Y-135119459D01*
X130083623Y-135119459D01*
X130097440Y-135050000D01*
X130097440Y-133413880D01*
X131285934Y-133413880D01*
X131305290Y-134183427D01*
X131562545Y-134804496D01*
X131860541Y-134939854D01*
X133050395Y-133750000D01*
X133409605Y-133750000D01*
X134599459Y-134939854D01*
X134897455Y-134804496D01*
X135174066Y-134086120D01*
X135154710Y-133316573D01*
X134897455Y-132695504D01*
X134599459Y-132560146D01*
X133409605Y-133750000D01*
X133050395Y-133750000D01*
X131860541Y-132560146D01*
X131562545Y-132695504D01*
X131285934Y-133413880D01*
X130097440Y-133413880D01*
X130097440Y-132450000D01*
X130083624Y-132380541D01*
X132040146Y-132380541D01*
X133230000Y-133570395D01*
X134350395Y-132450000D01*
X137452560Y-132450000D01*
X137452560Y-135050000D01*
X137501843Y-135297765D01*
X137642191Y-135507809D01*
X137852235Y-135648157D01*
X138100000Y-135697440D01*
X140700000Y-135697440D01*
X140947765Y-135648157D01*
X141157809Y-135507809D01*
X141298157Y-135297765D01*
X141347440Y-135050000D01*
X141347440Y-133365105D01*
X142545000Y-133365105D01*
X142545000Y-134134895D01*
X142839586Y-134846090D01*
X143383910Y-135390414D01*
X144095105Y-135685000D01*
X144864895Y-135685000D01*
X145576090Y-135390414D01*
X146120414Y-134846090D01*
X146415000Y-134134895D01*
X146415000Y-133365105D01*
X146120414Y-132653910D01*
X145576090Y-132109586D01*
X144864895Y-131815000D01*
X144095105Y-131815000D01*
X143383910Y-132109586D01*
X142839586Y-132653910D01*
X142545000Y-133365105D01*
X141347440Y-133365105D01*
X141347440Y-132450000D01*
X141298157Y-132202235D01*
X141157809Y-131992191D01*
X140947765Y-131851843D01*
X140843665Y-131831136D01*
X145294802Y-127380000D01*
X157285199Y-127380000D01*
X161140000Y-131234803D01*
X161140000Y-131802560D01*
X160600000Y-131802560D01*
X160352235Y-131851843D01*
X160142191Y-131992191D01*
X160001843Y-132202235D01*
X159952560Y-132450000D01*
X159952560Y-135050000D01*
X160001843Y-135297765D01*
X160142191Y-135507809D01*
X160352235Y-135648157D01*
X160600000Y-135697440D01*
X163200000Y-135697440D01*
X163447765Y-135648157D01*
X163657809Y-135507809D01*
X163798157Y-135297765D01*
X163847440Y-135050000D01*
X163847440Y-132450000D01*
X163798157Y-132202235D01*
X163657809Y-131992191D01*
X163447765Y-131851843D01*
X163200000Y-131802560D01*
X162660000Y-131802560D01*
X162660000Y-130994846D01*
X162674888Y-130919999D01*
X162660000Y-130845152D01*
X162660000Y-130845148D01*
X162615904Y-130623463D01*
X162574102Y-130560902D01*
X162490329Y-130435526D01*
X162490327Y-130435524D01*
X162447929Y-130372071D01*
X162384476Y-130329673D01*
X158190331Y-126135530D01*
X158147929Y-126072071D01*
X157980203Y-125960000D01*
X158115199Y-125960000D01*
X165184213Y-133029015D01*
X165045000Y-133365105D01*
X165045000Y-134134895D01*
X165339586Y-134846090D01*
X165883910Y-135390414D01*
X166595105Y-135685000D01*
X167364895Y-135685000D01*
X168076090Y-135390414D01*
X168620414Y-134846090D01*
X168915000Y-134134895D01*
X168915000Y-133365105D01*
X168620414Y-132653910D01*
X168076090Y-132109586D01*
X167364895Y-131815000D01*
X166595105Y-131815000D01*
X166259015Y-131954213D01*
X166044802Y-131740000D01*
X178392560Y-131740000D01*
X178392560Y-133740000D01*
X178441843Y-133987765D01*
X178582191Y-134197809D01*
X178792235Y-134338157D01*
X179040000Y-134387440D01*
X181040000Y-134387440D01*
X181287765Y-134338157D01*
X181497809Y-134197809D01*
X181638157Y-133987765D01*
X181657099Y-133892532D01*
X186667073Y-133892532D01*
X186765736Y-134159387D01*
X187375461Y-134385908D01*
X188025460Y-134361856D01*
X188514264Y-134159387D01*
X188612927Y-133892532D01*
X187640000Y-132919605D01*
X186667073Y-133892532D01*
X181657099Y-133892532D01*
X181687440Y-133740000D01*
X181687440Y-132475461D01*
X185994092Y-132475461D01*
X186018144Y-133125460D01*
X186220613Y-133614264D01*
X186487468Y-133712927D01*
X187460395Y-132740000D01*
X187819605Y-132740000D01*
X188792532Y-133712927D01*
X189059387Y-133614264D01*
X189285908Y-133004539D01*
X189261856Y-132354540D01*
X189059387Y-131865736D01*
X188792532Y-131767073D01*
X187819605Y-132740000D01*
X187460395Y-132740000D01*
X186487468Y-131767073D01*
X186220613Y-131865736D01*
X185994092Y-132475461D01*
X181687440Y-132475461D01*
X181687440Y-131740000D01*
X181657100Y-131587468D01*
X186667073Y-131587468D01*
X187640000Y-132560395D01*
X188612927Y-131587468D01*
X188514264Y-131320613D01*
X187904539Y-131094092D01*
X187254540Y-131118144D01*
X186765736Y-131320613D01*
X186667073Y-131587468D01*
X181657100Y-131587468D01*
X181638157Y-131492235D01*
X181497809Y-131282191D01*
X181287765Y-131141843D01*
X181040000Y-131092560D01*
X179040000Y-131092560D01*
X178792235Y-131141843D01*
X178582191Y-131282191D01*
X178441843Y-131492235D01*
X178392560Y-131740000D01*
X166044802Y-131740000D01*
X159020331Y-124715530D01*
X158977929Y-124652071D01*
X158726537Y-124484096D01*
X158504852Y-124440000D01*
X158504847Y-124440000D01*
X158430000Y-124425112D01*
X158355153Y-124440000D01*
X156783078Y-124440000D01*
X157074264Y-124319387D01*
X157172927Y-124052532D01*
X156200000Y-123079605D01*
X155227073Y-124052532D01*
X155325736Y-124319387D01*
X155650389Y-124440000D01*
X150283078Y-124440000D01*
X150574264Y-124319387D01*
X150672927Y-124052532D01*
X149700000Y-123079605D01*
X148727073Y-124052532D01*
X148825736Y-124319387D01*
X149150389Y-124440000D01*
X146303711Y-124440000D01*
X146224445Y-124360734D01*
X146324264Y-124319387D01*
X146422927Y-124052532D01*
X145450000Y-123079605D01*
X144477073Y-124052532D01*
X144575736Y-124319387D01*
X144897400Y-124438889D01*
X144722569Y-124613720D01*
X144565000Y-124994126D01*
X144565000Y-125405874D01*
X144722569Y-125786280D01*
X144814350Y-125878061D01*
X144731605Y-125894520D01*
X144683462Y-125904096D01*
X144496418Y-126029076D01*
X144432071Y-126072071D01*
X144389671Y-126135527D01*
X138915528Y-131609671D01*
X138852072Y-131652071D01*
X138809672Y-131715527D01*
X138809671Y-131715528D01*
X138751518Y-131802560D01*
X138100000Y-131802560D01*
X137852235Y-131851843D01*
X137642191Y-131992191D01*
X137501843Y-132202235D01*
X137452560Y-132450000D01*
X134350395Y-132450000D01*
X134419854Y-132380541D01*
X134284496Y-132082545D01*
X133566120Y-131805934D01*
X132796573Y-131825290D01*
X132175504Y-132082545D01*
X132040146Y-132380541D01*
X130083624Y-132380541D01*
X130048157Y-132202235D01*
X129907809Y-131992191D01*
X129697765Y-131851843D01*
X129450000Y-131802560D01*
X126850000Y-131802560D01*
X126602235Y-131851843D01*
X126392191Y-131992191D01*
X126251843Y-132202235D01*
X126202560Y-132450000D01*
X118110000Y-132450000D01*
X118110000Y-124818043D01*
X118384577Y-124634577D01*
X118701740Y-124159909D01*
X118813113Y-123600000D01*
X118736445Y-123214561D01*
X123115000Y-123214561D01*
X123115000Y-123785439D01*
X123333466Y-124312862D01*
X123737138Y-124716534D01*
X124264561Y-124935000D01*
X124835439Y-124935000D01*
X125362862Y-124716534D01*
X125766534Y-124312862D01*
X125985000Y-123785439D01*
X125985000Y-123214561D01*
X129815000Y-123214561D01*
X129815000Y-123785439D01*
X130033466Y-124312862D01*
X130437138Y-124716534D01*
X130964561Y-124935000D01*
X131535439Y-124935000D01*
X132062862Y-124716534D01*
X132466534Y-124312862D01*
X132574366Y-124052532D01*
X137977073Y-124052532D01*
X138075736Y-124319387D01*
X138685461Y-124545908D01*
X139335460Y-124521856D01*
X139824264Y-124319387D01*
X139922927Y-124052532D01*
X138950000Y-123079605D01*
X137977073Y-124052532D01*
X132574366Y-124052532D01*
X132685000Y-123785439D01*
X132685000Y-123214561D01*
X132466534Y-122687138D01*
X132414857Y-122635461D01*
X137304092Y-122635461D01*
X137328144Y-123285460D01*
X137530613Y-123774264D01*
X137797468Y-123872927D01*
X138770395Y-122900000D01*
X139129605Y-122900000D01*
X140102532Y-123872927D01*
X140369387Y-123774264D01*
X140595908Y-123164539D01*
X140576331Y-122635461D01*
X143804092Y-122635461D01*
X143828144Y-123285460D01*
X144030613Y-123774264D01*
X144297468Y-123872927D01*
X145270395Y-122900000D01*
X145629605Y-122900000D01*
X146602532Y-123872927D01*
X146869387Y-123774264D01*
X147095908Y-123164539D01*
X147076331Y-122635461D01*
X148054092Y-122635461D01*
X148078144Y-123285460D01*
X148280613Y-123774264D01*
X148547468Y-123872927D01*
X149520395Y-122900000D01*
X149879605Y-122900000D01*
X150852532Y-123872927D01*
X151119387Y-123774264D01*
X151345908Y-123164539D01*
X151326331Y-122635461D01*
X154554092Y-122635461D01*
X154578144Y-123285460D01*
X154780613Y-123774264D01*
X155047468Y-123872927D01*
X156020395Y-122900000D01*
X156379605Y-122900000D01*
X157352532Y-123872927D01*
X157619387Y-123774264D01*
X157845908Y-123164539D01*
X157821856Y-122514540D01*
X157619387Y-122025736D01*
X157352532Y-121927073D01*
X156379605Y-122900000D01*
X156020395Y-122900000D01*
X155047468Y-121927073D01*
X154780613Y-122025736D01*
X154554092Y-122635461D01*
X151326331Y-122635461D01*
X151321856Y-122514540D01*
X151119387Y-122025736D01*
X150852532Y-121927073D01*
X149879605Y-122900000D01*
X149520395Y-122900000D01*
X148547468Y-121927073D01*
X148280613Y-122025736D01*
X148054092Y-122635461D01*
X147076331Y-122635461D01*
X147071856Y-122514540D01*
X146869387Y-122025736D01*
X146602532Y-121927073D01*
X145629605Y-122900000D01*
X145270395Y-122900000D01*
X144297468Y-121927073D01*
X144030613Y-122025736D01*
X143804092Y-122635461D01*
X140576331Y-122635461D01*
X140571856Y-122514540D01*
X140369387Y-122025736D01*
X140102532Y-121927073D01*
X139129605Y-122900000D01*
X138770395Y-122900000D01*
X137797468Y-121927073D01*
X137530613Y-122025736D01*
X137304092Y-122635461D01*
X132414857Y-122635461D01*
X132062862Y-122283466D01*
X131535439Y-122065000D01*
X130964561Y-122065000D01*
X130437138Y-122283466D01*
X130033466Y-122687138D01*
X129815000Y-123214561D01*
X125985000Y-123214561D01*
X125766534Y-122687138D01*
X125362862Y-122283466D01*
X124835439Y-122065000D01*
X124264561Y-122065000D01*
X123737138Y-122283466D01*
X123333466Y-122687138D01*
X123115000Y-123214561D01*
X118736445Y-123214561D01*
X118701740Y-123040091D01*
X118384577Y-122565423D01*
X117909909Y-122248260D01*
X117491333Y-122165000D01*
X117208667Y-122165000D01*
X116790091Y-122248260D01*
X116315423Y-122565423D01*
X115998260Y-123040091D01*
X115886887Y-123600000D01*
X111873168Y-123600000D01*
X111771740Y-123090091D01*
X111454577Y-122615423D01*
X110979909Y-122298260D01*
X110561333Y-122215000D01*
X110278667Y-122215000D01*
X109860091Y-122298260D01*
X109385423Y-122615423D01*
X109068260Y-123090091D01*
X108956887Y-123650000D01*
X101615961Y-123650000D01*
X101619497Y-121747468D01*
X137977073Y-121747468D01*
X138950000Y-122720395D01*
X139922927Y-121747468D01*
X144477073Y-121747468D01*
X145450000Y-122720395D01*
X146422927Y-121747468D01*
X148727073Y-121747468D01*
X149700000Y-122720395D01*
X150672927Y-121747468D01*
X155227073Y-121747468D01*
X156200000Y-122720395D01*
X157172927Y-121747468D01*
X157118405Y-121600000D01*
X158829051Y-121600000D01*
X158971469Y-122315981D01*
X159377039Y-122922961D01*
X159984019Y-123328531D01*
X160519273Y-123435000D01*
X160880727Y-123435000D01*
X161415981Y-123328531D01*
X162022961Y-122922961D01*
X162428531Y-122315981D01*
X162570949Y-121600000D01*
X162498345Y-121234996D01*
X179185000Y-121234996D01*
X179185000Y-121965004D01*
X179464362Y-122639444D01*
X179980556Y-123155638D01*
X180654996Y-123435000D01*
X181385004Y-123435000D01*
X182059444Y-123155638D01*
X182575638Y-122639444D01*
X182855000Y-121965004D01*
X182855000Y-121234996D01*
X182682880Y-120819459D01*
X188360146Y-120819459D01*
X188495504Y-121117455D01*
X189213880Y-121394066D01*
X189983427Y-121374710D01*
X190604496Y-121117455D01*
X190739854Y-120819459D01*
X189550000Y-119629605D01*
X188360146Y-120819459D01*
X182682880Y-120819459D01*
X182575638Y-120560556D01*
X182059444Y-120044362D01*
X181385004Y-119765000D01*
X180654996Y-119765000D01*
X179980556Y-120044362D01*
X179464362Y-120560556D01*
X179185000Y-121234996D01*
X162498345Y-121234996D01*
X162428531Y-120884019D01*
X162022961Y-120277039D01*
X161415981Y-119871469D01*
X160880727Y-119765000D01*
X160519273Y-119765000D01*
X159984019Y-119871469D01*
X159377039Y-120277039D01*
X158971469Y-120884019D01*
X158829051Y-121600000D01*
X157118405Y-121600000D01*
X157074264Y-121480613D01*
X156464539Y-121254092D01*
X155814540Y-121278144D01*
X155325736Y-121480613D01*
X155227073Y-121747468D01*
X150672927Y-121747468D01*
X150574264Y-121480613D01*
X149964539Y-121254092D01*
X149314540Y-121278144D01*
X148825736Y-121480613D01*
X148727073Y-121747468D01*
X146422927Y-121747468D01*
X146324264Y-121480613D01*
X145714539Y-121254092D01*
X145064540Y-121278144D01*
X144575736Y-121480613D01*
X144477073Y-121747468D01*
X139922927Y-121747468D01*
X139824264Y-121480613D01*
X139214539Y-121254092D01*
X138564540Y-121278144D01*
X138075736Y-121480613D01*
X137977073Y-121747468D01*
X101619497Y-121747468D01*
X101626323Y-118074778D01*
X137315000Y-118074778D01*
X137315000Y-118725222D01*
X137563914Y-119326153D01*
X138023847Y-119786086D01*
X138624778Y-120035000D01*
X139275222Y-120035000D01*
X139876153Y-119786086D01*
X140336086Y-119326153D01*
X140585000Y-118725222D01*
X140585000Y-118074778D01*
X143815000Y-118074778D01*
X143815000Y-118725222D01*
X144063914Y-119326153D01*
X144523847Y-119786086D01*
X145124778Y-120035000D01*
X145775222Y-120035000D01*
X146376153Y-119786086D01*
X146836086Y-119326153D01*
X147085000Y-118725222D01*
X147085000Y-118074778D01*
X146836086Y-117473847D01*
X146376153Y-117013914D01*
X145775222Y-116765000D01*
X145124778Y-116765000D01*
X144523847Y-117013914D01*
X144063914Y-117473847D01*
X143815000Y-118074778D01*
X140585000Y-118074778D01*
X140336086Y-117473847D01*
X139876153Y-117013914D01*
X139275222Y-116765000D01*
X138624778Y-116765000D01*
X138023847Y-117013914D01*
X137563914Y-117473847D01*
X137315000Y-118074778D01*
X101626323Y-118074778D01*
X101640097Y-110664561D01*
X108985000Y-110664561D01*
X108985000Y-111235439D01*
X109203466Y-111762862D01*
X109607138Y-112166534D01*
X110134561Y-112385000D01*
X110705439Y-112385000D01*
X111232862Y-112166534D01*
X111636534Y-111762862D01*
X111855000Y-111235439D01*
X111855000Y-110664561D01*
X111834290Y-110614561D01*
X115915000Y-110614561D01*
X115915000Y-111185439D01*
X116133466Y-111712862D01*
X116537138Y-112116534D01*
X117064561Y-112335000D01*
X117635439Y-112335000D01*
X118162862Y-112116534D01*
X118566534Y-111712862D01*
X118785000Y-111185439D01*
X118785000Y-110800000D01*
X123086887Y-110800000D01*
X123198260Y-111359909D01*
X123515423Y-111834577D01*
X123990091Y-112151740D01*
X124408667Y-112235000D01*
X124691333Y-112235000D01*
X125109909Y-112151740D01*
X125584577Y-111834577D01*
X125901740Y-111359909D01*
X126013113Y-110800000D01*
X129786887Y-110800000D01*
X129898260Y-111359909D01*
X130215423Y-111834577D01*
X130690091Y-112151740D01*
X131108667Y-112235000D01*
X131391333Y-112235000D01*
X131809909Y-112151740D01*
X132284577Y-111834577D01*
X132601740Y-111359909D01*
X132713113Y-110800000D01*
X132601740Y-110240091D01*
X132284577Y-109765423D01*
X131809909Y-109448260D01*
X131391333Y-109365000D01*
X131108667Y-109365000D01*
X130690091Y-109448260D01*
X130215423Y-109765423D01*
X129898260Y-110240091D01*
X129786887Y-110800000D01*
X126013113Y-110800000D01*
X125901740Y-110240091D01*
X125584577Y-109765423D01*
X125109909Y-109448260D01*
X124691333Y-109365000D01*
X124408667Y-109365000D01*
X123990091Y-109448260D01*
X123515423Y-109765423D01*
X123198260Y-110240091D01*
X123086887Y-110800000D01*
X118785000Y-110800000D01*
X118785000Y-110614561D01*
X118566534Y-110087138D01*
X118162862Y-109683466D01*
X117635439Y-109465000D01*
X117064561Y-109465000D01*
X116537138Y-109683466D01*
X116133466Y-110087138D01*
X115915000Y-110614561D01*
X111834290Y-110614561D01*
X111636534Y-110137138D01*
X111232862Y-109733466D01*
X110705439Y-109515000D01*
X110134561Y-109515000D01*
X109607138Y-109733466D01*
X109203466Y-110137138D01*
X108985000Y-110664561D01*
X101640097Y-110664561D01*
X101649842Y-105422119D01*
X108903000Y-105422119D01*
X108903000Y-105977881D01*
X109115680Y-106491337D01*
X109508663Y-106884320D01*
X110022119Y-107097000D01*
X110577881Y-107097000D01*
X111091337Y-106884320D01*
X111484320Y-106491337D01*
X111497300Y-106460000D01*
X112435199Y-106460000D01*
X114399673Y-108424476D01*
X114442071Y-108487929D01*
X114505524Y-108530327D01*
X114505526Y-108530329D01*
X114630902Y-108614102D01*
X114693463Y-108655904D01*
X114915148Y-108700000D01*
X114915152Y-108700000D01*
X114989999Y-108714888D01*
X115064846Y-108700000D01*
X131685153Y-108700000D01*
X131760000Y-108714888D01*
X131834847Y-108700000D01*
X131834852Y-108700000D01*
X132056537Y-108655904D01*
X132307929Y-108487929D01*
X132350331Y-108424470D01*
X134339802Y-106435001D01*
X143600152Y-106435001D01*
X143674999Y-106449889D01*
X143749846Y-106435001D01*
X143749851Y-106435001D01*
X143971536Y-106390905D01*
X144000503Y-106371550D01*
X143986887Y-106440000D01*
X144098260Y-106999909D01*
X144415423Y-107474577D01*
X144767758Y-107710000D01*
X144415423Y-107945423D01*
X144098260Y-108420091D01*
X143986887Y-108980000D01*
X144098260Y-109539909D01*
X144415423Y-110014577D01*
X144767758Y-110250000D01*
X144415423Y-110485423D01*
X144098260Y-110960091D01*
X143986887Y-111520000D01*
X144098260Y-112079909D01*
X144415423Y-112554577D01*
X144890091Y-112871740D01*
X145308667Y-112955000D01*
X145591333Y-112955000D01*
X146009909Y-112871740D01*
X146484577Y-112554577D01*
X146801740Y-112079909D01*
X146913113Y-111520000D01*
X146912595Y-111517397D01*
X148940000Y-113544802D01*
X148940001Y-116945091D01*
X148773847Y-117013914D01*
X148313914Y-117473847D01*
X148065000Y-118074778D01*
X148065000Y-118725222D01*
X148313914Y-119326153D01*
X148773847Y-119786086D01*
X149374778Y-120035000D01*
X150025222Y-120035000D01*
X150626153Y-119786086D01*
X151086086Y-119326153D01*
X151154909Y-119160000D01*
X154745091Y-119160000D01*
X154813914Y-119326153D01*
X155273847Y-119786086D01*
X155874778Y-120035000D01*
X156525222Y-120035000D01*
X157126153Y-119786086D01*
X157586086Y-119326153D01*
X157674012Y-119113880D01*
X187605934Y-119113880D01*
X187625290Y-119883427D01*
X187882545Y-120504496D01*
X188180541Y-120639854D01*
X189370395Y-119450000D01*
X189729605Y-119450000D01*
X190919459Y-120639854D01*
X191217455Y-120504496D01*
X191494066Y-119786120D01*
X191474710Y-119016573D01*
X191217455Y-118395504D01*
X190919459Y-118260146D01*
X189729605Y-119450000D01*
X189370395Y-119450000D01*
X188180541Y-118260146D01*
X187882545Y-118395504D01*
X187605934Y-119113880D01*
X157674012Y-119113880D01*
X157835000Y-118725222D01*
X157835000Y-118080541D01*
X188360146Y-118080541D01*
X189550000Y-119270395D01*
X190739854Y-118080541D01*
X190604496Y-117782545D01*
X189886120Y-117505934D01*
X189116573Y-117525290D01*
X188495504Y-117782545D01*
X188360146Y-118080541D01*
X157835000Y-118080541D01*
X157835000Y-118074778D01*
X157586086Y-117473847D01*
X157126153Y-117013914D01*
X156525222Y-116765000D01*
X155874778Y-116765000D01*
X155273847Y-117013914D01*
X154813914Y-117473847D01*
X154745091Y-117640000D01*
X151154909Y-117640000D01*
X151086086Y-117473847D01*
X150626153Y-117013914D01*
X150460000Y-116945091D01*
X150460000Y-113304848D01*
X150474888Y-113230000D01*
X150460000Y-113155152D01*
X150460000Y-113155148D01*
X150415904Y-112933463D01*
X150247929Y-112682071D01*
X150184473Y-112639671D01*
X146848688Y-109303887D01*
X146913113Y-108980000D01*
X146801740Y-108420091D01*
X146484577Y-107945423D01*
X146132242Y-107710000D01*
X146484577Y-107474577D01*
X146801740Y-106999909D01*
X146913113Y-106440000D01*
X146801740Y-105880091D01*
X146484577Y-105405423D01*
X146132242Y-105170000D01*
X146484577Y-104934577D01*
X146801740Y-104459909D01*
X146913113Y-103900000D01*
X146801740Y-103340091D01*
X146484577Y-102865423D01*
X146132242Y-102630000D01*
X146484577Y-102394577D01*
X146801740Y-101919909D01*
X146913113Y-101360000D01*
X146801740Y-100800091D01*
X146484577Y-100325423D01*
X146132242Y-100090000D01*
X146484577Y-99854577D01*
X146801740Y-99379909D01*
X146913113Y-98820000D01*
X146801740Y-98260091D01*
X146484577Y-97785423D01*
X146100892Y-97529053D01*
X146305134Y-97432389D01*
X146681041Y-97017423D01*
X146841904Y-96629039D01*
X146719915Y-96407000D01*
X145577000Y-96407000D01*
X145577000Y-96427000D01*
X145323000Y-96427000D01*
X145323000Y-96407000D01*
X144180085Y-96407000D01*
X144058096Y-96629039D01*
X144218959Y-97017423D01*
X144594866Y-97432389D01*
X144799108Y-97529053D01*
X144415423Y-97785423D01*
X144098260Y-98260091D01*
X143986887Y-98820000D01*
X144098260Y-99379909D01*
X144415423Y-99854577D01*
X144767758Y-100090000D01*
X144415423Y-100325423D01*
X144098260Y-100800091D01*
X143986887Y-101360000D01*
X144098260Y-101919909D01*
X144415423Y-102394577D01*
X144767758Y-102630000D01*
X144415423Y-102865423D01*
X144098260Y-103340091D01*
X143986887Y-103900000D01*
X144051312Y-104223886D01*
X143360198Y-104915001D01*
X134099845Y-104915001D01*
X134024998Y-104900113D01*
X133950151Y-104915001D01*
X133950147Y-104915001D01*
X133728462Y-104959097D01*
X133691047Y-104984097D01*
X133540525Y-105084672D01*
X133540523Y-105084674D01*
X133477070Y-105127072D01*
X133434672Y-105190525D01*
X131445199Y-107180000D01*
X115304803Y-107180000D01*
X113340331Y-105215530D01*
X113297929Y-105152071D01*
X113046537Y-104984096D01*
X112824852Y-104940000D01*
X112824847Y-104940000D01*
X112750000Y-104925112D01*
X112675153Y-104940000D01*
X111497300Y-104940000D01*
X111484320Y-104908663D01*
X111091337Y-104515680D01*
X110577881Y-104303000D01*
X110022119Y-104303000D01*
X109508663Y-104515680D01*
X109115680Y-104908663D01*
X108903000Y-105422119D01*
X101649842Y-105422119D01*
X101651993Y-104264561D01*
X127215000Y-104264561D01*
X127215000Y-104835439D01*
X127433466Y-105362862D01*
X127837138Y-105766534D01*
X128364561Y-105985000D01*
X128935439Y-105985000D01*
X129462862Y-105766534D01*
X129866534Y-105362862D01*
X130085000Y-104835439D01*
X130085000Y-104264561D01*
X129866534Y-103737138D01*
X129462862Y-103333466D01*
X129397701Y-103306475D01*
X129404005Y-103303864D01*
X129478139Y-103057745D01*
X128650000Y-102229605D01*
X127821861Y-103057745D01*
X127895995Y-103303864D01*
X127902746Y-103306290D01*
X127837138Y-103333466D01*
X127433466Y-103737138D01*
X127215000Y-104264561D01*
X101651993Y-104264561D01*
X101656512Y-101833223D01*
X127203035Y-101833223D01*
X127230222Y-102403454D01*
X127396136Y-102804005D01*
X127642255Y-102878139D01*
X128470395Y-102050000D01*
X128829605Y-102050000D01*
X129657745Y-102878139D01*
X129903864Y-102804005D01*
X130096965Y-102266777D01*
X130093997Y-102204506D01*
X134765000Y-102204506D01*
X134765000Y-102755494D01*
X134975853Y-103264540D01*
X135365460Y-103654147D01*
X135874506Y-103865000D01*
X136425494Y-103865000D01*
X136934540Y-103654147D01*
X137324147Y-103264540D01*
X137535000Y-102755494D01*
X137535000Y-102204506D01*
X137324147Y-101695460D01*
X136934540Y-101305853D01*
X136425494Y-101095000D01*
X135874506Y-101095000D01*
X135365460Y-101305853D01*
X134975853Y-101695460D01*
X134765000Y-102204506D01*
X130093997Y-102204506D01*
X130069778Y-101696546D01*
X129903864Y-101295995D01*
X129657745Y-101221861D01*
X128829605Y-102050000D01*
X128470395Y-102050000D01*
X127642255Y-101221861D01*
X127396136Y-101295995D01*
X127203035Y-101833223D01*
X101656512Y-101833223D01*
X101657982Y-101042255D01*
X127821861Y-101042255D01*
X128650000Y-101870395D01*
X129478139Y-101042255D01*
X129404005Y-100796136D01*
X128866777Y-100603035D01*
X128296546Y-100630222D01*
X127895995Y-100796136D01*
X127821861Y-101042255D01*
X101657982Y-101042255D01*
X101659997Y-99957745D01*
X127821861Y-99957745D01*
X127895995Y-100203864D01*
X128433223Y-100396965D01*
X129003454Y-100369778D01*
X129404005Y-100203864D01*
X129478139Y-99957745D01*
X128650000Y-99129605D01*
X127821861Y-99957745D01*
X101659997Y-99957745D01*
X101662274Y-98733223D01*
X127203035Y-98733223D01*
X127230222Y-99303454D01*
X127396136Y-99704005D01*
X127642255Y-99778139D01*
X128470395Y-98950000D01*
X128829605Y-98950000D01*
X129657745Y-99778139D01*
X129903864Y-99704005D01*
X130096965Y-99166777D01*
X130069778Y-98596546D01*
X129903864Y-98195995D01*
X129657745Y-98121861D01*
X128829605Y-98950000D01*
X128470395Y-98950000D01*
X127642255Y-98121861D01*
X127396136Y-98195995D01*
X127203035Y-98733223D01*
X101662274Y-98733223D01*
X101667048Y-96164561D01*
X127215000Y-96164561D01*
X127215000Y-96735439D01*
X127433466Y-97262862D01*
X127837138Y-97666534D01*
X127902299Y-97693525D01*
X127895995Y-97696136D01*
X127821861Y-97942255D01*
X128650000Y-98770395D01*
X129478139Y-97942255D01*
X129404005Y-97696136D01*
X129397254Y-97693710D01*
X129462862Y-97666534D01*
X129804890Y-97324506D01*
X134765000Y-97324506D01*
X134765000Y-97875494D01*
X134975853Y-98384540D01*
X135365460Y-98774147D01*
X135874506Y-98985000D01*
X136425494Y-98985000D01*
X136934540Y-98774147D01*
X137324147Y-98384540D01*
X137535000Y-97875494D01*
X137535000Y-97324506D01*
X137324147Y-96815460D01*
X136934540Y-96425853D01*
X136582419Y-96280000D01*
X151606887Y-96280000D01*
X151718260Y-96839909D01*
X152035423Y-97314577D01*
X152387758Y-97550000D01*
X152035423Y-97785423D01*
X151718260Y-98260091D01*
X151606887Y-98820000D01*
X151718260Y-99379909D01*
X152035423Y-99854577D01*
X152387758Y-100090000D01*
X152035423Y-100325423D01*
X151718260Y-100800091D01*
X151606887Y-101360000D01*
X151718260Y-101919909D01*
X152035423Y-102394577D01*
X152387758Y-102630000D01*
X152035423Y-102865423D01*
X151718260Y-103340091D01*
X151606887Y-103900000D01*
X151718260Y-104459909D01*
X152035423Y-104934577D01*
X152387758Y-105170000D01*
X152035423Y-105405423D01*
X151718260Y-105880091D01*
X151606887Y-106440000D01*
X151718260Y-106999909D01*
X152035423Y-107474577D01*
X152387758Y-107710000D01*
X152035423Y-107945423D01*
X151718260Y-108420091D01*
X151606887Y-108980000D01*
X151718260Y-109539909D01*
X152035423Y-110014577D01*
X152387758Y-110250000D01*
X152035423Y-110485423D01*
X151718260Y-110960091D01*
X151606887Y-111520000D01*
X151718260Y-112079909D01*
X152035423Y-112554577D01*
X152510091Y-112871740D01*
X152928667Y-112955000D01*
X153211333Y-112955000D01*
X153629909Y-112871740D01*
X154104577Y-112554577D01*
X154145144Y-112493864D01*
X168517620Y-112493864D01*
X168760682Y-113063091D01*
X169203076Y-113495973D01*
X169697020Y-113710563D01*
X169943000Y-113590594D01*
X169943000Y-112247000D01*
X168644428Y-112247000D01*
X168517620Y-112493864D01*
X154145144Y-112493864D01*
X154421740Y-112079909D01*
X154488131Y-111746136D01*
X168517620Y-111746136D01*
X168644428Y-111993000D01*
X169943000Y-111993000D01*
X169943000Y-110649406D01*
X170197000Y-110649406D01*
X170197000Y-111993000D01*
X170217000Y-111993000D01*
X170217000Y-112247000D01*
X170197000Y-112247000D01*
X170197000Y-113590594D01*
X170442980Y-113710563D01*
X170936924Y-113495973D01*
X171330841Y-113110526D01*
X171465477Y-113312023D01*
X171990589Y-113662891D01*
X172610000Y-113786100D01*
X173229410Y-113662891D01*
X173621491Y-113400912D01*
X173739691Y-113577809D01*
X173949735Y-113718157D01*
X174197500Y-113767440D01*
X176102500Y-113767440D01*
X176350265Y-113718157D01*
X176560309Y-113577809D01*
X176700657Y-113367765D01*
X176749940Y-113120000D01*
X176749940Y-111120000D01*
X176700657Y-110872235D01*
X176560309Y-110662191D01*
X176350265Y-110521843D01*
X176102500Y-110472560D01*
X174197500Y-110472560D01*
X173949735Y-110521843D01*
X173739691Y-110662191D01*
X173621491Y-110839088D01*
X173229411Y-110577109D01*
X172610000Y-110453900D01*
X171990590Y-110577109D01*
X171465477Y-110927977D01*
X171330841Y-111129474D01*
X170936924Y-110744027D01*
X170442980Y-110529437D01*
X170197000Y-110649406D01*
X169943000Y-110649406D01*
X169697020Y-110529437D01*
X169203076Y-110744027D01*
X168760682Y-111176909D01*
X168517620Y-111746136D01*
X154488131Y-111746136D01*
X154533113Y-111520000D01*
X154421740Y-110960091D01*
X154104577Y-110485423D01*
X153752242Y-110250000D01*
X154104577Y-110014577D01*
X154262140Y-109778767D01*
X154306216Y-109770000D01*
X180485199Y-109770000D01*
X185569671Y-114854473D01*
X185612071Y-114917929D01*
X185675527Y-114960329D01*
X185863462Y-115085904D01*
X185911605Y-115095480D01*
X186085148Y-115130000D01*
X186085152Y-115130000D01*
X186160000Y-115144888D01*
X186234848Y-115130000D01*
X187602560Y-115130000D01*
X187602560Y-115670000D01*
X187651843Y-115917765D01*
X187792191Y-116127809D01*
X188002235Y-116268157D01*
X188250000Y-116317440D01*
X190850000Y-116317440D01*
X191097765Y-116268157D01*
X191307809Y-116127809D01*
X191448157Y-115917765D01*
X191497440Y-115670000D01*
X191497440Y-113070000D01*
X191448157Y-112822235D01*
X191307809Y-112612191D01*
X191097765Y-112471843D01*
X190850000Y-112422560D01*
X188250000Y-112422560D01*
X188002235Y-112471843D01*
X187792191Y-112612191D01*
X187651843Y-112822235D01*
X187602560Y-113070000D01*
X187602560Y-113610000D01*
X186474802Y-113610000D01*
X182254261Y-109389459D01*
X188280146Y-109389459D01*
X188415504Y-109687455D01*
X189133880Y-109964066D01*
X189903427Y-109944710D01*
X190524496Y-109687455D01*
X190659854Y-109389459D01*
X189470000Y-108199605D01*
X188280146Y-109389459D01*
X182254261Y-109389459D01*
X181390331Y-108525530D01*
X181347929Y-108462071D01*
X181096537Y-108294096D01*
X180874852Y-108250000D01*
X180874847Y-108250000D01*
X180800000Y-108235112D01*
X180725153Y-108250000D01*
X154427042Y-108250000D01*
X154289855Y-108222712D01*
X154104577Y-107945423D01*
X153752242Y-107710000D01*
X153791333Y-107683880D01*
X187525934Y-107683880D01*
X187545290Y-108453427D01*
X187802545Y-109074496D01*
X188100541Y-109209854D01*
X189290395Y-108020000D01*
X189649605Y-108020000D01*
X190839459Y-109209854D01*
X191137455Y-109074496D01*
X191414066Y-108356120D01*
X191394710Y-107586573D01*
X191137455Y-106965504D01*
X190839459Y-106830146D01*
X189649605Y-108020000D01*
X189290395Y-108020000D01*
X188100541Y-106830146D01*
X187802545Y-106965504D01*
X187525934Y-107683880D01*
X153791333Y-107683880D01*
X154104577Y-107474577D01*
X154271379Y-107224940D01*
X154296216Y-107220000D01*
X184325153Y-107220000D01*
X184400000Y-107234888D01*
X184474847Y-107220000D01*
X184474852Y-107220000D01*
X184696537Y-107175904D01*
X184947929Y-107007929D01*
X184990331Y-106944470D01*
X185284260Y-106650541D01*
X188280146Y-106650541D01*
X189470000Y-107840395D01*
X190659854Y-106650541D01*
X190524496Y-106352545D01*
X189806120Y-106075934D01*
X189036573Y-106095290D01*
X188415504Y-106352545D01*
X188280146Y-106650541D01*
X185284260Y-106650541D01*
X187551136Y-104383665D01*
X187571843Y-104487765D01*
X187712191Y-104697809D01*
X187922235Y-104838157D01*
X188170000Y-104887440D01*
X190770000Y-104887440D01*
X191017765Y-104838157D01*
X191227809Y-104697809D01*
X191368157Y-104487765D01*
X191417440Y-104240000D01*
X191417440Y-101640000D01*
X191368157Y-101392235D01*
X191227809Y-101182191D01*
X191017765Y-101041843D01*
X190770000Y-100992560D01*
X188170000Y-100992560D01*
X187922235Y-101041843D01*
X187712191Y-101182191D01*
X187571843Y-101392235D01*
X187522560Y-101640000D01*
X187522560Y-102291517D01*
X187372071Y-102392071D01*
X187329671Y-102455527D01*
X184085199Y-105700000D01*
X154376769Y-105700000D01*
X154289855Y-105682712D01*
X154104577Y-105405423D01*
X153752242Y-105170000D01*
X154104577Y-104934577D01*
X154421740Y-104459909D01*
X154533113Y-103900000D01*
X161086887Y-103900000D01*
X161198260Y-104459909D01*
X161515423Y-104934577D01*
X161990091Y-105251740D01*
X162408667Y-105335000D01*
X162691333Y-105335000D01*
X163109909Y-105251740D01*
X163584577Y-104934577D01*
X163901740Y-104459909D01*
X164013113Y-103900000D01*
X163956336Y-103614561D01*
X173815000Y-103614561D01*
X173815000Y-104185439D01*
X174033466Y-104712862D01*
X174437138Y-105116534D01*
X174964561Y-105335000D01*
X175535439Y-105335000D01*
X176062862Y-105116534D01*
X176466534Y-104712862D01*
X176685000Y-104185439D01*
X176685000Y-103614561D01*
X176466534Y-103087138D01*
X176062862Y-102683466D01*
X175535439Y-102465000D01*
X174964561Y-102465000D01*
X174437138Y-102683466D01*
X174033466Y-103087138D01*
X173815000Y-103614561D01*
X163956336Y-103614561D01*
X163901740Y-103340091D01*
X163584577Y-102865423D01*
X163109909Y-102548260D01*
X162691333Y-102465000D01*
X162408667Y-102465000D01*
X161990091Y-102548260D01*
X161515423Y-102865423D01*
X161198260Y-103340091D01*
X161086887Y-103900000D01*
X154533113Y-103900000D01*
X154421740Y-103340091D01*
X154104577Y-102865423D01*
X153752242Y-102630000D01*
X154104577Y-102394577D01*
X154421740Y-101919909D01*
X154533113Y-101360000D01*
X154421740Y-100800091D01*
X154104577Y-100325423D01*
X153752242Y-100090000D01*
X154104577Y-99854577D01*
X154421740Y-99379909D01*
X154533113Y-98820000D01*
X154465292Y-98479039D01*
X161208096Y-98479039D01*
X161368959Y-98867423D01*
X161744866Y-99282389D01*
X162250959Y-99521914D01*
X162473000Y-99400629D01*
X162473000Y-98257000D01*
X162727000Y-98257000D01*
X162727000Y-99400629D01*
X162949041Y-99521914D01*
X163455134Y-99282389D01*
X163831041Y-98867423D01*
X163991904Y-98479039D01*
X163869915Y-98257000D01*
X162727000Y-98257000D01*
X162473000Y-98257000D01*
X161330085Y-98257000D01*
X161208096Y-98479039D01*
X154465292Y-98479039D01*
X154421740Y-98260091D01*
X154104577Y-97785423D01*
X154097900Y-97780961D01*
X161208096Y-97780961D01*
X161330085Y-98003000D01*
X162473000Y-98003000D01*
X162473000Y-96859371D01*
X162727000Y-96859371D01*
X162727000Y-98003000D01*
X163869915Y-98003000D01*
X163956961Y-97844561D01*
X173865000Y-97844561D01*
X173865000Y-98415439D01*
X174083466Y-98942862D01*
X174487138Y-99346534D01*
X175014561Y-99565000D01*
X175585439Y-99565000D01*
X176112862Y-99346534D01*
X176516534Y-98942862D01*
X176735000Y-98415439D01*
X176735000Y-97844561D01*
X176516534Y-97317138D01*
X176112862Y-96913466D01*
X175585439Y-96695000D01*
X175014561Y-96695000D01*
X174487138Y-96913466D01*
X174083466Y-97317138D01*
X173865000Y-97844561D01*
X163956961Y-97844561D01*
X163991904Y-97780961D01*
X163831041Y-97392577D01*
X163455134Y-96977611D01*
X162949041Y-96738086D01*
X162727000Y-96859371D01*
X162473000Y-96859371D01*
X162250959Y-96738086D01*
X161744866Y-96977611D01*
X161368959Y-97392577D01*
X161208096Y-97780961D01*
X154097900Y-97780961D01*
X153752242Y-97550000D01*
X154104577Y-97314577D01*
X154421740Y-96839909D01*
X154528119Y-96305105D01*
X187605000Y-96305105D01*
X187605000Y-97074895D01*
X187899586Y-97786090D01*
X188443910Y-98330414D01*
X189155105Y-98625000D01*
X189924895Y-98625000D01*
X190636090Y-98330414D01*
X191180414Y-97786090D01*
X191475000Y-97074895D01*
X191475000Y-96305105D01*
X191180414Y-95593910D01*
X190636090Y-95049586D01*
X189924895Y-94755000D01*
X189155105Y-94755000D01*
X188443910Y-95049586D01*
X187899586Y-95593910D01*
X187605000Y-96305105D01*
X154528119Y-96305105D01*
X154533113Y-96280000D01*
X154421740Y-95720091D01*
X154104577Y-95245423D01*
X153720892Y-94989053D01*
X153925134Y-94892389D01*
X154301041Y-94477423D01*
X154461904Y-94089039D01*
X154339915Y-93867000D01*
X153197000Y-93867000D01*
X153197000Y-93887000D01*
X152943000Y-93887000D01*
X152943000Y-93867000D01*
X151800085Y-93867000D01*
X151678096Y-94089039D01*
X151838959Y-94477423D01*
X152214866Y-94892389D01*
X152419108Y-94989053D01*
X152035423Y-95245423D01*
X151718260Y-95720091D01*
X151606887Y-96280000D01*
X136582419Y-96280000D01*
X136425494Y-96215000D01*
X135874506Y-96215000D01*
X135365460Y-96425853D01*
X134975853Y-96815460D01*
X134765000Y-97324506D01*
X129804890Y-97324506D01*
X129866534Y-97262862D01*
X130085000Y-96735439D01*
X130085000Y-96164561D01*
X129866534Y-95637138D01*
X129462862Y-95233466D01*
X128935439Y-95015000D01*
X128364561Y-95015000D01*
X127837138Y-95233466D01*
X127433466Y-95637138D01*
X127215000Y-96164561D01*
X101667048Y-96164561D01*
X101677346Y-90624561D01*
X127245000Y-90624561D01*
X127245000Y-91195439D01*
X127463466Y-91722862D01*
X127867138Y-92126534D01*
X128394561Y-92345000D01*
X128965439Y-92345000D01*
X129492862Y-92126534D01*
X129896534Y-91722862D01*
X130115000Y-91195439D01*
X130115000Y-90624561D01*
X129896534Y-90097138D01*
X129492862Y-89693466D01*
X128965439Y-89475000D01*
X128394561Y-89475000D01*
X127867138Y-89693466D01*
X127463466Y-90097138D01*
X127245000Y-90624561D01*
X101677346Y-90624561D01*
X101684678Y-86680213D01*
X109499392Y-86680213D01*
X109568857Y-86922397D01*
X110092302Y-87109144D01*
X110647368Y-87081362D01*
X111031143Y-86922397D01*
X111088469Y-86722532D01*
X116057073Y-86722532D01*
X116155736Y-86989387D01*
X116765461Y-87215908D01*
X117415460Y-87191856D01*
X117904264Y-86989387D01*
X118002927Y-86722532D01*
X122557073Y-86722532D01*
X122655736Y-86989387D01*
X123265461Y-87215908D01*
X123915460Y-87191856D01*
X124404264Y-86989387D01*
X124502927Y-86722532D01*
X123530000Y-85749605D01*
X122557073Y-86722532D01*
X118002927Y-86722532D01*
X117030000Y-85749605D01*
X116057073Y-86722532D01*
X111088469Y-86722532D01*
X111100608Y-86680213D01*
X110300000Y-85879605D01*
X109499392Y-86680213D01*
X101684678Y-86680213D01*
X101686886Y-85492302D01*
X108890856Y-85492302D01*
X108918638Y-86047368D01*
X109077603Y-86431143D01*
X109319787Y-86500608D01*
X110120395Y-85700000D01*
X110479605Y-85700000D01*
X111280213Y-86500608D01*
X111522397Y-86431143D01*
X111709144Y-85907698D01*
X111681362Y-85352632D01*
X111661824Y-85305461D01*
X115384092Y-85305461D01*
X115408144Y-85955460D01*
X115610613Y-86444264D01*
X115877468Y-86542927D01*
X116850395Y-85570000D01*
X117209605Y-85570000D01*
X118182532Y-86542927D01*
X118449387Y-86444264D01*
X118675908Y-85834539D01*
X118656331Y-85305461D01*
X121884092Y-85305461D01*
X121908144Y-85955460D01*
X122110613Y-86444264D01*
X122377468Y-86542927D01*
X123350395Y-85570000D01*
X123709605Y-85570000D01*
X124682532Y-86542927D01*
X124949387Y-86444264D01*
X125175908Y-85834539D01*
X125151856Y-85184540D01*
X124949387Y-84695736D01*
X124682532Y-84597073D01*
X123709605Y-85570000D01*
X123350395Y-85570000D01*
X122377468Y-84597073D01*
X122110613Y-84695736D01*
X121884092Y-85305461D01*
X118656331Y-85305461D01*
X118651856Y-85184540D01*
X118449387Y-84695736D01*
X118182532Y-84597073D01*
X117209605Y-85570000D01*
X116850395Y-85570000D01*
X115877468Y-84597073D01*
X115610613Y-84695736D01*
X115384092Y-85305461D01*
X111661824Y-85305461D01*
X111522397Y-84968857D01*
X111280213Y-84899392D01*
X110479605Y-85700000D01*
X110120395Y-85700000D01*
X109319787Y-84899392D01*
X109077603Y-84968857D01*
X108890856Y-85492302D01*
X101686886Y-85492302D01*
X101688321Y-84719787D01*
X109499392Y-84719787D01*
X110300000Y-85520395D01*
X111100608Y-84719787D01*
X111031143Y-84477603D01*
X110862587Y-84417468D01*
X116057073Y-84417468D01*
X117030000Y-85390395D01*
X118002927Y-84417468D01*
X122557073Y-84417468D01*
X123530000Y-85390395D01*
X124502927Y-84417468D01*
X124404264Y-84150613D01*
X123794539Y-83924092D01*
X123144540Y-83948144D01*
X122655736Y-84150613D01*
X122557073Y-84417468D01*
X118002927Y-84417468D01*
X117904264Y-84150613D01*
X117294539Y-83924092D01*
X116644540Y-83948144D01*
X116155736Y-84150613D01*
X116057073Y-84417468D01*
X110862587Y-84417468D01*
X110507698Y-84290856D01*
X109952632Y-84318638D01*
X109568857Y-84477603D01*
X109499392Y-84719787D01*
X101688321Y-84719787D01*
X101695710Y-80744778D01*
X115395000Y-80744778D01*
X115395000Y-81395222D01*
X115643914Y-81996153D01*
X116103847Y-82456086D01*
X116704778Y-82705000D01*
X117355222Y-82705000D01*
X117956153Y-82456086D01*
X118416086Y-81996153D01*
X118665000Y-81395222D01*
X118665000Y-80744778D01*
X121895000Y-80744778D01*
X121895000Y-81395222D01*
X122143914Y-81996153D01*
X122603847Y-82456086D01*
X123204778Y-82705000D01*
X123855222Y-82705000D01*
X124456153Y-82456086D01*
X124916086Y-81996153D01*
X125165000Y-81395222D01*
X125165000Y-80744778D01*
X124916086Y-80143847D01*
X124456153Y-79683914D01*
X123855222Y-79435000D01*
X123204778Y-79435000D01*
X122603847Y-79683914D01*
X122143914Y-80143847D01*
X121895000Y-80744778D01*
X118665000Y-80744778D01*
X118416086Y-80143847D01*
X117956153Y-79683914D01*
X117355222Y-79435000D01*
X116704778Y-79435000D01*
X116103847Y-79683914D01*
X115643914Y-80143847D01*
X115395000Y-80744778D01*
X101695710Y-80744778D01*
X101700421Y-78210000D01*
X127216887Y-78210000D01*
X127328260Y-78769909D01*
X127645423Y-79244577D01*
X128120091Y-79561740D01*
X128538667Y-79645000D01*
X128821333Y-79645000D01*
X129239909Y-79561740D01*
X129714577Y-79244577D01*
X130031740Y-78769909D01*
X130143113Y-78210000D01*
X130031740Y-77650091D01*
X129714577Y-77175423D01*
X129239909Y-76858260D01*
X128821333Y-76775000D01*
X128538667Y-76775000D01*
X128120091Y-76858260D01*
X127645423Y-77175423D01*
X127328260Y-77650091D01*
X127216887Y-78210000D01*
X101700421Y-78210000D01*
X101706339Y-75026890D01*
X108558524Y-75026890D01*
X108728355Y-75436924D01*
X109118642Y-75865183D01*
X109643108Y-76111486D01*
X109873000Y-75990819D01*
X109873000Y-74797000D01*
X110127000Y-74797000D01*
X110127000Y-75990819D01*
X110356892Y-76111486D01*
X110881358Y-75865183D01*
X111271645Y-75436924D01*
X111441476Y-75026890D01*
X111320155Y-74797000D01*
X110127000Y-74797000D01*
X109873000Y-74797000D01*
X108679845Y-74797000D01*
X108558524Y-75026890D01*
X101706339Y-75026890D01*
X101716445Y-69590000D01*
X108485908Y-69590000D01*
X108601161Y-70169418D01*
X108929375Y-70660625D01*
X109227761Y-70860000D01*
X108929375Y-71059375D01*
X108601161Y-71550582D01*
X108485908Y-72130000D01*
X108601161Y-72709418D01*
X108929375Y-73200625D01*
X109248478Y-73413843D01*
X109118642Y-73474817D01*
X108728355Y-73903076D01*
X108558524Y-74313110D01*
X108679845Y-74543000D01*
X109873000Y-74543000D01*
X109873000Y-74523000D01*
X110127000Y-74523000D01*
X110127000Y-74543000D01*
X111320155Y-74543000D01*
X111441476Y-74313110D01*
X111271645Y-73903076D01*
X110881358Y-73474817D01*
X110751522Y-73413843D01*
X111070625Y-73200625D01*
X111398839Y-72709418D01*
X111514092Y-72130000D01*
X111398839Y-71550582D01*
X111070625Y-71059375D01*
X110772239Y-70860000D01*
X111070625Y-70660625D01*
X111278178Y-70350000D01*
X126065199Y-70350000D01*
X144051312Y-88336114D01*
X143986887Y-88660000D01*
X144098260Y-89219909D01*
X144415423Y-89694577D01*
X144767758Y-89930000D01*
X144415423Y-90165423D01*
X144098260Y-90640091D01*
X143986887Y-91200000D01*
X144098260Y-91759909D01*
X144415423Y-92234577D01*
X144767758Y-92470000D01*
X144415423Y-92705423D01*
X144098260Y-93180091D01*
X143986887Y-93740000D01*
X144098260Y-94299909D01*
X144415423Y-94774577D01*
X144799108Y-95030947D01*
X144594866Y-95127611D01*
X144218959Y-95542577D01*
X144058096Y-95930961D01*
X144180085Y-96153000D01*
X145323000Y-96153000D01*
X145323000Y-96133000D01*
X145577000Y-96133000D01*
X145577000Y-96153000D01*
X146719915Y-96153000D01*
X146841904Y-95930961D01*
X146681041Y-95542577D01*
X146305134Y-95127611D01*
X146100892Y-95030947D01*
X146484577Y-94774577D01*
X146801740Y-94299909D01*
X146913113Y-93740000D01*
X146801740Y-93180091D01*
X146484577Y-92705423D01*
X146132242Y-92470000D01*
X146484577Y-92234577D01*
X146801740Y-91759909D01*
X146913113Y-91200000D01*
X146801740Y-90640091D01*
X146484577Y-90165423D01*
X146132242Y-89930000D01*
X146484577Y-89694577D01*
X146801740Y-89219909D01*
X146913113Y-88660000D01*
X146801740Y-88100091D01*
X146484577Y-87625423D01*
X146132242Y-87390000D01*
X146484577Y-87154577D01*
X146801740Y-86679909D01*
X146913113Y-86120000D01*
X146801740Y-85560091D01*
X146484577Y-85085423D01*
X146132242Y-84850000D01*
X146484577Y-84614577D01*
X146801740Y-84139909D01*
X146913113Y-83580000D01*
X146848688Y-83256113D01*
X151607405Y-78497397D01*
X151606887Y-78500000D01*
X151718260Y-79059909D01*
X152035423Y-79534577D01*
X152387758Y-79770000D01*
X152035423Y-80005423D01*
X151718260Y-80480091D01*
X151606887Y-81040000D01*
X151718260Y-81599909D01*
X152035423Y-82074577D01*
X152387758Y-82310000D01*
X152035423Y-82545423D01*
X151718260Y-83020091D01*
X151606887Y-83580000D01*
X151718260Y-84139909D01*
X152035423Y-84614577D01*
X152387758Y-84850000D01*
X152035423Y-85085423D01*
X151718260Y-85560091D01*
X151606887Y-86120000D01*
X151718260Y-86679909D01*
X152035423Y-87154577D01*
X152387758Y-87390000D01*
X152035423Y-87625423D01*
X151718260Y-88100091D01*
X151606887Y-88660000D01*
X151718260Y-89219909D01*
X152035423Y-89694577D01*
X152387758Y-89930000D01*
X152035423Y-90165423D01*
X151718260Y-90640091D01*
X151606887Y-91200000D01*
X151718260Y-91759909D01*
X152035423Y-92234577D01*
X152419108Y-92490947D01*
X152214866Y-92587611D01*
X151838959Y-93002577D01*
X151678096Y-93390961D01*
X151800085Y-93613000D01*
X152943000Y-93613000D01*
X152943000Y-93593000D01*
X153197000Y-93593000D01*
X153197000Y-93613000D01*
X154339915Y-93613000D01*
X154461904Y-93390961D01*
X154301041Y-93002577D01*
X153925134Y-92587611D01*
X153720892Y-92490947D01*
X154104577Y-92234577D01*
X154421740Y-91759909D01*
X154533113Y-91200000D01*
X154421740Y-90640091D01*
X154104577Y-90165423D01*
X153752242Y-89930000D01*
X154104577Y-89694577D01*
X154421740Y-89219909D01*
X154533113Y-88660000D01*
X154421740Y-88100091D01*
X154104577Y-87625423D01*
X153752242Y-87390000D01*
X154104577Y-87154577D01*
X154421740Y-86679909D01*
X154533113Y-86120000D01*
X154421740Y-85560091D01*
X154104577Y-85085423D01*
X153752242Y-84850000D01*
X154104577Y-84614577D01*
X154421740Y-84139909D01*
X154533113Y-83580000D01*
X154421740Y-83020091D01*
X154104577Y-82545423D01*
X153752242Y-82310000D01*
X154104577Y-82074577D01*
X154421740Y-81599909D01*
X154533113Y-81040000D01*
X154421740Y-80480091D01*
X154104577Y-80005423D01*
X153752242Y-79770000D01*
X154104577Y-79534577D01*
X154421740Y-79059909D01*
X154533113Y-78500000D01*
X154421740Y-77940091D01*
X154104577Y-77465423D01*
X153629909Y-77148260D01*
X153211333Y-77065000D01*
X153039802Y-77065000D01*
X156495000Y-73609801D01*
X169853792Y-86968594D01*
X169780909Y-87335001D01*
X169896162Y-87914419D01*
X170224376Y-88405626D01*
X170522762Y-88605001D01*
X170224376Y-88804376D01*
X169896162Y-89295583D01*
X169780909Y-89875001D01*
X169896162Y-90454419D01*
X170224376Y-90945626D01*
X170715583Y-91273840D01*
X171148745Y-91360001D01*
X171441257Y-91360001D01*
X171874419Y-91273840D01*
X172365626Y-90945626D01*
X172693840Y-90454419D01*
X172722566Y-90310000D01*
X187592560Y-90310000D01*
X187592560Y-92910000D01*
X187641843Y-93157765D01*
X187782191Y-93367809D01*
X187992235Y-93508157D01*
X188240000Y-93557440D01*
X190840000Y-93557440D01*
X191087765Y-93508157D01*
X191297809Y-93367809D01*
X191438157Y-93157765D01*
X191487440Y-92910000D01*
X191487440Y-90310000D01*
X191438157Y-90062235D01*
X191297809Y-89852191D01*
X191087765Y-89711843D01*
X190840000Y-89662560D01*
X188240000Y-89662560D01*
X187992235Y-89711843D01*
X187782191Y-89852191D01*
X187641843Y-90062235D01*
X187592560Y-90310000D01*
X172722566Y-90310000D01*
X172809093Y-89875001D01*
X172693840Y-89295583D01*
X172365626Y-88804376D01*
X172067240Y-88605001D01*
X172365626Y-88405626D01*
X172693840Y-87914419D01*
X172809093Y-87335001D01*
X172693840Y-86755583D01*
X172365626Y-86264376D01*
X172067240Y-86065001D01*
X172365626Y-85865626D01*
X172693840Y-85374419D01*
X172809093Y-84795001D01*
X172693840Y-84215583D01*
X172365626Y-83724376D01*
X172067240Y-83525001D01*
X172365626Y-83325626D01*
X172693840Y-82834419D01*
X172809093Y-82255001D01*
X172693840Y-81675583D01*
X172507129Y-81396150D01*
X181912500Y-81396150D01*
X181912500Y-81803849D01*
X182004609Y-82266910D01*
X182355477Y-82792023D01*
X182880589Y-83142891D01*
X183500000Y-83266100D01*
X184119410Y-83142891D01*
X184644523Y-82792023D01*
X184779159Y-82590526D01*
X185173076Y-82975973D01*
X185667020Y-83190563D01*
X185913000Y-83070594D01*
X185913000Y-81727000D01*
X185893000Y-81727000D01*
X185893000Y-81473000D01*
X185913000Y-81473000D01*
X185913000Y-80129406D01*
X186167000Y-80129406D01*
X186167000Y-81473000D01*
X186187000Y-81473000D01*
X186187000Y-81727000D01*
X186167000Y-81727000D01*
X186167000Y-83070594D01*
X186412980Y-83190563D01*
X186906924Y-82975973D01*
X187032745Y-82852857D01*
X187169691Y-83057809D01*
X187379735Y-83198157D01*
X187627500Y-83247440D01*
X189532500Y-83247440D01*
X189780265Y-83198157D01*
X189990309Y-83057809D01*
X190130657Y-82847765D01*
X190179940Y-82600000D01*
X190179940Y-80600000D01*
X190130657Y-80352235D01*
X189990309Y-80142191D01*
X189780265Y-80001843D01*
X189532500Y-79952560D01*
X187627500Y-79952560D01*
X187379735Y-80001843D01*
X187169691Y-80142191D01*
X187032745Y-80347143D01*
X186906924Y-80224027D01*
X186412980Y-80009437D01*
X186167000Y-80129406D01*
X185913000Y-80129406D01*
X185667020Y-80009437D01*
X185173076Y-80224027D01*
X184779159Y-80609474D01*
X184644523Y-80407977D01*
X184119411Y-80057109D01*
X183500000Y-79933900D01*
X182880590Y-80057109D01*
X182355477Y-80407977D01*
X182004609Y-80933089D01*
X181912500Y-81396150D01*
X172507129Y-81396150D01*
X172365626Y-81184376D01*
X172067240Y-80985001D01*
X172365626Y-80785626D01*
X172693840Y-80294419D01*
X172809093Y-79715001D01*
X172693840Y-79135583D01*
X172365626Y-78644376D01*
X172343968Y-78629905D01*
X172504699Y-78563328D01*
X172683328Y-78384700D01*
X172780001Y-78151311D01*
X172780001Y-77460751D01*
X172621251Y-77302001D01*
X171422001Y-77302001D01*
X171422001Y-77322001D01*
X171168001Y-77322001D01*
X171168001Y-77302001D01*
X169968751Y-77302001D01*
X169810001Y-77460751D01*
X169810001Y-78151311D01*
X169906674Y-78384700D01*
X170085303Y-78563328D01*
X170246034Y-78629905D01*
X170224376Y-78644376D01*
X169896162Y-79135583D01*
X169780909Y-79715001D01*
X169896162Y-80294419D01*
X170224376Y-80785626D01*
X170522762Y-80985001D01*
X170224376Y-81184376D01*
X169896162Y-81675583D01*
X169780909Y-82255001D01*
X169896162Y-82834419D01*
X170224376Y-83325626D01*
X170522762Y-83525001D01*
X170224376Y-83724376D01*
X170173395Y-83800674D01*
X162571412Y-76198691D01*
X169810001Y-76198691D01*
X169810001Y-76889251D01*
X169968751Y-77048001D01*
X171168001Y-77048001D01*
X171168001Y-75848751D01*
X171422001Y-75848751D01*
X171422001Y-77048001D01*
X172621251Y-77048001D01*
X172780001Y-76889251D01*
X172780001Y-76198691D01*
X172683328Y-75965302D01*
X172504699Y-75786674D01*
X172271310Y-75690001D01*
X171580751Y-75690001D01*
X171422001Y-75848751D01*
X171168001Y-75848751D01*
X171009251Y-75690001D01*
X170318692Y-75690001D01*
X170085303Y-75786674D01*
X169906674Y-75965302D01*
X169810001Y-76198691D01*
X162571412Y-76198691D01*
X157668250Y-71295530D01*
X157625848Y-71232071D01*
X157451762Y-71115750D01*
X182635000Y-71115750D01*
X182635000Y-72256310D01*
X182731673Y-72489699D01*
X182910302Y-72668327D01*
X183143691Y-72765000D01*
X184284250Y-72765000D01*
X184443000Y-72606250D01*
X184443000Y-70957000D01*
X184697000Y-70957000D01*
X184697000Y-72606250D01*
X184855750Y-72765000D01*
X185996309Y-72765000D01*
X186229698Y-72668327D01*
X186408327Y-72489699D01*
X186505000Y-72256310D01*
X186505000Y-71115750D01*
X186346250Y-70957000D01*
X184697000Y-70957000D01*
X184443000Y-70957000D01*
X182793750Y-70957000D01*
X182635000Y-71115750D01*
X157451762Y-71115750D01*
X157374456Y-71064096D01*
X157152771Y-71020000D01*
X157152766Y-71020000D01*
X157077919Y-71005112D01*
X157003072Y-71020000D01*
X154784848Y-71020000D01*
X154710000Y-71005112D01*
X154635152Y-71020000D01*
X154635148Y-71020000D01*
X154413463Y-71064096D01*
X154162071Y-71232071D01*
X154119671Y-71295527D01*
X146897440Y-78517759D01*
X146897440Y-77700000D01*
X146848157Y-77452235D01*
X146707809Y-77242191D01*
X146497765Y-77101843D01*
X146250000Y-77052560D01*
X144650000Y-77052560D01*
X144402235Y-77101843D01*
X144192191Y-77242191D01*
X144051843Y-77452235D01*
X144002560Y-77700000D01*
X144002560Y-79300000D01*
X144051843Y-79547765D01*
X144192191Y-79757809D01*
X144402235Y-79898157D01*
X144536106Y-79924785D01*
X144415423Y-80005423D01*
X144098260Y-80480091D01*
X143986887Y-81040000D01*
X144098260Y-81599909D01*
X144415423Y-82074577D01*
X144767758Y-82310000D01*
X144415423Y-82545423D01*
X144098260Y-83020091D01*
X143986887Y-83580000D01*
X143987405Y-83582603D01*
X129808492Y-69403690D01*
X182635000Y-69403690D01*
X182635000Y-70544250D01*
X182793750Y-70703000D01*
X184443000Y-70703000D01*
X184443000Y-69053750D01*
X184697000Y-69053750D01*
X184697000Y-70703000D01*
X186346250Y-70703000D01*
X186505000Y-70544250D01*
X186505000Y-70445105D01*
X187715000Y-70445105D01*
X187715000Y-71214895D01*
X188009586Y-71926090D01*
X188553910Y-72470414D01*
X189265105Y-72765000D01*
X190034895Y-72765000D01*
X190746090Y-72470414D01*
X191290414Y-71926090D01*
X191585000Y-71214895D01*
X191585000Y-70445105D01*
X191290414Y-69733910D01*
X190746090Y-69189586D01*
X190034895Y-68895000D01*
X189265105Y-68895000D01*
X188553910Y-69189586D01*
X188009586Y-69733910D01*
X187715000Y-70445105D01*
X186505000Y-70445105D01*
X186505000Y-69403690D01*
X186408327Y-69170301D01*
X186229698Y-68991673D01*
X185996309Y-68895000D01*
X184855750Y-68895000D01*
X184697000Y-69053750D01*
X184443000Y-69053750D01*
X184284250Y-68895000D01*
X183143691Y-68895000D01*
X182910302Y-68991673D01*
X182731673Y-69170301D01*
X182635000Y-69403690D01*
X129808492Y-69403690D01*
X127569363Y-67164561D01*
X159675000Y-67164561D01*
X159675000Y-67735439D01*
X159893466Y-68262862D01*
X160297138Y-68666534D01*
X160824561Y-68885000D01*
X161395439Y-68885000D01*
X161922862Y-68666534D01*
X162326534Y-68262862D01*
X162360000Y-68182068D01*
X162393466Y-68262862D01*
X162797138Y-68666534D01*
X163324561Y-68885000D01*
X163895439Y-68885000D01*
X164422862Y-68666534D01*
X164826534Y-68262862D01*
X165045000Y-67735439D01*
X165045000Y-67164561D01*
X164826534Y-66637138D01*
X164422862Y-66233466D01*
X163895439Y-66015000D01*
X163324561Y-66015000D01*
X162797138Y-66233466D01*
X162393466Y-66637138D01*
X162360000Y-66717932D01*
X162326534Y-66637138D01*
X161922862Y-66233466D01*
X161395439Y-66015000D01*
X160824561Y-66015000D01*
X160297138Y-66233466D01*
X159893466Y-66637138D01*
X159675000Y-67164561D01*
X127569363Y-67164561D01*
X126970331Y-66565530D01*
X126927929Y-66502071D01*
X126676537Y-66334096D01*
X126454852Y-66290000D01*
X126454847Y-66290000D01*
X126380000Y-66275112D01*
X126305153Y-66290000D01*
X111497440Y-66290000D01*
X111497440Y-66200000D01*
X111448157Y-65952235D01*
X111307809Y-65742191D01*
X111097765Y-65601843D01*
X110850000Y-65552560D01*
X109150000Y-65552560D01*
X108902235Y-65601843D01*
X108692191Y-65742191D01*
X108551843Y-65952235D01*
X108502560Y-66200000D01*
X108502560Y-67900000D01*
X108551843Y-68147765D01*
X108692191Y-68357809D01*
X108902235Y-68498157D01*
X108947619Y-68507184D01*
X108929375Y-68519375D01*
X108601161Y-69010582D01*
X108485908Y-69590000D01*
X101716445Y-69590000D01*
X101728837Y-62923261D01*
X196963675Y-62923261D01*
X196836089Y-143174434D01*
X196836089Y-143174434D01*
G37*
X196836089Y-143174434D02*
X101579818Y-143095571D01*
X101615961Y-123650000D01*
X108956887Y-123650000D01*
X109068260Y-124209909D01*
X109385423Y-124684577D01*
X109860091Y-125001740D01*
X110278667Y-125085000D01*
X110561333Y-125085000D01*
X110979909Y-125001740D01*
X111454577Y-124684577D01*
X111771740Y-124209909D01*
X111883113Y-123650000D01*
X111873168Y-123600000D01*
X115886887Y-123600000D01*
X115998260Y-124159909D01*
X116315423Y-124634577D01*
X116590001Y-124818044D01*
X116590000Y-134165153D01*
X116575112Y-134240000D01*
X116590000Y-134314847D01*
X116590000Y-134314851D01*
X116634096Y-134536536D01*
X116802071Y-134787929D01*
X116865530Y-134830331D01*
X120659671Y-138624473D01*
X120702071Y-138687929D01*
X120953463Y-138855904D01*
X121175148Y-138900000D01*
X121175153Y-138900000D01*
X121250000Y-138914888D01*
X121324847Y-138900000D01*
X147735153Y-138900000D01*
X147810000Y-138914888D01*
X147884847Y-138900000D01*
X147884852Y-138900000D01*
X148106537Y-138855904D01*
X148357929Y-138687929D01*
X148400331Y-138624470D01*
X151134473Y-135890329D01*
X151197929Y-135847929D01*
X151298483Y-135697440D01*
X151950000Y-135697440D01*
X152197765Y-135648157D01*
X152407809Y-135507809D01*
X152548157Y-135297765D01*
X152583623Y-135119459D01*
X154540146Y-135119459D01*
X154675504Y-135417455D01*
X155393880Y-135694066D01*
X156163427Y-135674710D01*
X156784496Y-135417455D01*
X156919854Y-135119459D01*
X155730000Y-133929605D01*
X154540146Y-135119459D01*
X152583623Y-135119459D01*
X152597440Y-135050000D01*
X152597440Y-133413880D01*
X153785934Y-133413880D01*
X153805290Y-134183427D01*
X154062545Y-134804496D01*
X154360541Y-134939854D01*
X155550395Y-133750000D01*
X155909605Y-133750000D01*
X157099459Y-134939854D01*
X157397455Y-134804496D01*
X157674066Y-134086120D01*
X157654710Y-133316573D01*
X157397455Y-132695504D01*
X157099459Y-132560146D01*
X155909605Y-133750000D01*
X155550395Y-133750000D01*
X154360541Y-132560146D01*
X154062545Y-132695504D01*
X153785934Y-133413880D01*
X152597440Y-133413880D01*
X152597440Y-132450000D01*
X152583624Y-132380541D01*
X154540146Y-132380541D01*
X155730000Y-133570395D01*
X156919854Y-132380541D01*
X156784496Y-132082545D01*
X156066120Y-131805934D01*
X155296573Y-131825290D01*
X154675504Y-132082545D01*
X154540146Y-132380541D01*
X152583624Y-132380541D01*
X152548157Y-132202235D01*
X152407809Y-131992191D01*
X152197765Y-131851843D01*
X151950000Y-131802560D01*
X149350000Y-131802560D01*
X149102235Y-131851843D01*
X148892191Y-131992191D01*
X148751843Y-132202235D01*
X148702560Y-132450000D01*
X148702560Y-135050000D01*
X148751843Y-135297765D01*
X148892191Y-135507809D01*
X149102235Y-135648157D01*
X149206335Y-135668864D01*
X147495199Y-137380000D01*
X121564802Y-137380000D01*
X118110000Y-133925199D01*
X118110000Y-132450000D01*
X126202560Y-132450000D01*
X126202560Y-135050000D01*
X126251843Y-135297765D01*
X126392191Y-135507809D01*
X126602235Y-135648157D01*
X126850000Y-135697440D01*
X129450000Y-135697440D01*
X129697765Y-135648157D01*
X129907809Y-135507809D01*
X130048157Y-135297765D01*
X130083623Y-135119459D01*
X132040146Y-135119459D01*
X132175504Y-135417455D01*
X132893880Y-135694066D01*
X133663427Y-135674710D01*
X134284496Y-135417455D01*
X134419854Y-135119459D01*
X133230000Y-133929605D01*
X132040146Y-135119459D01*
X130083623Y-135119459D01*
X130097440Y-135050000D01*
X130097440Y-133413880D01*
X131285934Y-133413880D01*
X131305290Y-134183427D01*
X131562545Y-134804496D01*
X131860541Y-134939854D01*
X133050395Y-133750000D01*
X133409605Y-133750000D01*
X134599459Y-134939854D01*
X134897455Y-134804496D01*
X135174066Y-134086120D01*
X135154710Y-133316573D01*
X134897455Y-132695504D01*
X134599459Y-132560146D01*
X133409605Y-133750000D01*
X133050395Y-133750000D01*
X131860541Y-132560146D01*
X131562545Y-132695504D01*
X131285934Y-133413880D01*
X130097440Y-133413880D01*
X130097440Y-132450000D01*
X130083624Y-132380541D01*
X132040146Y-132380541D01*
X133230000Y-133570395D01*
X134350395Y-132450000D01*
X137452560Y-132450000D01*
X137452560Y-135050000D01*
X137501843Y-135297765D01*
X137642191Y-135507809D01*
X137852235Y-135648157D01*
X138100000Y-135697440D01*
X140700000Y-135697440D01*
X140947765Y-135648157D01*
X141157809Y-135507809D01*
X141298157Y-135297765D01*
X141347440Y-135050000D01*
X141347440Y-133365105D01*
X142545000Y-133365105D01*
X142545000Y-134134895D01*
X142839586Y-134846090D01*
X143383910Y-135390414D01*
X144095105Y-135685000D01*
X144864895Y-135685000D01*
X145576090Y-135390414D01*
X146120414Y-134846090D01*
X146415000Y-134134895D01*
X146415000Y-133365105D01*
X146120414Y-132653910D01*
X145576090Y-132109586D01*
X144864895Y-131815000D01*
X144095105Y-131815000D01*
X143383910Y-132109586D01*
X142839586Y-132653910D01*
X142545000Y-133365105D01*
X141347440Y-133365105D01*
X141347440Y-132450000D01*
X141298157Y-132202235D01*
X141157809Y-131992191D01*
X140947765Y-131851843D01*
X140843665Y-131831136D01*
X145294802Y-127380000D01*
X157285199Y-127380000D01*
X161140000Y-131234803D01*
X161140000Y-131802560D01*
X160600000Y-131802560D01*
X160352235Y-131851843D01*
X160142191Y-131992191D01*
X160001843Y-132202235D01*
X159952560Y-132450000D01*
X159952560Y-135050000D01*
X160001843Y-135297765D01*
X160142191Y-135507809D01*
X160352235Y-135648157D01*
X160600000Y-135697440D01*
X163200000Y-135697440D01*
X163447765Y-135648157D01*
X163657809Y-135507809D01*
X163798157Y-135297765D01*
X163847440Y-135050000D01*
X163847440Y-132450000D01*
X163798157Y-132202235D01*
X163657809Y-131992191D01*
X163447765Y-131851843D01*
X163200000Y-131802560D01*
X162660000Y-131802560D01*
X162660000Y-130994846D01*
X162674888Y-130919999D01*
X162660000Y-130845152D01*
X162660000Y-130845148D01*
X162615904Y-130623463D01*
X162574102Y-130560902D01*
X162490329Y-130435526D01*
X162490327Y-130435524D01*
X162447929Y-130372071D01*
X162384476Y-130329673D01*
X158190331Y-126135530D01*
X158147929Y-126072071D01*
X157980203Y-125960000D01*
X158115199Y-125960000D01*
X165184213Y-133029015D01*
X165045000Y-133365105D01*
X165045000Y-134134895D01*
X165339586Y-134846090D01*
X165883910Y-135390414D01*
X166595105Y-135685000D01*
X167364895Y-135685000D01*
X168076090Y-135390414D01*
X168620414Y-134846090D01*
X168915000Y-134134895D01*
X168915000Y-133365105D01*
X168620414Y-132653910D01*
X168076090Y-132109586D01*
X167364895Y-131815000D01*
X166595105Y-131815000D01*
X166259015Y-131954213D01*
X166044802Y-131740000D01*
X178392560Y-131740000D01*
X178392560Y-133740000D01*
X178441843Y-133987765D01*
X178582191Y-134197809D01*
X178792235Y-134338157D01*
X179040000Y-134387440D01*
X181040000Y-134387440D01*
X181287765Y-134338157D01*
X181497809Y-134197809D01*
X181638157Y-133987765D01*
X181657099Y-133892532D01*
X186667073Y-133892532D01*
X186765736Y-134159387D01*
X187375461Y-134385908D01*
X188025460Y-134361856D01*
X188514264Y-134159387D01*
X188612927Y-133892532D01*
X187640000Y-132919605D01*
X186667073Y-133892532D01*
X181657099Y-133892532D01*
X181687440Y-133740000D01*
X181687440Y-132475461D01*
X185994092Y-132475461D01*
X186018144Y-133125460D01*
X186220613Y-133614264D01*
X186487468Y-133712927D01*
X187460395Y-132740000D01*
X187819605Y-132740000D01*
X188792532Y-133712927D01*
X189059387Y-133614264D01*
X189285908Y-133004539D01*
X189261856Y-132354540D01*
X189059387Y-131865736D01*
X188792532Y-131767073D01*
X187819605Y-132740000D01*
X187460395Y-132740000D01*
X186487468Y-131767073D01*
X186220613Y-131865736D01*
X185994092Y-132475461D01*
X181687440Y-132475461D01*
X181687440Y-131740000D01*
X181657100Y-131587468D01*
X186667073Y-131587468D01*
X187640000Y-132560395D01*
X188612927Y-131587468D01*
X188514264Y-131320613D01*
X187904539Y-131094092D01*
X187254540Y-131118144D01*
X186765736Y-131320613D01*
X186667073Y-131587468D01*
X181657100Y-131587468D01*
X181638157Y-131492235D01*
X181497809Y-131282191D01*
X181287765Y-131141843D01*
X181040000Y-131092560D01*
X179040000Y-131092560D01*
X178792235Y-131141843D01*
X178582191Y-131282191D01*
X178441843Y-131492235D01*
X178392560Y-131740000D01*
X166044802Y-131740000D01*
X159020331Y-124715530D01*
X158977929Y-124652071D01*
X158726537Y-124484096D01*
X158504852Y-124440000D01*
X158504847Y-124440000D01*
X158430000Y-124425112D01*
X158355153Y-124440000D01*
X156783078Y-124440000D01*
X157074264Y-124319387D01*
X157172927Y-124052532D01*
X156200000Y-123079605D01*
X155227073Y-124052532D01*
X155325736Y-124319387D01*
X155650389Y-124440000D01*
X150283078Y-124440000D01*
X150574264Y-124319387D01*
X150672927Y-124052532D01*
X149700000Y-123079605D01*
X148727073Y-124052532D01*
X148825736Y-124319387D01*
X149150389Y-124440000D01*
X146303711Y-124440000D01*
X146224445Y-124360734D01*
X146324264Y-124319387D01*
X146422927Y-124052532D01*
X145450000Y-123079605D01*
X144477073Y-124052532D01*
X144575736Y-124319387D01*
X144897400Y-124438889D01*
X144722569Y-124613720D01*
X144565000Y-124994126D01*
X144565000Y-125405874D01*
X144722569Y-125786280D01*
X144814350Y-125878061D01*
X144731605Y-125894520D01*
X144683462Y-125904096D01*
X144496418Y-126029076D01*
X144432071Y-126072071D01*
X144389671Y-126135527D01*
X138915528Y-131609671D01*
X138852072Y-131652071D01*
X138809672Y-131715527D01*
X138809671Y-131715528D01*
X138751518Y-131802560D01*
X138100000Y-131802560D01*
X137852235Y-131851843D01*
X137642191Y-131992191D01*
X137501843Y-132202235D01*
X137452560Y-132450000D01*
X134350395Y-132450000D01*
X134419854Y-132380541D01*
X134284496Y-132082545D01*
X133566120Y-131805934D01*
X132796573Y-131825290D01*
X132175504Y-132082545D01*
X132040146Y-132380541D01*
X130083624Y-132380541D01*
X130048157Y-132202235D01*
X129907809Y-131992191D01*
X129697765Y-131851843D01*
X129450000Y-131802560D01*
X126850000Y-131802560D01*
X126602235Y-131851843D01*
X126392191Y-131992191D01*
X126251843Y-132202235D01*
X126202560Y-132450000D01*
X118110000Y-132450000D01*
X118110000Y-124818043D01*
X118384577Y-124634577D01*
X118701740Y-124159909D01*
X118813113Y-123600000D01*
X118736445Y-123214561D01*
X123115000Y-123214561D01*
X123115000Y-123785439D01*
X123333466Y-124312862D01*
X123737138Y-124716534D01*
X124264561Y-124935000D01*
X124835439Y-124935000D01*
X125362862Y-124716534D01*
X125766534Y-124312862D01*
X125985000Y-123785439D01*
X125985000Y-123214561D01*
X129815000Y-123214561D01*
X129815000Y-123785439D01*
X130033466Y-124312862D01*
X130437138Y-124716534D01*
X130964561Y-124935000D01*
X131535439Y-124935000D01*
X132062862Y-124716534D01*
X132466534Y-124312862D01*
X132574366Y-124052532D01*
X137977073Y-124052532D01*
X138075736Y-124319387D01*
X138685461Y-124545908D01*
X139335460Y-124521856D01*
X139824264Y-124319387D01*
X139922927Y-124052532D01*
X138950000Y-123079605D01*
X137977073Y-124052532D01*
X132574366Y-124052532D01*
X132685000Y-123785439D01*
X132685000Y-123214561D01*
X132466534Y-122687138D01*
X132414857Y-122635461D01*
X137304092Y-122635461D01*
X137328144Y-123285460D01*
X137530613Y-123774264D01*
X137797468Y-123872927D01*
X138770395Y-122900000D01*
X139129605Y-122900000D01*
X140102532Y-123872927D01*
X140369387Y-123774264D01*
X140595908Y-123164539D01*
X140576331Y-122635461D01*
X143804092Y-122635461D01*
X143828144Y-123285460D01*
X144030613Y-123774264D01*
X144297468Y-123872927D01*
X145270395Y-122900000D01*
X145629605Y-122900000D01*
X146602532Y-123872927D01*
X146869387Y-123774264D01*
X147095908Y-123164539D01*
X147076331Y-122635461D01*
X148054092Y-122635461D01*
X148078144Y-123285460D01*
X148280613Y-123774264D01*
X148547468Y-123872927D01*
X149520395Y-122900000D01*
X149879605Y-122900000D01*
X150852532Y-123872927D01*
X151119387Y-123774264D01*
X151345908Y-123164539D01*
X151326331Y-122635461D01*
X154554092Y-122635461D01*
X154578144Y-123285460D01*
X154780613Y-123774264D01*
X155047468Y-123872927D01*
X156020395Y-122900000D01*
X156379605Y-122900000D01*
X157352532Y-123872927D01*
X157619387Y-123774264D01*
X157845908Y-123164539D01*
X157821856Y-122514540D01*
X157619387Y-122025736D01*
X157352532Y-121927073D01*
X156379605Y-122900000D01*
X156020395Y-122900000D01*
X155047468Y-121927073D01*
X154780613Y-122025736D01*
X154554092Y-122635461D01*
X151326331Y-122635461D01*
X151321856Y-122514540D01*
X151119387Y-122025736D01*
X150852532Y-121927073D01*
X149879605Y-122900000D01*
X149520395Y-122900000D01*
X148547468Y-121927073D01*
X148280613Y-122025736D01*
X148054092Y-122635461D01*
X147076331Y-122635461D01*
X147071856Y-122514540D01*
X146869387Y-122025736D01*
X146602532Y-121927073D01*
X145629605Y-122900000D01*
X145270395Y-122900000D01*
X144297468Y-121927073D01*
X144030613Y-122025736D01*
X143804092Y-122635461D01*
X140576331Y-122635461D01*
X140571856Y-122514540D01*
X140369387Y-122025736D01*
X140102532Y-121927073D01*
X139129605Y-122900000D01*
X138770395Y-122900000D01*
X137797468Y-121927073D01*
X137530613Y-122025736D01*
X137304092Y-122635461D01*
X132414857Y-122635461D01*
X132062862Y-122283466D01*
X131535439Y-122065000D01*
X130964561Y-122065000D01*
X130437138Y-122283466D01*
X130033466Y-122687138D01*
X129815000Y-123214561D01*
X125985000Y-123214561D01*
X125766534Y-122687138D01*
X125362862Y-122283466D01*
X124835439Y-122065000D01*
X124264561Y-122065000D01*
X123737138Y-122283466D01*
X123333466Y-122687138D01*
X123115000Y-123214561D01*
X118736445Y-123214561D01*
X118701740Y-123040091D01*
X118384577Y-122565423D01*
X117909909Y-122248260D01*
X117491333Y-122165000D01*
X117208667Y-122165000D01*
X116790091Y-122248260D01*
X116315423Y-122565423D01*
X115998260Y-123040091D01*
X115886887Y-123600000D01*
X111873168Y-123600000D01*
X111771740Y-123090091D01*
X111454577Y-122615423D01*
X110979909Y-122298260D01*
X110561333Y-122215000D01*
X110278667Y-122215000D01*
X109860091Y-122298260D01*
X109385423Y-122615423D01*
X109068260Y-123090091D01*
X108956887Y-123650000D01*
X101615961Y-123650000D01*
X101619497Y-121747468D01*
X137977073Y-121747468D01*
X138950000Y-122720395D01*
X139922927Y-121747468D01*
X144477073Y-121747468D01*
X145450000Y-122720395D01*
X146422927Y-121747468D01*
X148727073Y-121747468D01*
X149700000Y-122720395D01*
X150672927Y-121747468D01*
X155227073Y-121747468D01*
X156200000Y-122720395D01*
X157172927Y-121747468D01*
X157118405Y-121600000D01*
X158829051Y-121600000D01*
X158971469Y-122315981D01*
X159377039Y-122922961D01*
X159984019Y-123328531D01*
X160519273Y-123435000D01*
X160880727Y-123435000D01*
X161415981Y-123328531D01*
X162022961Y-122922961D01*
X162428531Y-122315981D01*
X162570949Y-121600000D01*
X162498345Y-121234996D01*
X179185000Y-121234996D01*
X179185000Y-121965004D01*
X179464362Y-122639444D01*
X179980556Y-123155638D01*
X180654996Y-123435000D01*
X181385004Y-123435000D01*
X182059444Y-123155638D01*
X182575638Y-122639444D01*
X182855000Y-121965004D01*
X182855000Y-121234996D01*
X182682880Y-120819459D01*
X188360146Y-120819459D01*
X188495504Y-121117455D01*
X189213880Y-121394066D01*
X189983427Y-121374710D01*
X190604496Y-121117455D01*
X190739854Y-120819459D01*
X189550000Y-119629605D01*
X188360146Y-120819459D01*
X182682880Y-120819459D01*
X182575638Y-120560556D01*
X182059444Y-120044362D01*
X181385004Y-119765000D01*
X180654996Y-119765000D01*
X179980556Y-120044362D01*
X179464362Y-120560556D01*
X179185000Y-121234996D01*
X162498345Y-121234996D01*
X162428531Y-120884019D01*
X162022961Y-120277039D01*
X161415981Y-119871469D01*
X160880727Y-119765000D01*
X160519273Y-119765000D01*
X159984019Y-119871469D01*
X159377039Y-120277039D01*
X158971469Y-120884019D01*
X158829051Y-121600000D01*
X157118405Y-121600000D01*
X157074264Y-121480613D01*
X156464539Y-121254092D01*
X155814540Y-121278144D01*
X155325736Y-121480613D01*
X155227073Y-121747468D01*
X150672927Y-121747468D01*
X150574264Y-121480613D01*
X149964539Y-121254092D01*
X149314540Y-121278144D01*
X148825736Y-121480613D01*
X148727073Y-121747468D01*
X146422927Y-121747468D01*
X146324264Y-121480613D01*
X145714539Y-121254092D01*
X145064540Y-121278144D01*
X144575736Y-121480613D01*
X144477073Y-121747468D01*
X139922927Y-121747468D01*
X139824264Y-121480613D01*
X139214539Y-121254092D01*
X138564540Y-121278144D01*
X138075736Y-121480613D01*
X137977073Y-121747468D01*
X101619497Y-121747468D01*
X101626323Y-118074778D01*
X137315000Y-118074778D01*
X137315000Y-118725222D01*
X137563914Y-119326153D01*
X138023847Y-119786086D01*
X138624778Y-120035000D01*
X139275222Y-120035000D01*
X139876153Y-119786086D01*
X140336086Y-119326153D01*
X140585000Y-118725222D01*
X140585000Y-118074778D01*
X143815000Y-118074778D01*
X143815000Y-118725222D01*
X144063914Y-119326153D01*
X144523847Y-119786086D01*
X145124778Y-120035000D01*
X145775222Y-120035000D01*
X146376153Y-119786086D01*
X146836086Y-119326153D01*
X147085000Y-118725222D01*
X147085000Y-118074778D01*
X146836086Y-117473847D01*
X146376153Y-117013914D01*
X145775222Y-116765000D01*
X145124778Y-116765000D01*
X144523847Y-117013914D01*
X144063914Y-117473847D01*
X143815000Y-118074778D01*
X140585000Y-118074778D01*
X140336086Y-117473847D01*
X139876153Y-117013914D01*
X139275222Y-116765000D01*
X138624778Y-116765000D01*
X138023847Y-117013914D01*
X137563914Y-117473847D01*
X137315000Y-118074778D01*
X101626323Y-118074778D01*
X101640097Y-110664561D01*
X108985000Y-110664561D01*
X108985000Y-111235439D01*
X109203466Y-111762862D01*
X109607138Y-112166534D01*
X110134561Y-112385000D01*
X110705439Y-112385000D01*
X111232862Y-112166534D01*
X111636534Y-111762862D01*
X111855000Y-111235439D01*
X111855000Y-110664561D01*
X111834290Y-110614561D01*
X115915000Y-110614561D01*
X115915000Y-111185439D01*
X116133466Y-111712862D01*
X116537138Y-112116534D01*
X117064561Y-112335000D01*
X117635439Y-112335000D01*
X118162862Y-112116534D01*
X118566534Y-111712862D01*
X118785000Y-111185439D01*
X118785000Y-110800000D01*
X123086887Y-110800000D01*
X123198260Y-111359909D01*
X123515423Y-111834577D01*
X123990091Y-112151740D01*
X124408667Y-112235000D01*
X124691333Y-112235000D01*
X125109909Y-112151740D01*
X125584577Y-111834577D01*
X125901740Y-111359909D01*
X126013113Y-110800000D01*
X129786887Y-110800000D01*
X129898260Y-111359909D01*
X130215423Y-111834577D01*
X130690091Y-112151740D01*
X131108667Y-112235000D01*
X131391333Y-112235000D01*
X131809909Y-112151740D01*
X132284577Y-111834577D01*
X132601740Y-111359909D01*
X132713113Y-110800000D01*
X132601740Y-110240091D01*
X132284577Y-109765423D01*
X131809909Y-109448260D01*
X131391333Y-109365000D01*
X131108667Y-109365000D01*
X130690091Y-109448260D01*
X130215423Y-109765423D01*
X129898260Y-110240091D01*
X129786887Y-110800000D01*
X126013113Y-110800000D01*
X125901740Y-110240091D01*
X125584577Y-109765423D01*
X125109909Y-109448260D01*
X124691333Y-109365000D01*
X124408667Y-109365000D01*
X123990091Y-109448260D01*
X123515423Y-109765423D01*
X123198260Y-110240091D01*
X123086887Y-110800000D01*
X118785000Y-110800000D01*
X118785000Y-110614561D01*
X118566534Y-110087138D01*
X118162862Y-109683466D01*
X117635439Y-109465000D01*
X117064561Y-109465000D01*
X116537138Y-109683466D01*
X116133466Y-110087138D01*
X115915000Y-110614561D01*
X111834290Y-110614561D01*
X111636534Y-110137138D01*
X111232862Y-109733466D01*
X110705439Y-109515000D01*
X110134561Y-109515000D01*
X109607138Y-109733466D01*
X109203466Y-110137138D01*
X108985000Y-110664561D01*
X101640097Y-110664561D01*
X101649842Y-105422119D01*
X108903000Y-105422119D01*
X108903000Y-105977881D01*
X109115680Y-106491337D01*
X109508663Y-106884320D01*
X110022119Y-107097000D01*
X110577881Y-107097000D01*
X111091337Y-106884320D01*
X111484320Y-106491337D01*
X111497300Y-106460000D01*
X112435199Y-106460000D01*
X114399673Y-108424476D01*
X114442071Y-108487929D01*
X114505524Y-108530327D01*
X114505526Y-108530329D01*
X114630902Y-108614102D01*
X114693463Y-108655904D01*
X114915148Y-108700000D01*
X114915152Y-108700000D01*
X114989999Y-108714888D01*
X115064846Y-108700000D01*
X131685153Y-108700000D01*
X131760000Y-108714888D01*
X131834847Y-108700000D01*
X131834852Y-108700000D01*
X132056537Y-108655904D01*
X132307929Y-108487929D01*
X132350331Y-108424470D01*
X134339802Y-106435001D01*
X143600152Y-106435001D01*
X143674999Y-106449889D01*
X143749846Y-106435001D01*
X143749851Y-106435001D01*
X143971536Y-106390905D01*
X144000503Y-106371550D01*
X143986887Y-106440000D01*
X144098260Y-106999909D01*
X144415423Y-107474577D01*
X144767758Y-107710000D01*
X144415423Y-107945423D01*
X144098260Y-108420091D01*
X143986887Y-108980000D01*
X144098260Y-109539909D01*
X144415423Y-110014577D01*
X144767758Y-110250000D01*
X144415423Y-110485423D01*
X144098260Y-110960091D01*
X143986887Y-111520000D01*
X144098260Y-112079909D01*
X144415423Y-112554577D01*
X144890091Y-112871740D01*
X145308667Y-112955000D01*
X145591333Y-112955000D01*
X146009909Y-112871740D01*
X146484577Y-112554577D01*
X146801740Y-112079909D01*
X146913113Y-111520000D01*
X146912595Y-111517397D01*
X148940000Y-113544802D01*
X148940001Y-116945091D01*
X148773847Y-117013914D01*
X148313914Y-117473847D01*
X148065000Y-118074778D01*
X148065000Y-118725222D01*
X148313914Y-119326153D01*
X148773847Y-119786086D01*
X149374778Y-120035000D01*
X150025222Y-120035000D01*
X150626153Y-119786086D01*
X151086086Y-119326153D01*
X151154909Y-119160000D01*
X154745091Y-119160000D01*
X154813914Y-119326153D01*
X155273847Y-119786086D01*
X155874778Y-120035000D01*
X156525222Y-120035000D01*
X157126153Y-119786086D01*
X157586086Y-119326153D01*
X157674012Y-119113880D01*
X187605934Y-119113880D01*
X187625290Y-119883427D01*
X187882545Y-120504496D01*
X188180541Y-120639854D01*
X189370395Y-119450000D01*
X189729605Y-119450000D01*
X190919459Y-120639854D01*
X191217455Y-120504496D01*
X191494066Y-119786120D01*
X191474710Y-119016573D01*
X191217455Y-118395504D01*
X190919459Y-118260146D01*
X189729605Y-119450000D01*
X189370395Y-119450000D01*
X188180541Y-118260146D01*
X187882545Y-118395504D01*
X187605934Y-119113880D01*
X157674012Y-119113880D01*
X157835000Y-118725222D01*
X157835000Y-118080541D01*
X188360146Y-118080541D01*
X189550000Y-119270395D01*
X190739854Y-118080541D01*
X190604496Y-117782545D01*
X189886120Y-117505934D01*
X189116573Y-117525290D01*
X188495504Y-117782545D01*
X188360146Y-118080541D01*
X157835000Y-118080541D01*
X157835000Y-118074778D01*
X157586086Y-117473847D01*
X157126153Y-117013914D01*
X156525222Y-116765000D01*
X155874778Y-116765000D01*
X155273847Y-117013914D01*
X154813914Y-117473847D01*
X154745091Y-117640000D01*
X151154909Y-117640000D01*
X151086086Y-117473847D01*
X150626153Y-117013914D01*
X150460000Y-116945091D01*
X150460000Y-113304848D01*
X150474888Y-113230000D01*
X150460000Y-113155152D01*
X150460000Y-113155148D01*
X150415904Y-112933463D01*
X150247929Y-112682071D01*
X150184473Y-112639671D01*
X146848688Y-109303887D01*
X146913113Y-108980000D01*
X146801740Y-108420091D01*
X146484577Y-107945423D01*
X146132242Y-107710000D01*
X146484577Y-107474577D01*
X146801740Y-106999909D01*
X146913113Y-106440000D01*
X146801740Y-105880091D01*
X146484577Y-105405423D01*
X146132242Y-105170000D01*
X146484577Y-104934577D01*
X146801740Y-104459909D01*
X146913113Y-103900000D01*
X146801740Y-103340091D01*
X146484577Y-102865423D01*
X146132242Y-102630000D01*
X146484577Y-102394577D01*
X146801740Y-101919909D01*
X146913113Y-101360000D01*
X146801740Y-100800091D01*
X146484577Y-100325423D01*
X146132242Y-100090000D01*
X146484577Y-99854577D01*
X146801740Y-99379909D01*
X146913113Y-98820000D01*
X146801740Y-98260091D01*
X146484577Y-97785423D01*
X146100892Y-97529053D01*
X146305134Y-97432389D01*
X146681041Y-97017423D01*
X146841904Y-96629039D01*
X146719915Y-96407000D01*
X145577000Y-96407000D01*
X145577000Y-96427000D01*
X145323000Y-96427000D01*
X145323000Y-96407000D01*
X144180085Y-96407000D01*
X144058096Y-96629039D01*
X144218959Y-97017423D01*
X144594866Y-97432389D01*
X144799108Y-97529053D01*
X144415423Y-97785423D01*
X144098260Y-98260091D01*
X143986887Y-98820000D01*
X144098260Y-99379909D01*
X144415423Y-99854577D01*
X144767758Y-100090000D01*
X144415423Y-100325423D01*
X144098260Y-100800091D01*
X143986887Y-101360000D01*
X144098260Y-101919909D01*
X144415423Y-102394577D01*
X144767758Y-102630000D01*
X144415423Y-102865423D01*
X144098260Y-103340091D01*
X143986887Y-103900000D01*
X144051312Y-104223886D01*
X143360198Y-104915001D01*
X134099845Y-104915001D01*
X134024998Y-104900113D01*
X133950151Y-104915001D01*
X133950147Y-104915001D01*
X133728462Y-104959097D01*
X133691047Y-104984097D01*
X133540525Y-105084672D01*
X133540523Y-105084674D01*
X133477070Y-105127072D01*
X133434672Y-105190525D01*
X131445199Y-107180000D01*
X115304803Y-107180000D01*
X113340331Y-105215530D01*
X113297929Y-105152071D01*
X113046537Y-104984096D01*
X112824852Y-104940000D01*
X112824847Y-104940000D01*
X112750000Y-104925112D01*
X112675153Y-104940000D01*
X111497300Y-104940000D01*
X111484320Y-104908663D01*
X111091337Y-104515680D01*
X110577881Y-104303000D01*
X110022119Y-104303000D01*
X109508663Y-104515680D01*
X109115680Y-104908663D01*
X108903000Y-105422119D01*
X101649842Y-105422119D01*
X101651993Y-104264561D01*
X127215000Y-104264561D01*
X127215000Y-104835439D01*
X127433466Y-105362862D01*
X127837138Y-105766534D01*
X128364561Y-105985000D01*
X128935439Y-105985000D01*
X129462862Y-105766534D01*
X129866534Y-105362862D01*
X130085000Y-104835439D01*
X130085000Y-104264561D01*
X129866534Y-103737138D01*
X129462862Y-103333466D01*
X129397701Y-103306475D01*
X129404005Y-103303864D01*
X129478139Y-103057745D01*
X128650000Y-102229605D01*
X127821861Y-103057745D01*
X127895995Y-103303864D01*
X127902746Y-103306290D01*
X127837138Y-103333466D01*
X127433466Y-103737138D01*
X127215000Y-104264561D01*
X101651993Y-104264561D01*
X101656512Y-101833223D01*
X127203035Y-101833223D01*
X127230222Y-102403454D01*
X127396136Y-102804005D01*
X127642255Y-102878139D01*
X128470395Y-102050000D01*
X128829605Y-102050000D01*
X129657745Y-102878139D01*
X129903864Y-102804005D01*
X130096965Y-102266777D01*
X130093997Y-102204506D01*
X134765000Y-102204506D01*
X134765000Y-102755494D01*
X134975853Y-103264540D01*
X135365460Y-103654147D01*
X135874506Y-103865000D01*
X136425494Y-103865000D01*
X136934540Y-103654147D01*
X137324147Y-103264540D01*
X137535000Y-102755494D01*
X137535000Y-102204506D01*
X137324147Y-101695460D01*
X136934540Y-101305853D01*
X136425494Y-101095000D01*
X135874506Y-101095000D01*
X135365460Y-101305853D01*
X134975853Y-101695460D01*
X134765000Y-102204506D01*
X130093997Y-102204506D01*
X130069778Y-101696546D01*
X129903864Y-101295995D01*
X129657745Y-101221861D01*
X128829605Y-102050000D01*
X128470395Y-102050000D01*
X127642255Y-101221861D01*
X127396136Y-101295995D01*
X127203035Y-101833223D01*
X101656512Y-101833223D01*
X101657982Y-101042255D01*
X127821861Y-101042255D01*
X128650000Y-101870395D01*
X129478139Y-101042255D01*
X129404005Y-100796136D01*
X128866777Y-100603035D01*
X128296546Y-100630222D01*
X127895995Y-100796136D01*
X127821861Y-101042255D01*
X101657982Y-101042255D01*
X101659997Y-99957745D01*
X127821861Y-99957745D01*
X127895995Y-100203864D01*
X128433223Y-100396965D01*
X129003454Y-100369778D01*
X129404005Y-100203864D01*
X129478139Y-99957745D01*
X128650000Y-99129605D01*
X127821861Y-99957745D01*
X101659997Y-99957745D01*
X101662274Y-98733223D01*
X127203035Y-98733223D01*
X127230222Y-99303454D01*
X127396136Y-99704005D01*
X127642255Y-99778139D01*
X128470395Y-98950000D01*
X128829605Y-98950000D01*
X129657745Y-99778139D01*
X129903864Y-99704005D01*
X130096965Y-99166777D01*
X130069778Y-98596546D01*
X129903864Y-98195995D01*
X129657745Y-98121861D01*
X128829605Y-98950000D01*
X128470395Y-98950000D01*
X127642255Y-98121861D01*
X127396136Y-98195995D01*
X127203035Y-98733223D01*
X101662274Y-98733223D01*
X101667048Y-96164561D01*
X127215000Y-96164561D01*
X127215000Y-96735439D01*
X127433466Y-97262862D01*
X127837138Y-97666534D01*
X127902299Y-97693525D01*
X127895995Y-97696136D01*
X127821861Y-97942255D01*
X128650000Y-98770395D01*
X129478139Y-97942255D01*
X129404005Y-97696136D01*
X129397254Y-97693710D01*
X129462862Y-97666534D01*
X129804890Y-97324506D01*
X134765000Y-97324506D01*
X134765000Y-97875494D01*
X134975853Y-98384540D01*
X135365460Y-98774147D01*
X135874506Y-98985000D01*
X136425494Y-98985000D01*
X136934540Y-98774147D01*
X137324147Y-98384540D01*
X137535000Y-97875494D01*
X137535000Y-97324506D01*
X137324147Y-96815460D01*
X136934540Y-96425853D01*
X136582419Y-96280000D01*
X151606887Y-96280000D01*
X151718260Y-96839909D01*
X152035423Y-97314577D01*
X152387758Y-97550000D01*
X152035423Y-97785423D01*
X151718260Y-98260091D01*
X151606887Y-98820000D01*
X151718260Y-99379909D01*
X152035423Y-99854577D01*
X152387758Y-100090000D01*
X152035423Y-100325423D01*
X151718260Y-100800091D01*
X151606887Y-101360000D01*
X151718260Y-101919909D01*
X152035423Y-102394577D01*
X152387758Y-102630000D01*
X152035423Y-102865423D01*
X151718260Y-103340091D01*
X151606887Y-103900000D01*
X151718260Y-104459909D01*
X152035423Y-104934577D01*
X152387758Y-105170000D01*
X152035423Y-105405423D01*
X151718260Y-105880091D01*
X151606887Y-106440000D01*
X151718260Y-106999909D01*
X152035423Y-107474577D01*
X152387758Y-107710000D01*
X152035423Y-107945423D01*
X151718260Y-108420091D01*
X151606887Y-108980000D01*
X151718260Y-109539909D01*
X152035423Y-110014577D01*
X152387758Y-110250000D01*
X152035423Y-110485423D01*
X151718260Y-110960091D01*
X151606887Y-111520000D01*
X151718260Y-112079909D01*
X152035423Y-112554577D01*
X152510091Y-112871740D01*
X152928667Y-112955000D01*
X153211333Y-112955000D01*
X153629909Y-112871740D01*
X154104577Y-112554577D01*
X154145144Y-112493864D01*
X168517620Y-112493864D01*
X168760682Y-113063091D01*
X169203076Y-113495973D01*
X169697020Y-113710563D01*
X169943000Y-113590594D01*
X169943000Y-112247000D01*
X168644428Y-112247000D01*
X168517620Y-112493864D01*
X154145144Y-112493864D01*
X154421740Y-112079909D01*
X154488131Y-111746136D01*
X168517620Y-111746136D01*
X168644428Y-111993000D01*
X169943000Y-111993000D01*
X169943000Y-110649406D01*
X170197000Y-110649406D01*
X170197000Y-111993000D01*
X170217000Y-111993000D01*
X170217000Y-112247000D01*
X170197000Y-112247000D01*
X170197000Y-113590594D01*
X170442980Y-113710563D01*
X170936924Y-113495973D01*
X171330841Y-113110526D01*
X171465477Y-113312023D01*
X171990589Y-113662891D01*
X172610000Y-113786100D01*
X173229410Y-113662891D01*
X173621491Y-113400912D01*
X173739691Y-113577809D01*
X173949735Y-113718157D01*
X174197500Y-113767440D01*
X176102500Y-113767440D01*
X176350265Y-113718157D01*
X176560309Y-113577809D01*
X176700657Y-113367765D01*
X176749940Y-113120000D01*
X176749940Y-111120000D01*
X176700657Y-110872235D01*
X176560309Y-110662191D01*
X176350265Y-110521843D01*
X176102500Y-110472560D01*
X174197500Y-110472560D01*
X173949735Y-110521843D01*
X173739691Y-110662191D01*
X173621491Y-110839088D01*
X173229411Y-110577109D01*
X172610000Y-110453900D01*
X171990590Y-110577109D01*
X171465477Y-110927977D01*
X171330841Y-111129474D01*
X170936924Y-110744027D01*
X170442980Y-110529437D01*
X170197000Y-110649406D01*
X169943000Y-110649406D01*
X169697020Y-110529437D01*
X169203076Y-110744027D01*
X168760682Y-111176909D01*
X168517620Y-111746136D01*
X154488131Y-111746136D01*
X154533113Y-111520000D01*
X154421740Y-110960091D01*
X154104577Y-110485423D01*
X153752242Y-110250000D01*
X154104577Y-110014577D01*
X154262140Y-109778767D01*
X154306216Y-109770000D01*
X180485199Y-109770000D01*
X185569671Y-114854473D01*
X185612071Y-114917929D01*
X185675527Y-114960329D01*
X185863462Y-115085904D01*
X185911605Y-115095480D01*
X186085148Y-115130000D01*
X186085152Y-115130000D01*
X186160000Y-115144888D01*
X186234848Y-115130000D01*
X187602560Y-115130000D01*
X187602560Y-115670000D01*
X187651843Y-115917765D01*
X187792191Y-116127809D01*
X188002235Y-116268157D01*
X188250000Y-116317440D01*
X190850000Y-116317440D01*
X191097765Y-116268157D01*
X191307809Y-116127809D01*
X191448157Y-115917765D01*
X191497440Y-115670000D01*
X191497440Y-113070000D01*
X191448157Y-112822235D01*
X191307809Y-112612191D01*
X191097765Y-112471843D01*
X190850000Y-112422560D01*
X188250000Y-112422560D01*
X188002235Y-112471843D01*
X187792191Y-112612191D01*
X187651843Y-112822235D01*
X187602560Y-113070000D01*
X187602560Y-113610000D01*
X186474802Y-113610000D01*
X182254261Y-109389459D01*
X188280146Y-109389459D01*
X188415504Y-109687455D01*
X189133880Y-109964066D01*
X189903427Y-109944710D01*
X190524496Y-109687455D01*
X190659854Y-109389459D01*
X189470000Y-108199605D01*
X188280146Y-109389459D01*
X182254261Y-109389459D01*
X181390331Y-108525530D01*
X181347929Y-108462071D01*
X181096537Y-108294096D01*
X180874852Y-108250000D01*
X180874847Y-108250000D01*
X180800000Y-108235112D01*
X180725153Y-108250000D01*
X154427042Y-108250000D01*
X154289855Y-108222712D01*
X154104577Y-107945423D01*
X153752242Y-107710000D01*
X153791333Y-107683880D01*
X187525934Y-107683880D01*
X187545290Y-108453427D01*
X187802545Y-109074496D01*
X188100541Y-109209854D01*
X189290395Y-108020000D01*
X189649605Y-108020000D01*
X190839459Y-109209854D01*
X191137455Y-109074496D01*
X191414066Y-108356120D01*
X191394710Y-107586573D01*
X191137455Y-106965504D01*
X190839459Y-106830146D01*
X189649605Y-108020000D01*
X189290395Y-108020000D01*
X188100541Y-106830146D01*
X187802545Y-106965504D01*
X187525934Y-107683880D01*
X153791333Y-107683880D01*
X154104577Y-107474577D01*
X154271379Y-107224940D01*
X154296216Y-107220000D01*
X184325153Y-107220000D01*
X184400000Y-107234888D01*
X184474847Y-107220000D01*
X184474852Y-107220000D01*
X184696537Y-107175904D01*
X184947929Y-107007929D01*
X184990331Y-106944470D01*
X185284260Y-106650541D01*
X188280146Y-106650541D01*
X189470000Y-107840395D01*
X190659854Y-106650541D01*
X190524496Y-106352545D01*
X189806120Y-106075934D01*
X189036573Y-106095290D01*
X188415504Y-106352545D01*
X188280146Y-106650541D01*
X185284260Y-106650541D01*
X187551136Y-104383665D01*
X187571843Y-104487765D01*
X187712191Y-104697809D01*
X187922235Y-104838157D01*
X188170000Y-104887440D01*
X190770000Y-104887440D01*
X191017765Y-104838157D01*
X191227809Y-104697809D01*
X191368157Y-104487765D01*
X191417440Y-104240000D01*
X191417440Y-101640000D01*
X191368157Y-101392235D01*
X191227809Y-101182191D01*
X191017765Y-101041843D01*
X190770000Y-100992560D01*
X188170000Y-100992560D01*
X187922235Y-101041843D01*
X187712191Y-101182191D01*
X187571843Y-101392235D01*
X187522560Y-101640000D01*
X187522560Y-102291517D01*
X187372071Y-102392071D01*
X187329671Y-102455527D01*
X184085199Y-105700000D01*
X154376769Y-105700000D01*
X154289855Y-105682712D01*
X154104577Y-105405423D01*
X153752242Y-105170000D01*
X154104577Y-104934577D01*
X154421740Y-104459909D01*
X154533113Y-103900000D01*
X161086887Y-103900000D01*
X161198260Y-104459909D01*
X161515423Y-104934577D01*
X161990091Y-105251740D01*
X162408667Y-105335000D01*
X162691333Y-105335000D01*
X163109909Y-105251740D01*
X163584577Y-104934577D01*
X163901740Y-104459909D01*
X164013113Y-103900000D01*
X163956336Y-103614561D01*
X173815000Y-103614561D01*
X173815000Y-104185439D01*
X174033466Y-104712862D01*
X174437138Y-105116534D01*
X174964561Y-105335000D01*
X175535439Y-105335000D01*
X176062862Y-105116534D01*
X176466534Y-104712862D01*
X176685000Y-104185439D01*
X176685000Y-103614561D01*
X176466534Y-103087138D01*
X176062862Y-102683466D01*
X175535439Y-102465000D01*
X174964561Y-102465000D01*
X174437138Y-102683466D01*
X174033466Y-103087138D01*
X173815000Y-103614561D01*
X163956336Y-103614561D01*
X163901740Y-103340091D01*
X163584577Y-102865423D01*
X163109909Y-102548260D01*
X162691333Y-102465000D01*
X162408667Y-102465000D01*
X161990091Y-102548260D01*
X161515423Y-102865423D01*
X161198260Y-103340091D01*
X161086887Y-103900000D01*
X154533113Y-103900000D01*
X154421740Y-103340091D01*
X154104577Y-102865423D01*
X153752242Y-102630000D01*
X154104577Y-102394577D01*
X154421740Y-101919909D01*
X154533113Y-101360000D01*
X154421740Y-100800091D01*
X154104577Y-100325423D01*
X153752242Y-100090000D01*
X154104577Y-99854577D01*
X154421740Y-99379909D01*
X154533113Y-98820000D01*
X154465292Y-98479039D01*
X161208096Y-98479039D01*
X161368959Y-98867423D01*
X161744866Y-99282389D01*
X162250959Y-99521914D01*
X162473000Y-99400629D01*
X162473000Y-98257000D01*
X162727000Y-98257000D01*
X162727000Y-99400629D01*
X162949041Y-99521914D01*
X163455134Y-99282389D01*
X163831041Y-98867423D01*
X163991904Y-98479039D01*
X163869915Y-98257000D01*
X162727000Y-98257000D01*
X162473000Y-98257000D01*
X161330085Y-98257000D01*
X161208096Y-98479039D01*
X154465292Y-98479039D01*
X154421740Y-98260091D01*
X154104577Y-97785423D01*
X154097900Y-97780961D01*
X161208096Y-97780961D01*
X161330085Y-98003000D01*
X162473000Y-98003000D01*
X162473000Y-96859371D01*
X162727000Y-96859371D01*
X162727000Y-98003000D01*
X163869915Y-98003000D01*
X163956961Y-97844561D01*
X173865000Y-97844561D01*
X173865000Y-98415439D01*
X174083466Y-98942862D01*
X174487138Y-99346534D01*
X175014561Y-99565000D01*
X175585439Y-99565000D01*
X176112862Y-99346534D01*
X176516534Y-98942862D01*
X176735000Y-98415439D01*
X176735000Y-97844561D01*
X176516534Y-97317138D01*
X176112862Y-96913466D01*
X175585439Y-96695000D01*
X175014561Y-96695000D01*
X174487138Y-96913466D01*
X174083466Y-97317138D01*
X173865000Y-97844561D01*
X163956961Y-97844561D01*
X163991904Y-97780961D01*
X163831041Y-97392577D01*
X163455134Y-96977611D01*
X162949041Y-96738086D01*
X162727000Y-96859371D01*
X162473000Y-96859371D01*
X162250959Y-96738086D01*
X161744866Y-96977611D01*
X161368959Y-97392577D01*
X161208096Y-97780961D01*
X154097900Y-97780961D01*
X153752242Y-97550000D01*
X154104577Y-97314577D01*
X154421740Y-96839909D01*
X154528119Y-96305105D01*
X187605000Y-96305105D01*
X187605000Y-97074895D01*
X187899586Y-97786090D01*
X188443910Y-98330414D01*
X189155105Y-98625000D01*
X189924895Y-98625000D01*
X190636090Y-98330414D01*
X191180414Y-97786090D01*
X191475000Y-97074895D01*
X191475000Y-96305105D01*
X191180414Y-95593910D01*
X190636090Y-95049586D01*
X189924895Y-94755000D01*
X189155105Y-94755000D01*
X188443910Y-95049586D01*
X187899586Y-95593910D01*
X187605000Y-96305105D01*
X154528119Y-96305105D01*
X154533113Y-96280000D01*
X154421740Y-95720091D01*
X154104577Y-95245423D01*
X153720892Y-94989053D01*
X153925134Y-94892389D01*
X154301041Y-94477423D01*
X154461904Y-94089039D01*
X154339915Y-93867000D01*
X153197000Y-93867000D01*
X153197000Y-93887000D01*
X152943000Y-93887000D01*
X152943000Y-93867000D01*
X151800085Y-93867000D01*
X151678096Y-94089039D01*
X151838959Y-94477423D01*
X152214866Y-94892389D01*
X152419108Y-94989053D01*
X152035423Y-95245423D01*
X151718260Y-95720091D01*
X151606887Y-96280000D01*
X136582419Y-96280000D01*
X136425494Y-96215000D01*
X135874506Y-96215000D01*
X135365460Y-96425853D01*
X134975853Y-96815460D01*
X134765000Y-97324506D01*
X129804890Y-97324506D01*
X129866534Y-97262862D01*
X130085000Y-96735439D01*
X130085000Y-96164561D01*
X129866534Y-95637138D01*
X129462862Y-95233466D01*
X128935439Y-95015000D01*
X128364561Y-95015000D01*
X127837138Y-95233466D01*
X127433466Y-95637138D01*
X127215000Y-96164561D01*
X101667048Y-96164561D01*
X101677346Y-90624561D01*
X127245000Y-90624561D01*
X127245000Y-91195439D01*
X127463466Y-91722862D01*
X127867138Y-92126534D01*
X128394561Y-92345000D01*
X128965439Y-92345000D01*
X129492862Y-92126534D01*
X129896534Y-91722862D01*
X130115000Y-91195439D01*
X130115000Y-90624561D01*
X129896534Y-90097138D01*
X129492862Y-89693466D01*
X128965439Y-89475000D01*
X128394561Y-89475000D01*
X127867138Y-89693466D01*
X127463466Y-90097138D01*
X127245000Y-90624561D01*
X101677346Y-90624561D01*
X101684678Y-86680213D01*
X109499392Y-86680213D01*
X109568857Y-86922397D01*
X110092302Y-87109144D01*
X110647368Y-87081362D01*
X111031143Y-86922397D01*
X111088469Y-86722532D01*
X116057073Y-86722532D01*
X116155736Y-86989387D01*
X116765461Y-87215908D01*
X117415460Y-87191856D01*
X117904264Y-86989387D01*
X118002927Y-86722532D01*
X122557073Y-86722532D01*
X122655736Y-86989387D01*
X123265461Y-87215908D01*
X123915460Y-87191856D01*
X124404264Y-86989387D01*
X124502927Y-86722532D01*
X123530000Y-85749605D01*
X122557073Y-86722532D01*
X118002927Y-86722532D01*
X117030000Y-85749605D01*
X116057073Y-86722532D01*
X111088469Y-86722532D01*
X111100608Y-86680213D01*
X110300000Y-85879605D01*
X109499392Y-86680213D01*
X101684678Y-86680213D01*
X101686886Y-85492302D01*
X108890856Y-85492302D01*
X108918638Y-86047368D01*
X109077603Y-86431143D01*
X109319787Y-86500608D01*
X110120395Y-85700000D01*
X110479605Y-85700000D01*
X111280213Y-86500608D01*
X111522397Y-86431143D01*
X111709144Y-85907698D01*
X111681362Y-85352632D01*
X111661824Y-85305461D01*
X115384092Y-85305461D01*
X115408144Y-85955460D01*
X115610613Y-86444264D01*
X115877468Y-86542927D01*
X116850395Y-85570000D01*
X117209605Y-85570000D01*
X118182532Y-86542927D01*
X118449387Y-86444264D01*
X118675908Y-85834539D01*
X118656331Y-85305461D01*
X121884092Y-85305461D01*
X121908144Y-85955460D01*
X122110613Y-86444264D01*
X122377468Y-86542927D01*
X123350395Y-85570000D01*
X123709605Y-85570000D01*
X124682532Y-86542927D01*
X124949387Y-86444264D01*
X125175908Y-85834539D01*
X125151856Y-85184540D01*
X124949387Y-84695736D01*
X124682532Y-84597073D01*
X123709605Y-85570000D01*
X123350395Y-85570000D01*
X122377468Y-84597073D01*
X122110613Y-84695736D01*
X121884092Y-85305461D01*
X118656331Y-85305461D01*
X118651856Y-85184540D01*
X118449387Y-84695736D01*
X118182532Y-84597073D01*
X117209605Y-85570000D01*
X116850395Y-85570000D01*
X115877468Y-84597073D01*
X115610613Y-84695736D01*
X115384092Y-85305461D01*
X111661824Y-85305461D01*
X111522397Y-84968857D01*
X111280213Y-84899392D01*
X110479605Y-85700000D01*
X110120395Y-85700000D01*
X109319787Y-84899392D01*
X109077603Y-84968857D01*
X108890856Y-85492302D01*
X101686886Y-85492302D01*
X101688321Y-84719787D01*
X109499392Y-84719787D01*
X110300000Y-85520395D01*
X111100608Y-84719787D01*
X111031143Y-84477603D01*
X110862587Y-84417468D01*
X116057073Y-84417468D01*
X117030000Y-85390395D01*
X118002927Y-84417468D01*
X122557073Y-84417468D01*
X123530000Y-85390395D01*
X124502927Y-84417468D01*
X124404264Y-84150613D01*
X123794539Y-83924092D01*
X123144540Y-83948144D01*
X122655736Y-84150613D01*
X122557073Y-84417468D01*
X118002927Y-84417468D01*
X117904264Y-84150613D01*
X117294539Y-83924092D01*
X116644540Y-83948144D01*
X116155736Y-84150613D01*
X116057073Y-84417468D01*
X110862587Y-84417468D01*
X110507698Y-84290856D01*
X109952632Y-84318638D01*
X109568857Y-84477603D01*
X109499392Y-84719787D01*
X101688321Y-84719787D01*
X101695710Y-80744778D01*
X115395000Y-80744778D01*
X115395000Y-81395222D01*
X115643914Y-81996153D01*
X116103847Y-82456086D01*
X116704778Y-82705000D01*
X117355222Y-82705000D01*
X117956153Y-82456086D01*
X118416086Y-81996153D01*
X118665000Y-81395222D01*
X118665000Y-80744778D01*
X121895000Y-80744778D01*
X121895000Y-81395222D01*
X122143914Y-81996153D01*
X122603847Y-82456086D01*
X123204778Y-82705000D01*
X123855222Y-82705000D01*
X124456153Y-82456086D01*
X124916086Y-81996153D01*
X125165000Y-81395222D01*
X125165000Y-80744778D01*
X124916086Y-80143847D01*
X124456153Y-79683914D01*
X123855222Y-79435000D01*
X123204778Y-79435000D01*
X122603847Y-79683914D01*
X122143914Y-80143847D01*
X121895000Y-80744778D01*
X118665000Y-80744778D01*
X118416086Y-80143847D01*
X117956153Y-79683914D01*
X117355222Y-79435000D01*
X116704778Y-79435000D01*
X116103847Y-79683914D01*
X115643914Y-80143847D01*
X115395000Y-80744778D01*
X101695710Y-80744778D01*
X101700421Y-78210000D01*
X127216887Y-78210000D01*
X127328260Y-78769909D01*
X127645423Y-79244577D01*
X128120091Y-79561740D01*
X128538667Y-79645000D01*
X128821333Y-79645000D01*
X129239909Y-79561740D01*
X129714577Y-79244577D01*
X130031740Y-78769909D01*
X130143113Y-78210000D01*
X130031740Y-77650091D01*
X129714577Y-77175423D01*
X129239909Y-76858260D01*
X128821333Y-76775000D01*
X128538667Y-76775000D01*
X128120091Y-76858260D01*
X127645423Y-77175423D01*
X127328260Y-77650091D01*
X127216887Y-78210000D01*
X101700421Y-78210000D01*
X101706339Y-75026890D01*
X108558524Y-75026890D01*
X108728355Y-75436924D01*
X109118642Y-75865183D01*
X109643108Y-76111486D01*
X109873000Y-75990819D01*
X109873000Y-74797000D01*
X110127000Y-74797000D01*
X110127000Y-75990819D01*
X110356892Y-76111486D01*
X110881358Y-75865183D01*
X111271645Y-75436924D01*
X111441476Y-75026890D01*
X111320155Y-74797000D01*
X110127000Y-74797000D01*
X109873000Y-74797000D01*
X108679845Y-74797000D01*
X108558524Y-75026890D01*
X101706339Y-75026890D01*
X101716445Y-69590000D01*
X108485908Y-69590000D01*
X108601161Y-70169418D01*
X108929375Y-70660625D01*
X109227761Y-70860000D01*
X108929375Y-71059375D01*
X108601161Y-71550582D01*
X108485908Y-72130000D01*
X108601161Y-72709418D01*
X108929375Y-73200625D01*
X109248478Y-73413843D01*
X109118642Y-73474817D01*
X108728355Y-73903076D01*
X108558524Y-74313110D01*
X108679845Y-74543000D01*
X109873000Y-74543000D01*
X109873000Y-74523000D01*
X110127000Y-74523000D01*
X110127000Y-74543000D01*
X111320155Y-74543000D01*
X111441476Y-74313110D01*
X111271645Y-73903076D01*
X110881358Y-73474817D01*
X110751522Y-73413843D01*
X111070625Y-73200625D01*
X111398839Y-72709418D01*
X111514092Y-72130000D01*
X111398839Y-71550582D01*
X111070625Y-71059375D01*
X110772239Y-70860000D01*
X111070625Y-70660625D01*
X111278178Y-70350000D01*
X126065199Y-70350000D01*
X144051312Y-88336114D01*
X143986887Y-88660000D01*
X144098260Y-89219909D01*
X144415423Y-89694577D01*
X144767758Y-89930000D01*
X144415423Y-90165423D01*
X144098260Y-90640091D01*
X143986887Y-91200000D01*
X144098260Y-91759909D01*
X144415423Y-92234577D01*
X144767758Y-92470000D01*
X144415423Y-92705423D01*
X144098260Y-93180091D01*
X143986887Y-93740000D01*
X144098260Y-94299909D01*
X144415423Y-94774577D01*
X144799108Y-95030947D01*
X144594866Y-95127611D01*
X144218959Y-95542577D01*
X144058096Y-95930961D01*
X144180085Y-96153000D01*
X145323000Y-96153000D01*
X145323000Y-96133000D01*
X145577000Y-96133000D01*
X145577000Y-96153000D01*
X146719915Y-96153000D01*
X146841904Y-95930961D01*
X146681041Y-95542577D01*
X146305134Y-95127611D01*
X146100892Y-95030947D01*
X146484577Y-94774577D01*
X146801740Y-94299909D01*
X146913113Y-93740000D01*
X146801740Y-93180091D01*
X146484577Y-92705423D01*
X146132242Y-92470000D01*
X146484577Y-92234577D01*
X146801740Y-91759909D01*
X146913113Y-91200000D01*
X146801740Y-90640091D01*
X146484577Y-90165423D01*
X146132242Y-89930000D01*
X146484577Y-89694577D01*
X146801740Y-89219909D01*
X146913113Y-88660000D01*
X146801740Y-88100091D01*
X146484577Y-87625423D01*
X146132242Y-87390000D01*
X146484577Y-87154577D01*
X146801740Y-86679909D01*
X146913113Y-86120000D01*
X146801740Y-85560091D01*
X146484577Y-85085423D01*
X146132242Y-84850000D01*
X146484577Y-84614577D01*
X146801740Y-84139909D01*
X146913113Y-83580000D01*
X146848688Y-83256113D01*
X151607405Y-78497397D01*
X151606887Y-78500000D01*
X151718260Y-79059909D01*
X152035423Y-79534577D01*
X152387758Y-79770000D01*
X152035423Y-80005423D01*
X151718260Y-80480091D01*
X151606887Y-81040000D01*
X151718260Y-81599909D01*
X152035423Y-82074577D01*
X152387758Y-82310000D01*
X152035423Y-82545423D01*
X151718260Y-83020091D01*
X151606887Y-83580000D01*
X151718260Y-84139909D01*
X152035423Y-84614577D01*
X152387758Y-84850000D01*
X152035423Y-85085423D01*
X151718260Y-85560091D01*
X151606887Y-86120000D01*
X151718260Y-86679909D01*
X152035423Y-87154577D01*
X152387758Y-87390000D01*
X152035423Y-87625423D01*
X151718260Y-88100091D01*
X151606887Y-88660000D01*
X151718260Y-89219909D01*
X152035423Y-89694577D01*
X152387758Y-89930000D01*
X152035423Y-90165423D01*
X151718260Y-90640091D01*
X151606887Y-91200000D01*
X151718260Y-91759909D01*
X152035423Y-92234577D01*
X152419108Y-92490947D01*
X152214866Y-92587611D01*
X151838959Y-93002577D01*
X151678096Y-93390961D01*
X151800085Y-93613000D01*
X152943000Y-93613000D01*
X152943000Y-93593000D01*
X153197000Y-93593000D01*
X153197000Y-93613000D01*
X154339915Y-93613000D01*
X154461904Y-93390961D01*
X154301041Y-93002577D01*
X153925134Y-92587611D01*
X153720892Y-92490947D01*
X154104577Y-92234577D01*
X154421740Y-91759909D01*
X154533113Y-91200000D01*
X154421740Y-90640091D01*
X154104577Y-90165423D01*
X153752242Y-89930000D01*
X154104577Y-89694577D01*
X154421740Y-89219909D01*
X154533113Y-88660000D01*
X154421740Y-88100091D01*
X154104577Y-87625423D01*
X153752242Y-87390000D01*
X154104577Y-87154577D01*
X154421740Y-86679909D01*
X154533113Y-86120000D01*
X154421740Y-85560091D01*
X154104577Y-85085423D01*
X153752242Y-84850000D01*
X154104577Y-84614577D01*
X154421740Y-84139909D01*
X154533113Y-83580000D01*
X154421740Y-83020091D01*
X154104577Y-82545423D01*
X153752242Y-82310000D01*
X154104577Y-82074577D01*
X154421740Y-81599909D01*
X154533113Y-81040000D01*
X154421740Y-80480091D01*
X154104577Y-80005423D01*
X153752242Y-79770000D01*
X154104577Y-79534577D01*
X154421740Y-79059909D01*
X154533113Y-78500000D01*
X154421740Y-77940091D01*
X154104577Y-77465423D01*
X153629909Y-77148260D01*
X153211333Y-77065000D01*
X153039802Y-77065000D01*
X156495000Y-73609801D01*
X169853792Y-86968594D01*
X169780909Y-87335001D01*
X169896162Y-87914419D01*
X170224376Y-88405626D01*
X170522762Y-88605001D01*
X170224376Y-88804376D01*
X169896162Y-89295583D01*
X169780909Y-89875001D01*
X169896162Y-90454419D01*
X170224376Y-90945626D01*
X170715583Y-91273840D01*
X171148745Y-91360001D01*
X171441257Y-91360001D01*
X171874419Y-91273840D01*
X172365626Y-90945626D01*
X172693840Y-90454419D01*
X172722566Y-90310000D01*
X187592560Y-90310000D01*
X187592560Y-92910000D01*
X187641843Y-93157765D01*
X187782191Y-93367809D01*
X187992235Y-93508157D01*
X188240000Y-93557440D01*
X190840000Y-93557440D01*
X191087765Y-93508157D01*
X191297809Y-93367809D01*
X191438157Y-93157765D01*
X191487440Y-92910000D01*
X191487440Y-90310000D01*
X191438157Y-90062235D01*
X191297809Y-89852191D01*
X191087765Y-89711843D01*
X190840000Y-89662560D01*
X188240000Y-89662560D01*
X187992235Y-89711843D01*
X187782191Y-89852191D01*
X187641843Y-90062235D01*
X187592560Y-90310000D01*
X172722566Y-90310000D01*
X172809093Y-89875001D01*
X172693840Y-89295583D01*
X172365626Y-88804376D01*
X172067240Y-88605001D01*
X172365626Y-88405626D01*
X172693840Y-87914419D01*
X172809093Y-87335001D01*
X172693840Y-86755583D01*
X172365626Y-86264376D01*
X172067240Y-86065001D01*
X172365626Y-85865626D01*
X172693840Y-85374419D01*
X172809093Y-84795001D01*
X172693840Y-84215583D01*
X172365626Y-83724376D01*
X172067240Y-83525001D01*
X172365626Y-83325626D01*
X172693840Y-82834419D01*
X172809093Y-82255001D01*
X172693840Y-81675583D01*
X172507129Y-81396150D01*
X181912500Y-81396150D01*
X181912500Y-81803849D01*
X182004609Y-82266910D01*
X182355477Y-82792023D01*
X182880589Y-83142891D01*
X183500000Y-83266100D01*
X184119410Y-83142891D01*
X184644523Y-82792023D01*
X184779159Y-82590526D01*
X185173076Y-82975973D01*
X185667020Y-83190563D01*
X185913000Y-83070594D01*
X185913000Y-81727000D01*
X185893000Y-81727000D01*
X185893000Y-81473000D01*
X185913000Y-81473000D01*
X185913000Y-80129406D01*
X186167000Y-80129406D01*
X186167000Y-81473000D01*
X186187000Y-81473000D01*
X186187000Y-81727000D01*
X186167000Y-81727000D01*
X186167000Y-83070594D01*
X186412980Y-83190563D01*
X186906924Y-82975973D01*
X187032745Y-82852857D01*
X187169691Y-83057809D01*
X187379735Y-83198157D01*
X187627500Y-83247440D01*
X189532500Y-83247440D01*
X189780265Y-83198157D01*
X189990309Y-83057809D01*
X190130657Y-82847765D01*
X190179940Y-82600000D01*
X190179940Y-80600000D01*
X190130657Y-80352235D01*
X189990309Y-80142191D01*
X189780265Y-80001843D01*
X189532500Y-79952560D01*
X187627500Y-79952560D01*
X187379735Y-80001843D01*
X187169691Y-80142191D01*
X187032745Y-80347143D01*
X186906924Y-80224027D01*
X186412980Y-80009437D01*
X186167000Y-80129406D01*
X185913000Y-80129406D01*
X185667020Y-80009437D01*
X185173076Y-80224027D01*
X184779159Y-80609474D01*
X184644523Y-80407977D01*
X184119411Y-80057109D01*
X183500000Y-79933900D01*
X182880590Y-80057109D01*
X182355477Y-80407977D01*
X182004609Y-80933089D01*
X181912500Y-81396150D01*
X172507129Y-81396150D01*
X172365626Y-81184376D01*
X172067240Y-80985001D01*
X172365626Y-80785626D01*
X172693840Y-80294419D01*
X172809093Y-79715001D01*
X172693840Y-79135583D01*
X172365626Y-78644376D01*
X172343968Y-78629905D01*
X172504699Y-78563328D01*
X172683328Y-78384700D01*
X172780001Y-78151311D01*
X172780001Y-77460751D01*
X172621251Y-77302001D01*
X171422001Y-77302001D01*
X171422001Y-77322001D01*
X171168001Y-77322001D01*
X171168001Y-77302001D01*
X169968751Y-77302001D01*
X169810001Y-77460751D01*
X169810001Y-78151311D01*
X169906674Y-78384700D01*
X170085303Y-78563328D01*
X170246034Y-78629905D01*
X170224376Y-78644376D01*
X169896162Y-79135583D01*
X169780909Y-79715001D01*
X169896162Y-80294419D01*
X170224376Y-80785626D01*
X170522762Y-80985001D01*
X170224376Y-81184376D01*
X169896162Y-81675583D01*
X169780909Y-82255001D01*
X169896162Y-82834419D01*
X170224376Y-83325626D01*
X170522762Y-83525001D01*
X170224376Y-83724376D01*
X170173395Y-83800674D01*
X162571412Y-76198691D01*
X169810001Y-76198691D01*
X169810001Y-76889251D01*
X169968751Y-77048001D01*
X171168001Y-77048001D01*
X171168001Y-75848751D01*
X171422001Y-75848751D01*
X171422001Y-77048001D01*
X172621251Y-77048001D01*
X172780001Y-76889251D01*
X172780001Y-76198691D01*
X172683328Y-75965302D01*
X172504699Y-75786674D01*
X172271310Y-75690001D01*
X171580751Y-75690001D01*
X171422001Y-75848751D01*
X171168001Y-75848751D01*
X171009251Y-75690001D01*
X170318692Y-75690001D01*
X170085303Y-75786674D01*
X169906674Y-75965302D01*
X169810001Y-76198691D01*
X162571412Y-76198691D01*
X157668250Y-71295530D01*
X157625848Y-71232071D01*
X157451762Y-71115750D01*
X182635000Y-71115750D01*
X182635000Y-72256310D01*
X182731673Y-72489699D01*
X182910302Y-72668327D01*
X183143691Y-72765000D01*
X184284250Y-72765000D01*
X184443000Y-72606250D01*
X184443000Y-70957000D01*
X184697000Y-70957000D01*
X184697000Y-72606250D01*
X184855750Y-72765000D01*
X185996309Y-72765000D01*
X186229698Y-72668327D01*
X186408327Y-72489699D01*
X186505000Y-72256310D01*
X186505000Y-71115750D01*
X186346250Y-70957000D01*
X184697000Y-70957000D01*
X184443000Y-70957000D01*
X182793750Y-70957000D01*
X182635000Y-71115750D01*
X157451762Y-71115750D01*
X157374456Y-71064096D01*
X157152771Y-71020000D01*
X157152766Y-71020000D01*
X157077919Y-71005112D01*
X157003072Y-71020000D01*
X154784848Y-71020000D01*
X154710000Y-71005112D01*
X154635152Y-71020000D01*
X154635148Y-71020000D01*
X154413463Y-71064096D01*
X154162071Y-71232071D01*
X154119671Y-71295527D01*
X146897440Y-78517759D01*
X146897440Y-77700000D01*
X146848157Y-77452235D01*
X146707809Y-77242191D01*
X146497765Y-77101843D01*
X146250000Y-77052560D01*
X144650000Y-77052560D01*
X144402235Y-77101843D01*
X144192191Y-77242191D01*
X144051843Y-77452235D01*
X144002560Y-77700000D01*
X144002560Y-79300000D01*
X144051843Y-79547765D01*
X144192191Y-79757809D01*
X144402235Y-79898157D01*
X144536106Y-79924785D01*
X144415423Y-80005423D01*
X144098260Y-80480091D01*
X143986887Y-81040000D01*
X144098260Y-81599909D01*
X144415423Y-82074577D01*
X144767758Y-82310000D01*
X144415423Y-82545423D01*
X144098260Y-83020091D01*
X143986887Y-83580000D01*
X143987405Y-83582603D01*
X129808492Y-69403690D01*
X182635000Y-69403690D01*
X182635000Y-70544250D01*
X182793750Y-70703000D01*
X184443000Y-70703000D01*
X184443000Y-69053750D01*
X184697000Y-69053750D01*
X184697000Y-70703000D01*
X186346250Y-70703000D01*
X186505000Y-70544250D01*
X186505000Y-70445105D01*
X187715000Y-70445105D01*
X187715000Y-71214895D01*
X188009586Y-71926090D01*
X188553910Y-72470414D01*
X189265105Y-72765000D01*
X190034895Y-72765000D01*
X190746090Y-72470414D01*
X191290414Y-71926090D01*
X191585000Y-71214895D01*
X191585000Y-70445105D01*
X191290414Y-69733910D01*
X190746090Y-69189586D01*
X190034895Y-68895000D01*
X189265105Y-68895000D01*
X188553910Y-69189586D01*
X188009586Y-69733910D01*
X187715000Y-70445105D01*
X186505000Y-70445105D01*
X186505000Y-69403690D01*
X186408327Y-69170301D01*
X186229698Y-68991673D01*
X185996309Y-68895000D01*
X184855750Y-68895000D01*
X184697000Y-69053750D01*
X184443000Y-69053750D01*
X184284250Y-68895000D01*
X183143691Y-68895000D01*
X182910302Y-68991673D01*
X182731673Y-69170301D01*
X182635000Y-69403690D01*
X129808492Y-69403690D01*
X127569363Y-67164561D01*
X159675000Y-67164561D01*
X159675000Y-67735439D01*
X159893466Y-68262862D01*
X160297138Y-68666534D01*
X160824561Y-68885000D01*
X161395439Y-68885000D01*
X161922862Y-68666534D01*
X162326534Y-68262862D01*
X162360000Y-68182068D01*
X162393466Y-68262862D01*
X162797138Y-68666534D01*
X163324561Y-68885000D01*
X163895439Y-68885000D01*
X164422862Y-68666534D01*
X164826534Y-68262862D01*
X165045000Y-67735439D01*
X165045000Y-67164561D01*
X164826534Y-66637138D01*
X164422862Y-66233466D01*
X163895439Y-66015000D01*
X163324561Y-66015000D01*
X162797138Y-66233466D01*
X162393466Y-66637138D01*
X162360000Y-66717932D01*
X162326534Y-66637138D01*
X161922862Y-66233466D01*
X161395439Y-66015000D01*
X160824561Y-66015000D01*
X160297138Y-66233466D01*
X159893466Y-66637138D01*
X159675000Y-67164561D01*
X127569363Y-67164561D01*
X126970331Y-66565530D01*
X126927929Y-66502071D01*
X126676537Y-66334096D01*
X126454852Y-66290000D01*
X126454847Y-66290000D01*
X126380000Y-66275112D01*
X126305153Y-66290000D01*
X111497440Y-66290000D01*
X111497440Y-66200000D01*
X111448157Y-65952235D01*
X111307809Y-65742191D01*
X111097765Y-65601843D01*
X110850000Y-65552560D01*
X109150000Y-65552560D01*
X108902235Y-65601843D01*
X108692191Y-65742191D01*
X108551843Y-65952235D01*
X108502560Y-66200000D01*
X108502560Y-67900000D01*
X108551843Y-68147765D01*
X108692191Y-68357809D01*
X108902235Y-68498157D01*
X108947619Y-68507184D01*
X108929375Y-68519375D01*
X108601161Y-69010582D01*
X108485908Y-69590000D01*
X101716445Y-69590000D01*
X101728837Y-62923261D01*
X196963675Y-62923261D01*
X196836089Y-143174434D01*
G04 #@! TD*
M02*
