M48
;DRILL file {KiCad (5.0.2)-1} date 17/02/2019 16:43:39
;FORMAT={-:-/ absolute / metric / decimal}
FMAT,2
METRIC,TZ
T1C0.400
T2C0.800
T3C1.000
T4C1.100
T5C1.200
T6C1.300
%
G90
G05
T1
X145.6Y-125.2
T2
X124.55Y-110.8
X124.55Y-123.5
X131.25Y-110.8
X131.25Y-123.5
X136.15Y-97.6
X136.15Y-102.48
X128.68Y-78.21
X128.68Y-90.91
X162.6Y-98.13
X175.3Y-98.13
X128.65Y-96.45
X128.65Y-98.95
X117.35Y-110.9
X117.35Y-123.6
X162.55Y-103.9
X175.25Y-103.9
X110.42Y-110.95
X110.42Y-123.65
X161.11Y-67.45
X163.61Y-67.45
X145.45Y-78.5
X145.45Y-81.04
X145.45Y-83.58
X145.45Y-86.12
X145.45Y-88.66
X145.45Y-91.2
X145.45Y-93.74
X145.45Y-96.28
X145.45Y-98.82
X145.45Y-101.36
X145.45Y-103.9
X145.45Y-106.44
X145.45Y-108.98
X145.45Y-111.52
X153.07Y-78.5
X153.07Y-81.04
X153.07Y-83.58
X153.07Y-86.12
X153.07Y-88.66
X153.07Y-91.2
X153.07Y-93.74
X153.07Y-96.28
X153.07Y-98.82
X153.07Y-101.36
X153.07Y-103.9
X153.07Y-106.44
X153.07Y-108.98
X153.07Y-111.52
X128.65Y-102.05
X128.65Y-104.55
T3
X171.295Y-77.175
X171.295Y-79.715
X171.295Y-82.255
X171.295Y-84.795
X171.295Y-87.335
X171.295Y-89.875
X110.3Y-85.7
X110.3Y-105.7
X180.04Y-132.74
X187.64Y-132.74
X110.Y-67.05
X110.Y-69.59
X110.Y-72.13
X110.Y-74.67
T4
X149.7Y-118.4
X149.7Y-122.9
X156.2Y-118.4
X156.2Y-122.9
X138.95Y-118.4
X138.95Y-122.9
X145.45Y-118.4
X145.45Y-122.9
X117.03Y-81.07
X117.03Y-85.57
X123.53Y-81.07
X123.53Y-85.57
X170.07Y-112.12
X172.61Y-112.12
X175.15Y-112.12
X183.5Y-81.6
X186.04Y-81.6
X188.58Y-81.6
T5
X160.7Y-121.6
X181.02Y-121.6
T6
X184.57Y-70.83
X189.65Y-70.83
X189.54Y-91.61
X189.54Y-96.69
X161.9Y-133.75
X166.98Y-133.75
X189.47Y-102.94
X189.47Y-108.02
X128.15Y-133.75
X133.23Y-133.75
X139.4Y-133.75
X144.48Y-133.75
X189.55Y-114.37
X189.55Y-119.45
X150.65Y-133.75
X155.73Y-133.75
T0
M30
